<?xml version="1.0" encoding="utf-8"?>
<!-- Generator: Adobe Illustrator 22.0.1, SVG Export Plug-In . SVG Version: 6.00 Build 0)  -->
<svg version="1.1" id="Layer_1" xmlns="http://www.w3.org/2000/svg" xmlns:xlink="http://www.w3.org/1999/xlink" x="0px" y="0px"
	 viewBox="0 0 640 480" style="enable-background:new 0 0 640 480;" xml:space="preserve">
<style type="text/css">
	.st0{fill:url(#SVGID_1_);}
	.st1{fill:url(#SVGID_2_);}
	.st2{fill:url(#SVGID_3_);}
	.st3{fill:url(#SVGID_4_);}
	.st4{fill:url(#SVGID_5_);}
	.st5{fill:url(#SVGID_6_);}
	.st6{fill:url(#SVGID_7_);}
	.st7{fill:url(#SVGID_8_);}
	.st8{fill:url(#SVGID_9_);}
	.st9{fill:url(#SVGID_10_);}
	.st10{fill:url(#SVGID_11_);}
	.st11{fill:url(#SVGID_12_);}
	.st12{fill:url(#SVGID_13_);}
	.st13{fill:url(#SVGID_14_);}
	.st14{fill:url(#SVGID_15_);}
	.st15{fill:url(#SVGID_16_);}
</style>
<linearGradient id="SVGID_1_" gradientUnits="userSpaceOnUse" x1="253.9949" y1="369.3951" x2="253.9949" y2="15.0125">
	<stop  offset="9.124846e-02" style="stop-color:#9E005D"/>
	<stop  offset="0.211" style="stop-color:#9E005D"/>
	<stop  offset="1" style="stop-color:#1B1464"/>
</linearGradient>
<path class="st0" d="M396.3,323.3c0.1-0.1,0.2-0.2,0.3-0.3c-22.2,21.1-48.7,34.9-76.6,41.6c-37.5,9-77.5,5-112.8-11.9
	c-16.7-8-32.4-19-46.3-32.9c-22.8-22.8-37.8-50.6-44.8-79.9c-12.9-53.9,0.9-112.9,41.6-155.8c0.5-0.5,1-1,1.5-1.5
	c0.6-0.6,1.2-1.2,1.8-1.8c0.5-0.5,1.1-1,1.6-1.6c0.1-0.1,0.1-0.1,0.2-0.2c1.3-1.3,2.6-2.6,4-3.8c0.7-0.6,1.3-1.2,2-1.8
	c0.7-0.6,1.3-1.2,2-1.8c0.7-0.6,1.3-1.2,2-1.8c1.4-1.2,2.8-2.4,4.3-3.6c0.6-0.5,1.2-1,1.9-1.5c0.7-0.6,1.4-1.1,2.1-1.7
	c10.5-8.3,21.7-15.6,33.5-21.9c3.8-2,7.7-4,11.7-5.8c0.1-0.1,0.3-0.1,0.4-0.2c0,0,0,0,0.1,0c0.8-0.4,1.6-0.7,2.4-1.1c0,0,0,0,0,0
	c0.8-0.4,1.7-0.7,2.5-1.1c0.5-0.2,1.1-0.5,1.6-0.7c0.3-0.1,0.6-0.2,0.9-0.4c2.5-1.1,5.1-2,7.6-3c0.8-0.3,1.7-0.6,2.5-0.9
	c0,0,0,0,0,0c1.7-0.6,3.4-1.2,5.1-1.8c15.3-5.1,31.1-8.5,47-10.1c0.8-0.1,1.6-0.2,2.4-0.2c0.3,0,0.5,0,0.8-0.1
	c0.7-0.1,1.4-0.1,2.1-0.2c0.7-0.1,1.3-0.1,2-0.1c0.9-0.1,1.9-0.1,2.8-0.2c0.9,0,1.7-0.1,2.6-0.1c1.1-0.1,2.2-0.1,3.3-0.2
	c1.8-0.1,3.5-0.1,5.3-0.1c-59.9,0.9-112.3,33-141.5,80.8C160.1,121.5,151,151.7,151,184c0,19.6,3.4,38.5,9.5,56
	c13,37,38.4,68,71.3,88.2c24.6,15.1,53.3,24,84,24.7c0,0,0,0,0.1,0c0.2,0,0.4,0,0.5,0c0,0,0.1,0,0.1,0c0,0,0,0,0,0
	c0.1,0,0.2,0,0.2,0c0,0,0.1,0,0.1,0c0.2,0,0.3,0,0.5,0c0.1,0,0.2,0,0.3,0c0,0,0,0,0,0c0.3,0,0.6,0,0.9,0c0.1,0,0.1,0,0.1,0
	c0.3,0,0.5,0,0.8,0c0.1,0,0.2,0,0.4,0c0.7,0,1.5,0,2.2,0c0.1,0,0.1,0,0.2,0c0.1,0,0.1,0,0.2,0s0.1,0,0.2,0c0,0,0,0,0,0
	c0.1,0,0.2,0,0.3,0c0.1,0,0.2,0,0.3,0c0,0,0.1,0,0.1,0c0.1,0,0.1,0,0.2,0c0,0,0,0,0.1,0c0,0,0.1,0,0.1,0c0,0,0.1,0,0.1,0
	c0,0,0.1,0,0.1,0c0.1,0,0.1,0,0.2,0c0,0,0.1,0,0.1,0c0,0,0,0,0.1,0c0.1,0,0.2,0,0.2,0c0,0,0,0,0,0c0.3,0,0.5,0,0.8,0c0,0,0,0,0.1,0
	c0.1,0,0.2,0,0.3,0c0,0,0,0,0,0c0,0,0.1,0,0.1,0c0,0,0,0,0,0c0,0,0.1,0,0.1,0c0,0,0,0,0.1,0c0,0,0.1,0,0.1,0h0c0.1,0,0.3,0,0.4,0
	c0.1,0,0.1,0,0.2,0c0,0,0.1,0,0.1,0c0,0,0.1,0,0.1,0c0.1,0,0.2,0,0.3,0c0,0,0.1,0,0.1,0c0,0,0.1,0,0.1,0c0,0,0.1,0,0.2,0
	c0,0,0,0,0.1,0c0.1,0,0.1,0,0.2,0c0.1,0,0.3,0,0.4,0c0,0,0.1,0,0.1,0c0.1,0,0.1,0,0.2,0c0,0,0.1,0,0.1,0c0,0,0,0,0,0
	c0,0,0.1,0,0.1,0c0,0,0.1,0,0.1,0c0,0,0.1,0,0.1,0c0,0,0.1,0,0.1,0c0,0,0,0,0.1,0c0.1,0,0.3,0,0.5,0c0,0,0,0,0,0c0,0,0.1,0,0.1,0
	c0,0,0.1,0,0.1,0c0.1,0,0.1,0,0.2,0c0,0,0,0,0,0h0c0,0,0,0,0.1,0c0.3,0,0.6-0.1,0.9-0.1c0.2,0,0.4,0,0.5-0.1c0.1,0,0.2,0,0.3,0
	c0.2,0,0.3,0,0.5-0.1c0,0,0,0,0.1,0c0.1,0,0.2,0,0.2,0c0.1,0,0.1,0,0.1,0c0.1,0,0.2,0,0.2,0c0.2,0,0.4,0,0.6-0.1
	c0.3,0,0.6-0.1,0.9-0.1c0,0,0,0,0,0c0.1,0,0.3,0,0.4-0.1c0.3,0,0.5-0.1,0.8-0.1c0.3-0.1,0.7-0.1,1-0.2c0.2,0,0.4,0,0.6-0.1
	c0.1,0,0.3,0,0.4-0.1c0,0,0.1,0,0.1,0c0.1,0,0.1,0,0.2,0c0.1,0,0.1,0,0.2,0c0.1,0,0.2,0,0.2,0c0.3,0,0.5-0.1,0.8-0.1
	c0.1,0,0.3-0.1,0.4-0.1c0,0,0,0,0.1,0c0,0,0.1,0,0.1,0c0,0,0,0,0.1,0c0.1,0,0.1,0,0.2,0c0.5-0.1,0.9-0.2,1.4-0.3
	c0.3,0,0.5-0.1,0.8-0.2c0.1,0,0.2,0,0.2-0.1c0.1,0,0.1,0,0.2,0c0.5-0.1,1.1-0.2,1.6-0.3c0.1,0,0.2,0,0.3-0.1c0,0,0,0,0,0
	c0.5-0.1,0.9-0.2,1.4-0.3c0.1,0,0.1,0,0.2,0c0,0,0.1,0,0.1,0c0,0,0,0,0,0c0.2-0.1,0.4-0.1,0.7-0.2c0.1,0,0.2,0,0.3-0.1
	c0.1,0,0.2-0.1,0.4-0.1c0,0,0.1,0,0.1,0c0.2-0.1,0.5-0.1,0.7-0.2c0.1,0,0.3-0.1,0.4-0.1c0.3-0.1,0.7-0.2,1-0.3
	c0.2,0,0.4-0.1,0.5-0.2c0.1,0,0.2,0,0.3-0.1c0.1,0,0.2,0,0.2-0.1c0,0,0,0,0,0c0.1,0,0.2,0,0.2-0.1c0,0,0.1,0,0.1,0
	c0.5-0.1,1-0.3,1.4-0.4c0.2-0.1,0.3-0.1,0.5-0.2c0.2-0.1,0.5-0.2,0.8-0.2c0.2,0,0.3-0.1,0.5-0.2c0.1,0,0.2,0,0.2-0.1
	c0.1,0,0.2,0,0.2-0.1c0.1,0,0.1,0,0.2-0.1c0,0,0,0,0.1,0c0,0,0.1,0,0.1,0c0,0,0.1,0,0.1,0c0,0,0.1,0,0.1,0c0.1,0,0.2-0.1,0.3-0.1
	c0.2-0.1,0.3-0.1,0.5-0.2c0.1,0,0.2-0.1,0.3-0.1c0.2-0.1,0.3-0.1,0.5-0.2c0,0,0.1,0,0.1-0.1c0.1,0,0.2-0.1,0.4-0.1c0,0,0.1,0,0.1,0
	c0,0,0,0,0,0s0,0,0.1,0c0,0,0.1,0,0.1,0c0,0,0,0,0,0c0.2-0.1,0.4-0.1,0.6-0.2c0.1,0,0.3-0.1,0.4-0.2c0.1,0,0.2-0.1,0.3-0.1
	c0,0,0,0,0.1,0c0,0,0,0,0,0c0,0,0.1,0,0.2-0.1c0,0,0.1,0,0.1,0c0,0,0.1,0,0.1,0c0.2,0,0.3-0.1,0.5-0.2c0,0,0.1,0,0.2-0.1
	c0.1,0,0.2-0.1,0.3-0.1c0,0,0,0,0,0c0.1,0,0.3-0.1,0.4-0.2c0.1,0,0.2-0.1,0.3-0.1c0.1,0,0.1,0,0.2-0.1c0,0,0.1,0,0.1,0
	c0,0,0,0,0.1,0c0,0,0,0,0,0c0,0,0,0,0,0c0,0,0,0,0,0c0.1,0,0.2-0.1,0.2-0.1c0.1,0,0.1,0,0.1-0.1c0,0,0.1,0,0.1,0
	c0.1,0,0.1,0,0.1-0.1c0,0,0.1,0,0.1,0c0.1,0,0.1,0,0.2-0.1c0,0,0,0,0.1,0c0,0,0,0,0,0c0.1,0,0.1,0,0.2-0.1c0.2-0.1,0.5-0.2,0.7-0.3
	c0,0,0.1,0,0.1-0.1c0,0,0,0,0.1,0c0,0,0.1,0,0.1-0.1c0.2-0.1,0.4-0.1,0.5-0.2c0,0,0,0,0,0c0.2-0.1,0.4-0.2,0.6-0.3
	c0,0,0.1,0,0.2-0.1c0.2-0.1,0.3-0.1,0.5-0.2c0.2-0.1,0.5-0.2,0.7-0.3c0.1-0.1,0.3-0.1,0.4-0.2c0,0,0,0,0,0c0.1,0,0.2-0.1,0.2-0.1
	c0,0,0.1,0,0.1,0c0,0,0,0,0,0l0,0c0.1,0,0.1,0,0.2-0.1c0,0,0.1,0,0.1-0.1c0,0,0,0,0,0c0.2-0.1,0.4-0.2,0.7-0.3c0,0,0.1,0,0.1-0.1
	c0.1,0,0.2-0.1,0.3-0.1c0.2-0.1,0.4-0.2,0.7-0.3c0.2-0.1,0.4-0.2,0.6-0.3c0,0,0.1,0,0.1-0.1c0.1,0,0.2-0.1,0.2-0.1
	c0,0,0.1,0,0.2-0.1c0.1,0,0.1-0.1,0.2-0.1c0,0,0.1,0,0.1-0.1c0.1,0,0.1,0,0.2-0.1c0.2-0.1,0.3-0.2,0.5-0.2c0,0,0.1,0,0.1-0.1
	c0,0,0,0,0.1,0h0c0,0,0.1,0,0.1-0.1c0,0,0,0,0,0c0,0,0,0,0.1,0c0,0,0.1,0,0.1-0.1c0,0,0,0,0,0c0,0,0,0,0,0c0,0,0,0,0.1,0
	c0.3-0.1,0.5-0.3,0.8-0.4c0,0,0,0,0,0c0.1-0.1,0.2-0.1,0.4-0.2c0.1,0,0.1-0.1,0.2-0.1c0.1,0,0.1-0.1,0.2-0.1
	c0.3-0.2,0.6-0.3,0.9-0.5c0.1,0,0.2-0.1,0.3-0.2c0.2-0.1,0.4-0.2,0.6-0.4c0,0,0,0,0,0c0.2-0.1,0.3-0.2,0.5-0.3c0,0,0.1,0,0.1-0.1
	c0.1,0,0.1,0,0.1-0.1c0.1,0,0.1-0.1,0.2-0.1c0,0,0.1,0,0.1,0c0,0,0.1,0,0.1-0.1c0,0,0.1,0,0.1,0c0.5-0.3,1-0.6,1.6-0.9
	c0.2-0.1,0.4-0.2,0.5-0.3c0.1-0.1,0.2-0.1,0.3-0.2c0.1,0,0.1-0.1,0.2-0.1c0,0,0,0,0,0c0.2-0.1,0.4-0.3,0.7-0.4
	c0.1-0.1,0.3-0.2,0.4-0.3c0.1-0.1,0.2-0.1,0.3-0.2c0.2-0.1,0.4-0.2,0.6-0.4c0.1-0.1,0.2-0.1,0.3-0.2c0.2-0.2,0.5-0.3,0.8-0.5
	c0.2-0.1,0.3-0.2,0.5-0.3c0,0,0.1,0,0.1-0.1c0.2-0.1,0.4-0.2,0.6-0.4c0.3-0.2,0.6-0.4,0.9-0.7c0.2-0.1,0.4-0.3,0.6-0.4
	c0.1-0.1,0.1-0.1,0.2-0.2c0.1,0,0.1-0.1,0.2-0.1c0.1-0.1,0.2-0.1,0.3-0.2c0.1,0,0.1-0.1,0.2-0.1c0.2-0.1,0.4-0.3,0.6-0.4
	c0.1-0.1,0.2-0.1,0.3-0.2c0.1-0.1,0.2-0.2,0.4-0.3c0.1,0,0.1-0.1,0.2-0.1c0,0,0.1,0,0.1-0.1c0,0,0.1-0.1,0.1-0.1c0,0,0.1,0,0.1-0.1
	c0.1-0.1,0.2-0.1,0.3-0.2c0.1,0,0.1-0.1,0.2-0.2c0,0,0,0,0,0c0.1-0.1,0.2-0.2,0.3-0.3c0.1-0.1,0.3-0.2,0.4-0.3
	c0.1,0,0.1-0.1,0.2-0.1c0,0,0,0,0,0c0,0,0,0,0,0c0.2-0.1,0.3-0.2,0.5-0.4c0.2-0.2,0.4-0.3,0.6-0.5c0,0,0.1-0.1,0.2-0.1
	c0.2-0.2,0.5-0.4,0.7-0.6c0.2-0.1,0.4-0.3,0.5-0.4c0.1-0.1,0.3-0.2,0.4-0.3c0,0,0.1,0,0.1-0.1c0,0,0,0,0,0c0.2-0.1,0.4-0.3,0.6-0.5
	c0.2-0.2,0.5-0.4,0.7-0.6c0,0,0.1-0.1,0.1-0.1c0.1,0,0.1-0.1,0.2-0.2c0,0,0.1,0,0.1-0.1c0,0,0.1,0,0.1-0.1c0,0,0.1-0.1,0.1-0.1h0
	c0.1-0.1,0.2-0.1,0.2-0.2c0,0,0,0,0-0.1c0,0,0.1,0,0.1-0.1c0,0,0.1-0.1,0.1-0.1c0.1-0.1,0.2-0.1,0.2-0.2c0,0,0.1,0,0.1-0.1
	c0.1-0.1,0.1-0.1,0.2-0.2C396.2,323.5,396.2,323.4,396.3,323.3z"/>
<linearGradient id="SVGID_2_" gradientUnits="userSpaceOnUse" x1="95.005" y1="246.6025" x2="432.92" y2="246.6025">
	<stop  offset="9.124846e-02" style="stop-color:#9E005D"/>
	<stop  offset="0.211" style="stop-color:#9E005D"/>
	<stop  offset="1" style="stop-color:#1B1464"/>
</linearGradient>
<path class="st1" d="M432.9,245.2c0-0.4,0-0.7,0-1.1c-0.7,30.8-9.7,59.5-24.7,84.1C388,361.1,357,386.5,320,399.5
	c-17.5,6.1-36.4,9.5-56,9.5c-32.3,0-62.5-9.1-88.2-24.8c-47.8-29.3-79.9-81.6-80.8-141.5c0-1.8,0-3.6,0-5.3c0-1.8,0.1-3.6,0.1-5.3
	c0-1.1,0.1-2.2,0.2-3.3c0-0.9,0.1-1.7,0.1-2.6c0.1-0.9,0.1-1.9,0.2-2.8c0-0.6,0.1-1.3,0.1-1.9c0.1-0.7,0.1-1.5,0.2-2.2
	c0-0.3,0.1-0.5,0.1-0.8c0.1-0.8,0.2-1.6,0.2-2.4c0.2-1.7,0.4-3.5,0.6-5.2c0-0.1,0-0.2,0-0.2c0.1-0.8,0.2-1.7,0.3-2.5
	c1.9-13.2,4.9-26.3,9.2-39.1c0.6-1.7,1.1-3.4,1.8-5.1c0.1-0.3,0.2-0.6,0.3-0.9c0.5-1.4,1-2.7,1.5-4c0.4-1.1,0.9-2.2,1.3-3.3
	c0.2-0.6,0.5-1.3,0.8-1.9c1-2.5,2.1-4.9,3.2-7.4c0,0,0,0,0-0.1c7.5-16.3,16.9-31.6,27.9-45.6c1.1-1.4,2.2-2.8,3.3-4.2
	c0.6-0.7,1.1-1.3,1.7-2c0,0,0,0,0,0c0.4-0.5,0.8-1,1.2-1.5c0.2-0.2,0.3-0.4,0.5-0.6c1.1-1.2,2.2-2.5,3.3-3.7
	c0.1-0.1,0.2-0.2,0.3-0.3c0.6-0.7,1.2-1.3,1.8-2c0.8-0.8,1.5-1.6,2.3-2.4C117,127.1,103.2,186.1,116.1,240c7,29.3,22,57,44.8,79.9
	c13.9,13.9,29.6,24.8,46.3,32.9c35.3,17,75.3,20.9,112.8,11.9c27.9-6.7,54.4-20.6,76.6-41.6c0.1-0.1,0.2-0.2,0.3-0.3
	c0,0,0.1-0.1,0.1-0.1c0.1-0.1,0.2-0.1,0.2-0.2c0.1,0,0.1-0.1,0.1-0.1c0,0,0,0,0,0c0.1-0.1,0.1-0.1,0.2-0.2h0c0,0,0,0,0,0
	c0.3-0.3,0.6-0.6,0.9-0.9c0.1-0.1,0.1-0.1,0.2-0.2c0,0,0,0,0,0c0,0,0.1-0.1,0.1-0.1c0.1,0,0.1-0.1,0.2-0.2c0.2-0.2,0.3-0.3,0.5-0.5
	c0.1-0.1,0.2-0.2,0.2-0.2c0,0,0.1-0.1,0.1-0.1c0.3-0.3,0.5-0.5,0.8-0.8c0.2-0.2,0.4-0.4,0.6-0.6c0,0,0-0.1,0.1-0.1
	c0.2-0.2,0.3-0.3,0.5-0.5c0.1-0.1,0.2-0.2,0.4-0.4c0.3-0.3,0.6-0.6,0.9-1c0.2-0.2,0.3-0.3,0.5-0.5c0,0,0,0,0.1-0.1
	c0.1-0.1,0.3-0.3,0.4-0.4c0.1-0.1,0.2-0.2,0.3-0.3c0,0,0-0.1,0.1-0.1c0.2-0.2,0.3-0.4,0.5-0.5c0.1-0.1,0.1-0.2,0.2-0.2
	c0.1-0.1,0.2-0.2,0.2-0.3c0.1-0.1,0.2-0.2,0.2-0.3c0.1-0.1,0.1-0.2,0.2-0.2c0.1-0.1,0.1-0.2,0.2-0.3c0.1-0.1,0.2-0.2,0.3-0.4
	c0,0,0.1-0.1,0.1-0.1c0.1-0.1,0.1-0.1,0.2-0.2c0.1-0.2,0.3-0.3,0.4-0.5c0.1-0.1,0.1-0.2,0.2-0.2c0,0,0,0,0-0.1c0,0,0,0,0,0
	c0,0,0,0,0,0c0,0,0,0,0,0c0.1-0.1,0.2-0.2,0.2-0.3c0.2-0.2,0.4-0.4,0.5-0.6c0.2-0.2,0.4-0.5,0.6-0.8c0,0,0,0,0-0.1
	c0.1-0.1,0.2-0.3,0.3-0.4c0,0,0,0,0.1-0.1c0.2-0.2,0.4-0.5,0.6-0.8c0,0,0-0.1,0-0.1c0.1-0.1,0.2-0.3,0.3-0.4
	c0.1-0.1,0.2-0.2,0.2-0.3c0.5-0.6,0.9-1.2,1.4-1.9c0,0,0,0,0,0l0,0c0.1-0.1,0.1-0.2,0.2-0.2c0.3-0.4,0.5-0.8,0.8-1.1
	c0.2-0.3,0.4-0.6,0.6-0.9c0.1-0.1,0.2-0.3,0.3-0.4c0.2-0.3,0.4-0.6,0.6-0.9c0,0,0,0,0,0c0.2-0.2,0.3-0.5,0.4-0.7c0,0,0.1,0,0.1-0.1
	c0.2-0.3,0.4-0.6,0.6-0.9c0.1-0.2,0.2-0.4,0.4-0.6c0.2-0.3,0.3-0.6,0.5-0.8c0.2-0.3,0.4-0.7,0.6-1c0.3-0.4,0.5-0.8,0.7-1.2
	c0,0,0.1-0.1,0.1-0.1c0.1-0.1,0.1-0.2,0.2-0.3c0.1-0.1,0.1-0.2,0.1-0.2c0.1-0.2,0.2-0.4,0.3-0.6c0.2-0.3,0.4-0.6,0.5-0.9
	c0,0,0-0.1,0.1-0.1c0-0.1,0.1-0.1,0.1-0.2c0.2-0.3,0.3-0.5,0.4-0.8c0.2-0.4,0.5-0.9,0.7-1.3c0.1-0.2,0.2-0.4,0.3-0.5
	c0.1-0.3,0.3-0.5,0.4-0.8c0,0,0,0,0-0.1c0-0.1,0.1-0.2,0.1-0.3c0,0,0,0,0,0c0-0.1,0.1-0.1,0.1-0.2c0.2-0.4,0.4-0.9,0.6-1.3
	c0.1-0.2,0.2-0.4,0.3-0.6c0.1-0.2,0.2-0.4,0.3-0.6c0,0,0,0,0,0c0.1-0.1,0.1-0.1,0.1-0.2c0,0,0-0.1,0-0.1c0.2-0.4,0.3-0.7,0.5-1.1
	c0.1-0.1,0.1-0.3,0.2-0.4c0.1-0.1,0.1-0.2,0.1-0.2c0,0,0,0,0-0.1c0-0.1,0.1-0.1,0.1-0.2c0-0.1,0.1-0.1,0.1-0.2
	c0-0.1,0.1-0.1,0.1-0.2c0-0.1,0.1-0.2,0.1-0.3c0-0.1,0.1-0.2,0.1-0.3c0-0.1,0.1-0.2,0.1-0.2c0-0.1,0.1-0.1,0.1-0.2c0,0,0-0.1,0-0.1
	c0,0,0-0.1,0-0.1c0,0,0-0.1,0.1-0.2c0,0,0,0,0,0c0,0,0,0,0,0c0,0,0-0.1,0-0.1c0,0,0,0,0-0.1c0-0.1,0.1-0.1,0.1-0.2
	c0-0.1,0.1-0.2,0.1-0.3c0,0,0-0.1,0.1-0.1c0-0.1,0.1-0.2,0.1-0.3c0.1-0.1,0.1-0.2,0.1-0.4c0.2-0.5,0.4-1,0.6-1.5c0,0,0,0,0-0.1
	c0.1-0.2,0.2-0.5,0.2-0.7c0.2-0.6,0.4-1.2,0.6-1.7c0,0,0-0.1,0.1-0.1c0.2-0.5,0.4-1.1,0.6-1.6c0.1-0.2,0.1-0.4,0.2-0.6
	c0,0,0-0.1,0-0.1c0.2-0.5,0.4-1,0.5-1.5c0.1-0.1,0.1-0.3,0.1-0.4c0,0,0,0,0,0c0,0,0-0.1,0.1-0.1c0-0.1,0.1-0.2,0.1-0.3c0,0,0,0,0,0
	c0,0,0,0,0-0.1c0.1-0.2,0.1-0.4,0.2-0.5c0.1-0.1,0.1-0.3,0.1-0.4c0-0.1,0.1-0.3,0.1-0.4c0.1-0.3,0.2-0.7,0.3-1.1c0,0,0-0.1,0-0.1
	c0,0,0-0.1,0-0.1c0-0.1,0-0.1,0.1-0.2c0.1-0.2,0.1-0.5,0.2-0.7c0.1-0.1,0.1-0.3,0.1-0.5c0.1-0.3,0.2-0.6,0.2-0.9c0,0,0,0,0,0
	c0-0.1,0.1-0.2,0.1-0.2c0-0.1,0-0.1,0-0.2c0,0,0,0,0,0c0,0,0,0,0,0c0.1-0.3,0.2-0.7,0.2-1c0-0.1,0-0.2,0.1-0.2
	c0-0.1,0.1-0.3,0.1-0.4c0-0.1,0.1-0.2,0.1-0.4c0-0.1,0.1-0.2,0.1-0.3c0-0.1,0-0.2,0.1-0.3c0.1-0.5,0.2-0.9,0.3-1.4
	c0.1-0.2,0.1-0.5,0.2-0.8c0.1-0.5,0.2-1,0.3-1.4c0-0.2,0.1-0.5,0.1-0.7c0-0.1,0.1-0.3,0.1-0.5c0-0.2,0.1-0.3,0.1-0.5
	c0,0,0-0.1,0-0.1c0-0.1,0-0.2,0-0.3c0.1-0.5,0.2-1,0.2-1.4c0-0.2,0.1-0.4,0.1-0.7c0-0.3,0.1-0.7,0.1-1c0-0.3,0.1-0.6,0.1-0.9
	c0,0,0,0,0,0c0-0.1,0-0.2,0-0.3c0-0.3,0.1-0.5,0.1-0.8c0-0.1,0-0.2,0-0.2c0-0.2,0.1-0.4,0.1-0.6c0-0.1,0-0.2,0-0.3
	c0-0.1,0-0.2,0-0.4c0-0.2,0-0.3,0-0.5c0-0.2,0.1-0.4,0.1-0.6c0,0,0,0,0,0c0-0.1,0-0.2,0-0.4c0-0.1,0-0.2,0-0.3c0-0.1,0-0.2,0-0.2
	c0-0.4,0.1-0.8,0.1-1.2c0-0.1,0-0.1,0-0.1c0-0.2,0-0.3,0-0.4c0,0,0,0,0,0c0-0.1,0-0.1,0-0.1c0,0,0-0.1,0-0.1c0-0.1,0-0.2,0-0.2
	c0-0.1,0-0.2,0-0.3c0,0,0-0.1,0-0.1c0-0.4,0-0.7,0.1-1.1c0-0.2,0-0.4,0-0.6c0-0.1,0-0.2,0-0.3c0-0.1,0-0.2,0-0.3c0,0,0-0.1,0-0.1
	c0-0.1,0-0.2,0-0.3C432.9,245.5,432.9,245.4,432.9,245.2z"/>
<linearGradient id="SVGID_3_" gradientUnits="userSpaceOnUse" x1="207.06" y1="233.3825" x2="544.995" y2="233.3825">
	<stop  offset="9.124846e-02" style="stop-color:#9E005D"/>
	<stop  offset="0.211" style="stop-color:#9E005D"/>
	<stop  offset="1" style="stop-color:#1B1464"/>
</linearGradient>
<path class="st2" d="M545,237.3c0,1.8,0,3.6,0,5.3c0,1.8-0.1,3.6-0.1,5.3c0,1.1-0.1,2.2-0.1,3.3c0,0.9-0.1,1.7-0.1,2.6
	c0,0.9-0.1,1.9-0.2,2.8c0,0.6-0.1,1.3-0.2,1.9c-0.1,0.7-0.1,1.5-0.2,2.2c0,0.3,0,0.5-0.1,0.8c-0.1,0.8-0.2,1.6-0.2,2.3
	c-0.2,1.7-0.4,3.5-0.6,5.2c0,0.1,0,0.2,0,0.2c-0.1,0.8-0.2,1.7-0.3,2.5c-1.9,13.2-4.9,26.3-9.2,39.1c-0.6,1.7-1.1,3.4-1.8,5.1
	c-0.1,0.3-0.2,0.6-0.4,1c-0.5,1.4-1,2.7-1.5,4.1c-0.5,1.2-0.9,2.4-1.4,3.6c-0.2,0.5-0.4,1-0.6,1.5c0,0,0,0,0,0
	c-0.3,0.8-0.7,1.7-1,2.5c0,0,0,0,0,0c-0.7,1.7-1.5,3.3-2.2,4.9c-7.1,15.5-15.9,30.1-26.2,43.5c-0.6,0.7-1.1,1.4-1.6,2.1
	c-0.6,0.7-1.1,1.4-1.7,2.1c-0.6,0.7-1.1,1.4-1.7,2.1c0,0,0,0,0,0c-0.6,0.7-1.1,1.3-1.7,2c0,0-0.1,0.1-0.1,0.1
	c-0.6,0.6-1.1,1.3-1.7,1.9v0c-0.6,0.7-1.2,1.3-1.8,2c-0.6,0.7-1.2,1.3-1.8,2c-0.6,0.7-1.2,1.3-1.8,1.9c-0.7,0.7-1.4,1.5-2.1,2.2
	c-0.1,0.1-0.1,0.2-0.2,0.2c40.6-42.9,54.5-101.9,41.6-155.8c-7-29.3-22-57-44.8-79.9c-13.9-13.9-29.6-24.8-46.3-32.9
	c-35.3-17-75.3-20.9-112.8-11.9c-4.4,1-8.8,2.3-13.1,3.7c-0.8,0.3-1.7,0.6-2.5,0.8c0,0-0.1,0-0.1,0c-0.6,0.2-1.1,0.4-1.7,0.6
	c-1.1,0.4-2.3,0.8-3.4,1.3c-0.9,0.3-1.7,0.7-2.6,1c-0.9,0.3-1.7,0.7-2.5,1c-0.8,0.4-1.7,0.7-2.5,1.1c-0.8,0.4-1.7,0.7-2.5,1.1
	c-1.7,0.8-3.3,1.6-5,2.4c-2.9,1.4-5.7,3-8.5,4.6s-5.6,3.3-8.3,5.1c-1,0.7-2,1.3-3,2c-1.1,0.8-2.3,1.6-3.4,2.4
	c-0.4,0.3-0.8,0.6-1.2,0.9c-0.7,0.5-1.3,1-2,1.5c-5.3,4-10.3,8.3-15.2,13c-0.1,0.1-0.2,0.2-0.3,0.3c0,0-0.1,0.1-0.1,0.1
	c-0.2,0.2-0.4,0.4-0.6,0.6c-0.1,0-0.1,0.1-0.1,0.1c-0.2,0.2-0.4,0.4-0.6,0.6c-0.1,0.1-0.1,0.1-0.2,0.2c-0.1,0.1-0.3,0.3-0.4,0.4
	c-0.4,0.4-0.8,0.8-1.2,1.3c-0.1,0.1-0.3,0.3-0.4,0.4c-0.1,0.1-0.1,0.1-0.2,0.2c-0.1,0.1-0.3,0.3-0.4,0.4c0,0-0.1,0.1-0.1,0.1
	c0,0,0,0-0.1,0.1c0,0,0,0,0,0c0,0,0,0,0,0l0,0c0,0,0,0,0,0c0,0-0.1,0.1-0.1,0.1c-0.1,0.1-0.2,0.2-0.2,0.2c0,0,0,0,0,0
	c0,0-0.1,0.1-0.1,0.1c0,0,0,0,0,0c0,0,0,0.1-0.1,0.1c0,0-0.1,0-0.1,0.1c0,0,0,0,0,0l0,0c-0.1,0.1-0.1,0.1-0.2,0.2
	c0,0-0.1,0.1-0.1,0.1c0,0-0.1,0.1-0.1,0.1c-0.1,0.1-0.2,0.2-0.3,0.3c-0.1,0-0.1,0.1-0.1,0.1c-0.1,0-0.1,0.1-0.1,0.1
	c-0.1,0.1-0.1,0.1-0.2,0.2c0,0,0,0-0.1,0.1c-0.1,0.1-0.2,0.2-0.3,0.4c-0.1,0.1-0.2,0.2-0.3,0.4c0,0,0,0,0,0c0,0-0.1,0.1-0.1,0.1
	c0,0,0,0,0,0c0,0,0,0.1-0.1,0.1c-0.2,0.2-0.3,0.4-0.5,0.5c-0.2,0.2-0.3,0.4-0.5,0.5c-0.1,0.1-0.2,0.2-0.3,0.4v0
	c-0.1,0.1-0.1,0.1-0.2,0.2c0,0,0,0,0,0c0,0,0,0-0.1,0.1c-0.2,0.2-0.4,0.5-0.6,0.7c0,0,0,0,0,0c-0.1,0.1-0.2,0.2-0.3,0.3
	c-0.1,0.1-0.2,0.2-0.3,0.3c0,0.1-0.1,0.1-0.1,0.1c-0.1,0.1-0.2,0.2-0.3,0.4c0,0.1-0.1,0.1-0.1,0.1c-0.1,0.1-0.1,0.1-0.2,0.2
	c-0.1,0.1-0.1,0.1-0.2,0.2c-0.3,0.3-0.6,0.7-0.8,1.1c-0.2,0.2-0.3,0.4-0.4,0.6c0,0-0.1,0.1-0.1,0.1c0,0.1-0.1,0.1-0.1,0.2
	c0,0.1-0.1,0.1-0.1,0.2c-0.3,0.4-0.6,0.8-0.9,1.2c-0.1,0.1-0.1,0.1-0.1,0.2c-0.2,0.3-0.5,0.6-0.7,0.9c-0.1,0.2-0.3,0.4-0.4,0.5
	c-0.2,0.2-0.3,0.4-0.4,0.6c-0.3,0.4-0.6,0.8-0.9,1.2c-0.2,0.3-0.5,0.7-0.7,1c-0.1,0.1-0.2,0.3-0.3,0.4c-0.4,0.6-0.8,1.2-1.2,1.8
	c-0.3,0.5-0.6,0.9-0.8,1.4c-0.2,0.3-0.4,0.6-0.6,0.9c-0.2,0.3-0.4,0.7-0.6,1c0,0,0,0.1-0.1,0.1c-0.2,0.4-0.4,0.7-0.6,1.1
	c0,0,0,0,0,0c0,0-0.1,0.1-0.1,0.1c0,0,0,0.1,0,0.1c-0.1,0.1-0.1,0.1-0.1,0.2c0,0,0,0,0,0c0,0,0,0.1-0.1,0.1c0,0,0,0,0,0
	c-0.1,0.2-0.2,0.3-0.3,0.5c-0.1,0.2-0.2,0.4-0.3,0.6c0,0-0.1,0.1-0.1,0.1c-0.1,0.2-0.2,0.4-0.4,0.6c-0.1,0.1-0.1,0.2-0.2,0.3
	c0,0.1-0.1,0.2-0.1,0.3c0,0,0,0,0,0.1c-0.1,0.1-0.1,0.2-0.2,0.3c-0.1,0.1-0.1,0.2-0.2,0.3c0,0.1-0.1,0.1-0.1,0.2c0,0,0,0,0,0
	c0,0,0,0.1,0,0.1c0,0.1-0.1,0.1-0.1,0.2c0,0,0,0.1-0.1,0.1c0,0.1-0.1,0.1-0.1,0.2c0,0,0,0,0,0c0,0.1-0.1,0.1-0.1,0.2
	c0,0,0,0.1-0.1,0.1c0,0,0,0.1-0.1,0.1c0,0.1-0.1,0.1-0.1,0.2c0,0,0,0,0,0c0,0,0,0,0,0.1c0,0,0,0,0,0c0,0,0,0,0,0.1c0,0,0,0,0,0
	c0,0,0,0.1,0,0.1c0,0-0.1,0.1-0.1,0.2c-0.1,0.2-0.2,0.3-0.2,0.5c0,0,0,0.1,0,0.1c0,0.1-0.1,0.2-0.1,0.2c0,0,0,0,0,0.1
	c-0.1,0.2-0.2,0.4-0.3,0.6c-0.1,0.2-0.2,0.3-0.2,0.5c0,0,0,0.1,0,0.1c0,0,0,0.1,0,0.1l0,0c0,0,0,0.1,0,0.1c0,0.1-0.1,0.1-0.1,0.2
	c0,0.1-0.1,0.1-0.1,0.1c0,0.1-0.1,0.2-0.1,0.2c0,0.1-0.1,0.2-0.1,0.2c0,0.1-0.1,0.2-0.1,0.2c-0.2,0.4-0.4,0.8-0.5,1.2
	c0,0.1,0,0.1-0.1,0.2c0,0.1,0,0.1-0.1,0.1c-0.1,0.3-0.3,0.6-0.4,0.9c-0.1,0.3-0.2,0.5-0.3,0.8c0,0,0,0,0,0c0,0.1-0.1,0.1-0.1,0.2
	c0,0,0,0.1,0,0.1c0,0,0,0,0,0c0,0,0,0,0,0c0,0.1-0.1,0.1-0.1,0.2c0,0-0.1,0.1-0.1,0.2c0,0.1,0,0.1-0.1,0.2c0,0,0,0.1,0,0.1
	c0,0.1-0.1,0.2-0.1,0.2c0,0,0,0,0,0.1c0,0.1-0.1,0.1-0.1,0.2c0,0,0,0.1,0,0.1c0,0,0,0.1-0.1,0.1c0,0,0,0,0,0c0,0,0,0.1-0.1,0.1
	c0,0,0,0,0,0c0,0.1-0.1,0.2-0.1,0.3c0,0,0,0,0,0.1c-0.1,0.2-0.1,0.3-0.2,0.4c0,0,0,0,0,0.1c0,0.1-0.1,0.2-0.1,0.2
	c0,0.1,0,0.1-0.1,0.2c0,0,0,0.1,0,0.1c-0.1,0.3-0.2,0.5-0.3,0.8c0,0.1,0,0.1-0.1,0.2c-0.1,0.2-0.1,0.3-0.2,0.5c0,0.1,0,0.1-0.1,0.2
	c0,0,0,0.1-0.1,0.1c0,0,0,0.1,0,0.1c0,0,0,0,0,0.1c0,0,0,0,0,0c0,0,0,0,0,0c0,0,0,0,0,0.1c0,0,0,0,0,0c0,0,0,0,0,0
	c0,0.1-0.1,0.1-0.1,0.2c-0.1,0.3-0.2,0.6-0.3,0.9c0,0.1-0.1,0.1-0.1,0.2c0,0.1-0.1,0.2-0.1,0.3c-0.1,0.3-0.2,0.5-0.3,0.8
	c-0.1,0.2-0.1,0.4-0.2,0.5c-0.1,0.2-0.1,0.3-0.2,0.5c-0.1,0.2-0.1,0.3-0.2,0.5c-0.1,0.2-0.2,0.5-0.2,0.7c0,0,0,0,0,0.1
	c0,0.1,0,0.1-0.1,0.2c0,0,0,0.1,0,0.1c0,0,0,0,0,0.1c0,0,0,0.1,0,0.1c0,0,0,0,0,0.1c0,0.1-0.1,0.2-0.1,0.3c0,0,0,0,0,0.1
	c0,0,0,0.1,0,0.1c-0.1,0.2-0.1,0.4-0.2,0.5c0,0,0,0.1,0,0.1c0,0.1-0.1,0.2-0.1,0.4c0,0.1,0,0.1-0.1,0.2c0,0.1-0.1,0.2-0.1,0.2
	c0,0,0,0,0,0.1v0c0,0,0,0,0,0c0,0.1-0.1,0.2-0.1,0.3c0,0,0,0.1,0,0.1c0,0,0,0,0,0.1c0,0.1,0,0.1-0.1,0.2c0,0.1,0,0.1-0.1,0.2
	c-0.2,0.6-0.3,1.2-0.5,1.8c-0.1,0.2-0.1,0.5-0.2,0.8c0,0,0,0.1,0,0.1c-0.1,0.1-0.1,0.3-0.1,0.5c-0.1,0.5-0.3,1.1-0.4,1.6
	c0,0,0,0.1,0,0.1c0,0.1,0,0.2-0.1,0.2c0,0.1,0,0.1,0,0.2c0,0.1-0.1,0.2-0.1,0.3c0,0,0,0.1,0,0.1c-0.1,0.7-0.3,1.3-0.4,2
	c-0.3,1.6-0.6,3.3-0.9,4.9c0,0,0,0,0,0.1c-0.1,0.3-0.1,0.5-0.1,0.8c0,0.1,0,0.2,0,0.3c-0.1,0.7-0.2,1.4-0.3,2.1
	c0,0.3-0.1,0.6-0.1,0.9c0,0.1,0,0.2,0,0.3c0,0,0,0,0,0c-0.1,0.4-0.1,0.8-0.1,1.1c0,0,0,0.1,0,0.1c0,0,0,0.1,0,0.1c0,0,0,0.1,0,0.1
	c0,0.2,0,0.3-0.1,0.5c0,0.1,0,0.2,0,0.3c0,0,0,0.1,0,0.1c0,0.2,0,0.4-0.1,0.6c0,0.1,0,0.2,0,0.2c0,0,0,0.1,0,0.1c0,0.1,0,0.1,0,0.2
	c0,0,0,0,0,0c0,0,0,0,0,0.1c0,0.1,0,0.1,0,0.2c0,0.1,0,0.2,0,0.2c0,0.1,0,0.2,0,0.3c0,0.1,0,0.2,0,0.3c0,0.1,0,0.2,0,0.3
	c0,0.1,0,0.1,0,0.2c0,0.3,0,0.6-0.1,0.9c0,0.1,0,0.1,0,0.2c0,0.1,0,0.1,0,0.2c0,0.1,0,0.2,0,0.3c0,0,0,0.1,0,0.1c0,0.1,0,0.2,0,0.2
	c0,0,0,0.1,0,0.1c0,0.2,0,0.4,0,0.6c0,0.2,0,0.3,0,0.5c0,0,0,0,0,0c0,0.1,0,0.1,0,0.1c0,0,0,0.1,0,0.1c0,0.1,0,0.2,0,0.3
	c0,0.1,0,0.2,0,0.3c0,0.1,0,0.1,0,0.2c0,0.1,0,0.1,0,0.2c0-0.7,0-1.3,0.1-2c0.2-7.1,0.9-14.2,2-21.1c0-0.2,0.1-0.5,0.1-0.8
	c0.1-0.5,0.2-1.1,0.3-1.6c0.1-0.7,0.3-1.5,0.4-2.2c0.2-1.2,0.5-2.4,0.7-3.5c0.3-1.6,0.7-3.2,1.1-4.8c0.8-3.2,1.6-6.3,2.5-9.4
	c0.5-1.6,1-3.1,1.5-4.6c0.6-1.8,1.2-3.5,1.8-5.2c0.3-0.9,0.6-1.7,1-2.6c0.3-0.9,0.7-1.7,1-2.6c0.3-0.8,0.7-1.7,1.1-2.5
	c0.4-0.8,0.7-1.7,1.1-2.5c0.5-1.1,1-2.2,1.5-3.3c0.2-0.6,0.5-1.1,0.8-1.6c0,0,0-0.1,0.1-0.1c0.4-0.8,0.8-1.6,1.2-2.4
	c2.1-4.1,4.3-8,6.6-11.9C252,118.9,283,93.5,320,80.5c17.5-6.2,36.4-9.5,56-9.5c32.3,0,62.5,9.1,88.2,24.8
	C512,125.1,544,177.4,545,237.3z"/>
<linearGradient id="SVGID_4_" gradientUnits="userSpaceOnUse" x1="190.5974" y1="173.9861" x2="544.98" y2="173.9861">
	<stop  offset="9.124846e-02" style="stop-color:#9E005D"/>
	<stop  offset="0.211" style="stop-color:#9E005D"/>
	<stop  offset="1" style="stop-color:#1B1464"/>
</linearGradient>
<path class="st3" d="M544.9,232c0.1,1.8,0.1,3.6,0.1,5.3c-0.9-59.9-33-112.3-80.8-141.5C438.5,80.1,408.3,71,376,71
	c-19.6,0-38.5,3.3-56,9.5c-37,13-68,38.4-88.2,71.3c-2.4,3.9-4.6,7.8-6.6,11.9c-0.4,0.8-0.8,1.6-1.2,2.4c0,0,0,0.1-0.1,0.1
	c-0.3,0.5-0.5,1.1-0.8,1.6c-0.5,1.1-1,2.2-1.5,3.3c-0.4,0.8-0.7,1.7-1.1,2.5c-0.4,0.8-0.7,1.7-1.1,2.5c-0.4,0.8-0.7,1.7-1,2.6
	c-0.3,0.8-0.7,1.7-1,2.6c-0.7,1.7-1.3,3.5-1.8,5.2c-0.5,1.5-1,3.1-1.5,4.6c-0.9,3.1-1.8,6.2-2.5,9.4c-0.4,1.6-0.7,3.2-1.1,4.8
	c-0.2,1.2-0.5,2.3-0.7,3.5c-0.1,0.7-0.3,1.5-0.4,2.2c-0.1,0.5-0.2,1.1-0.3,1.6c0,0.2-0.1,0.5-0.1,0.8c-1.1,6.9-1.8,13.9-2,21.1
	c0,0.7-0.1,1.5-0.1,2.2c0,0.1,0,0.1,0,0.2c0,0,0,0,0,0.1c0,0.1,0,0.1,0,0.1c0,0.2,0,0.5,0,0.8c0,0.2,0,0.3,0,0.4c0,0.1,0,0.2,0,0.4
	c0,0,0,0.1,0,0.1s0,0.1,0,0.1c0,0.3,0,0.6,0,0.9c0,0.1,0,0.3,0,0.4c0,0.1,0,0.2,0,0.3c0,0.4,0,0.8,0,1.2c0,0.1,0,0.2,0,0.2
	c0,0.2,0,0.5,0,0.7c0,0.1,0,0.1,0,0.2c0,0,0,0,0,0c0,0.1,0,0.2,0,0.3v0c0,0,0,0,0,0c0,0.1,0,0.2,0,0.4c0,0.2,0,0.4,0,0.6
	c0,0.3,0,0.6,0,0.8c0,0.2,0,0.4,0,0.6c0,0,0,0,0,0.1c0,0,0,0,0,0c0,0,0,0,0,0.1c0,0.1,0,0.2,0,0.3c0,0,0,0,0,0c0,0.1,0,0.1,0,0.2
	c0,0,0,0,0,0s0,0,0,0c0,0,0,0.1,0,0.1s0,0.1,0,0.1c0,0,0,0.1,0,0.1c0,0,0,0.1,0,0.1c0,0,0,0.1,0,0.1c0,0,0,0.1,0,0.1
	c0,0,0,0.1,0,0.1c0,0,0,0,0,0.1c0,0,0,0.1,0,0.1c0,0,0,0,0,0c0,0.2,0,0.4,0,0.6c0,0.1,0,0.1,0,0.2c0,0.1,0,0.3,0,0.4
	c0,0.1,0,0.3,0,0.4c0,0.1,0,0.1,0,0.2c0,0,0,0,0,0c0,0,0,0,0,0c0,0,0,0,0,0c0,0,0,0,0,0c0,0,0,0.1,0,0.1c0,0,0,0.1,0,0.1
	c0,0,0,0,0,0c0,0.1,0,0.2,0,0.2c0,0,0,0.1,0,0.1c0,0,0,0,0,0c0,0,0,0,0,0.1c0,0.1,0,0.3,0,0.4c0,0,0,0.1,0,0.1c0,0.1,0,0.2,0,0.4
	c0,0,0,0,0,0s0,0,0,0c0,0.2,0,0.3,0.1,0.5c0,0.1,0,0.2,0,0.4c0,0.1,0,0.1,0,0.2c0,0.4,0.1,0.8,0.1,1.2c0,0.4,0.1,0.8,0.1,1.2
	c0,0,0,0.1,0,0.1c0,0.1,0,0.3,0.1,0.4c0,0.1,0,0.1,0,0.2c0,0.1,0,0.1,0,0.2c0,0.1,0,0.2,0,0.2c0,0,0,0.1,0,0.1c0,0.3,0.1,0.6,0.1,1
	c0,0.1,0,0.2,0.1,0.3c0,0.2,0.1,0.3,0.1,0.5c0,0,0,0.1,0,0.1c0,0,0,0,0,0c0,0.1,0,0.2,0,0.3c0,0.1,0,0.1,0,0.2c0,0,0,0,0,0.1
	c0,0.1,0,0.2,0,0.2c0,0.1,0.1,0.3,0.1,0.5c0,0.1,0,0.2,0.1,0.3c0,0.1,0,0.1,0,0.2c0,0,0,0.1,0,0.1c0,0.2,0.1,0.4,0.1,0.7
	c0,0.1,0.1,0.3,0.1,0.5c0,0.1,0,0.2,0.1,0.3c0.1,0.6,0.2,1.3,0.4,1.9c0.1,0.5,0.2,1.1,0.3,1.6c0.1,0.4,0.2,0.7,0.2,1.1c0,0,0,0,0,0
	c0.1,0.5,0.2,1,0.4,1.6c0,0,0,0.1,0,0.1c0.1,0.3,0.1,0.6,0.2,0.9c0,0.1,0.1,0.2,0.1,0.3c0.1,0.3,0.1,0.5,0.2,0.8c0,0,0,0.1,0,0.1
	c0,0.1,0.1,0.2,0.1,0.4c0,0.2,0.1,0.4,0.2,0.6c0,0,0,0.1,0,0.1c0,0,0,0.1,0,0.1c0,0,0,0,0,0c0,0,0,0,0,0.1c0,0,0,0.1,0,0.1
	c0,0,0,0.1,0,0.1c0,0.1,0,0.2,0.1,0.3c0,0.1,0,0.2,0.1,0.2c0.1,0.2,0.1,0.5,0.2,0.7c0,0,0,0.1,0,0.1c0,0,0,0.1,0,0.1
	c0,0.1,0.1,0.3,0.1,0.4c0,0,0,0,0,0c0,0.1,0.1,0.2,0.1,0.3c0,0.1,0.1,0.2,0.1,0.3c0,0.1,0.1,0.2,0.1,0.3c0,0,0,0,0,0.1
	c0,0,0,0.1,0,0.1c0,0.1,0,0.2,0.1,0.2c0,0.1,0.1,0.3,0.1,0.4c0,0.1,0.1,0.1,0.1,0.2c0,0.1,0.1,0.2,0.1,0.3c0,0.1,0,0.1,0.1,0.1
	c0,0.1,0.1,0.3,0.1,0.4c0,0,0,0,0,0c0,0.1,0,0.1,0.1,0.2c0,0.1,0,0.1,0.1,0.2l0,0c0,0,0,0,0,0.1c0,0.1,0.1,0.2,0.1,0.3c0,0,0,0,0,0
	c0,0,0,0.1,0,0.1c0,0,0,0,0,0c0,0,0,0,0,0.1c0,0.1,0.1,0.2,0.1,0.4c0,0.1,0.1,0.2,0.1,0.3c0,0,0,0.1,0,0.1c0,0,0,0,0,0.1
	c0,0.1,0.1,0.1,0.1,0.2c0.1,0.3,0.2,0.6,0.3,0.9c0,0,0,0,0,0c0,0,0,0,0,0.1c0,0,0,0,0,0.1c0,0,0,0,0,0c0,0,0,0,0,0c0,0,0,0.1,0,0.1
	c0,0,0,0,0,0c0,0.1,0,0.1,0.1,0.1c0.1,0.2,0.1,0.4,0.2,0.6c0,0.1,0.1,0.2,0.1,0.3c0,0.1,0.1,0.2,0.1,0.2c0,0.1,0.1,0.2,0.1,0.3
	c0.1,0.1,0.1,0.3,0.2,0.4c0,0.1,0.1,0.2,0.1,0.3c0,0,0,0.1,0,0.1c0,0,0,0,0,0.1c0,0,0,0.1,0,0.1c0,0,0,0,0,0c0,0.1,0,0.1,0.1,0.2
	c0,0,0,0,0,0.1c0,0.1,0,0.1,0.1,0.1c0.1,0.2,0.2,0.5,0.3,0.7c0,0.1,0,0.1,0.1,0.1c0,0,0,0,0,0c0,0,0,0,0,0c0,0,0,0,0,0.1
	c0,0,0,0,0,0c0,0,0,0,0,0c0,0,0,0,0,0.1c0.1,0.1,0.1,0.2,0.2,0.4c0,0,0,0,0,0.1c0,0,0,0,0,0c0,0,0,0.1,0,0.1
	c0.1,0.1,0.1,0.3,0.2,0.4c0,0.1,0.1,0.1,0.1,0.2c0,0.1,0.1,0.2,0.1,0.3c0,0,0,0.1,0,0.1c0,0,0,0,0,0c0,0,0,0.1,0.1,0.1c0,0,0,0,0,0
	c0,0.1,0.1,0.1,0.1,0.2c0.1,0.1,0.1,0.3,0.2,0.4c0,0,0,0,0,0.1c0,0,0,0.1,0.1,0.1c0,0.1,0.1,0.1,0.1,0.2c0,0,0,0.1,0.1,0.1
	c0.1,0.2,0.2,0.4,0.3,0.6c0,0.1,0.1,0.1,0.1,0.2c0,0.1,0.1,0.2,0.1,0.3c0,0.1,0.1,0.2,0.1,0.3c0,0,0,0.1,0,0.1c0,0,0,0,0,0.1
	c0.1,0.2,0.2,0.4,0.3,0.7c0,0,0,0,0,0c0,0,0,0.1,0.1,0.1c0,0,0,0,0,0.1c0,0,0,0.1,0.1,0.1c0,0,0,0,0,0c0,0,0,0,0,0
	c0,0,0,0.1,0.1,0.1c0,0.1,0.1,0.1,0.1,0.1c0,0,0,0.1,0.1,0.1c0,0,0,0.1,0.1,0.1c0,0,0,0,0,0c0.1,0.2,0.2,0.4,0.3,0.7
	c0,0.1,0,0.1,0.1,0.2c0,0,0,0.1,0.1,0.1c0.1,0.2,0.2,0.4,0.3,0.7c0,0,0,0,0,0c0.1,0.2,0.2,0.4,0.3,0.5c0,0,0.1,0.1,0.1,0.1
	c0,0,0,0,0,0.1c0,0.1,0.1,0.2,0.1,0.2c0,0,0,0.1,0.1,0.1c0,0,0.1,0.1,0.1,0.1c0,0,0,0,0,0c0,0.1,0.1,0.1,0.1,0.2
	c0.1,0.3,0.3,0.5,0.4,0.8c0,0,0,0,0,0c0,0,0.1,0.1,0.1,0.1c0,0,0,0,0,0.1c0,0,0,0,0,0.1c0,0,0,0,0,0c0,0,0,0.1,0.1,0.1
	c0.1,0.3,0.3,0.6,0.4,0.8c0,0,0,0,0,0.1c0,0,0.1,0.1,0.1,0.1c0,0.1,0.1,0.2,0.1,0.3c0,0.1,0.1,0.1,0.1,0.2c0,0,0,0,0,0
	c0.1,0.2,0.2,0.4,0.3,0.6c0,0,0,0,0,0c0,0,0,0,0,0c0,0.1,0.1,0.1,0.1,0.2c0,0,0,0,0,0.1c0,0,0.1,0.1,0.1,0.1c0,0.1,0.1,0.1,0.1,0.2
	c0.1,0.2,0.3,0.5,0.4,0.7c0.1,0.2,0.2,0.4,0.3,0.5c0.1,0.2,0.2,0.4,0.3,0.5c0,0.1,0.1,0.1,0.1,0.2c0,0,0,0,0,0.1
	c0.2,0.3,0.4,0.6,0.6,0.9c0,0,0,0,0,0c0.1,0.1,0.1,0.2,0.2,0.3c0.1,0.1,0.1,0.2,0.2,0.4s0.2,0.3,0.2,0.4c0,0.1,0.1,0.1,0.1,0.2
	c0,0,0,0.1,0.1,0.1c0.1,0.2,0.3,0.4,0.4,0.7c0.1,0.1,0.2,0.3,0.3,0.4c0.1,0.1,0.1,0.2,0.2,0.2c0.1,0.2,0.2,0.3,0.3,0.5
	c0,0,0,0.1,0.1,0.1c0.1,0.1,0.1,0.2,0.2,0.3c0.2,0.4,0.5,0.7,0.7,1.1c0.4,0.6,0.8,1.2,1.2,1.7c0.1,0.1,0.1,0.1,0.2,0.2
	c0.1,0.1,0.2,0.3,0.3,0.4c0.2,0.3,0.4,0.6,0.6,0.9c0.1,0.2,0.2,0.4,0.4,0.5c0.1,0.1,0.2,0.3,0.3,0.4c0.4,0.5,0.8,1,1.1,1.5
	c0.3,0.4,0.6,0.8,1,1.2c0.2,0.2,0.4,0.5,0.6,0.7c0,0.1,0.1,0.1,0.2,0.2c0.1,0.1,0.1,0.1,0.2,0.2s0.1,0.1,0.2,0.2
	c0,0.1,0.1,0.1,0.1,0.2c0.1,0.1,0.2,0.2,0.2,0.3c0,0,0.1,0.1,0.1,0.1c0.1,0.1,0.2,0.3,0.3,0.4c0.1,0.1,0.1,0.2,0.2,0.3
	c0.1,0.1,0.1,0.2,0.2,0.3c0,0,0,0,0.1,0.1c0,0,0,0,0,0l0,0c0,0,0.1,0.1,0.1,0.1c0,0,0,0,0,0c0.1,0.1,0.2,0.2,0.3,0.3
	c0,0,0.1,0.1,0.1,0.1c0.1,0.1,0.1,0.1,0.2,0.2c0,0,0.1,0.1,0.1,0.1c0.1,0.1,0.1,0.1,0.2,0.2c0.1,0.1,0.2,0.2,0.3,0.3c0,0,0,0,0,0
	c0,0,0,0.1,0.1,0.1c0.1,0.1,0.1,0.1,0.2,0.2c0,0,0,0,0,0c0,0,0,0,0,0c0,0,0,0,0,0.1c0,0,0,0,0,0c0,0,0,0,0,0c0,0,0,0.1,0.1,0.1
	c0,0,0,0,0,0c0,0,0,0,0,0c0.1,0.1,0.1,0.2,0.2,0.3c0,0,0.1,0.1,0.1,0.1c0,0,0,0,0,0.1c0,0,0.1,0.1,0.1,0.1c0,0,0.1,0.1,0.1,0.1
	c0.1,0.1,0.2,0.2,0.3,0.3c0.1,0.1,0.3,0.3,0.4,0.4c0,0,0,0,0,0c0,0.1,0.1,0.1,0.1,0.1c-21.1-22.2-34.9-48.7-41.6-76.6
	c-9-37.5-5-77.5,11.9-112.8c8-16.7,19-32.4,32.9-46.3C263,58,290.7,43.1,320,36.1c53.9-12.9,112.8,0.9,155.7,41.5c0,0,0.1,0,0.1,0.1
	c0.5,0.5,1,1,1.5,1.5c0.1,0.1,0.1,0.1,0.2,0.2c0.5,0.5,1.1,1,1.6,1.6c0.6,0.6,1.2,1.2,1.8,1.8c1.3,1.3,2.6,2.6,3.8,4
	c0.6,0.7,1.2,1.3,1.8,2c0.1,0.1,0.2,0.2,0.3,0.3c1.7,1.9,3.4,3.8,5,5.7c0.6,0.7,1.1,1.4,1.7,2c12.5,15.1,23,31.8,31.2,49.8
	c1.1,2.4,2.2,4.9,3.2,7.4c0.3,0.6,0.5,1.3,0.8,1.9c0.4,1.1,0.8,2.1,1.3,3.2c0.5,1.4,1,2.7,1.5,4.1c0.1,0.3,0.2,0.6,0.4,0.9
	c0.6,1.7,1.2,3.4,1.8,5.1c4.2,12.8,7.3,25.8,9.2,39.1c0.1,0.8,0.2,1.7,0.3,2.5c0,0.1,0,0.2,0,0.2c0.2,1.7,0.4,3.5,0.6,5.2
	c0.1,0.8,0.2,1.6,0.2,2.4c0,0.3,0.1,0.5,0.1,0.8c0.1,0.7,0.1,1.5,0.2,2.2c0.1,0.6,0.1,1.3,0.2,1.9c0.1,0.9,0.1,1.9,0.2,2.8
	c0,0.8,0.1,1.7,0.1,2.6C544.8,229.8,544.8,230.9,544.9,232z"/>
<linearGradient id="SVGID_5_" gradientUnits="userSpaceOnUse" x1="243.14" y1="287.7838" x2="528.5905" y2="287.7838">
	<stop  offset="9.124846e-02" style="stop-color:#9E005D"/>
	<stop  offset="0.211" style="stop-color:#9E005D"/>
	<stop  offset="1" style="stop-color:#1B1464"/>
</linearGradient>
<path class="st4" d="M523.9,240c12.9,53.9-0.9,112.9-41.6,155.8c-0.4,0.5-0.9,1-1.4,1.4c0,0-0.1,0.1-0.1,0.1
	c-0.6,0.6-1.1,1.2-1.8,1.8c-0.5,0.5-1.1,1.1-1.6,1.6c-0.1,0.1-0.1,0.1-0.2,0.2c-0.7,0.7-1.4,1.3-2,2c0,0,0,0,0,0
	c-0.6,0.6-1.3,1.2-1.9,1.8c-0.6,0.6-1.3,1.2-2,1.8c-0.1,0.1-0.2,0.2-0.3,0.3c-0.6,0.5-1.1,1-1.7,1.5c-0.5,0.4-1,0.9-1.5,1.3
	c-0.2,0.1-0.3,0.3-0.5,0.4c-0.2,0.2-0.4,0.3-0.6,0.5c-0.3,0.2-0.6,0.5-0.9,0.8c-0.3,0.3-0.6,0.5-0.9,0.8c-0.1,0.1-0.2,0.2-0.4,0.3
	c-0.5,0.4-0.9,0.8-1.4,1.1c-0.7,0.6-1.4,1.1-2.1,1.7c-3.5,2.8-7,5.5-10.6,8.1c-0.7,0.5-1.5,1-2.2,1.5c-2.2,1.5-4.4,3-6.7,4.5
	c-2.2,1.4-4.5,2.9-6.8,4.2c-6.9,4.1-14,7.9-21.4,11.2c0,0,0,0-0.1,0c-1.6,0.7-3.2,1.4-4.9,2.1c0,0-0.1,0-0.1,0
	c-4.1,1.8-8.3,3.4-12.6,4.9c-1.7,0.6-3.4,1.2-5.1,1.8c-15.3,5.1-31.1,8.5-47,10.1c-0.8,0.1-1.6,0.2-2.4,0.2c-0.3,0-0.5,0.1-0.8,0.1
	c-0.7,0.1-1.5,0.1-2.2,0.2c-0.6,0-1.3,0.1-1.9,0.1c-0.9,0.1-1.9,0.1-2.8,0.2c-0.9,0-1.7,0.1-2.6,0.1c-1.1,0.1-2.2,0.1-3.3,0.1
	c-1.8,0.1-3.5,0.1-5.3,0.1c59.9-0.9,112.3-33,141.5-80.8c15.7-25.7,24.8-55.9,24.8-88.2c0-19.6-3.4-38.5-9.5-56
	c-13-37-38.4-68-71.3-88.2c-3.9-2.4-7.8-4.6-11.9-6.6c-0.8-0.4-1.6-0.8-2.4-1.2c0,0-0.1,0-0.1-0.1c-0.5-0.3-1.1-0.5-1.6-0.8
	c-1.1-0.5-2.2-1-3.3-1.5c-0.8-0.4-1.7-0.7-2.5-1.1c-0.8-0.4-1.7-0.7-2.5-1.1c-0.8-0.3-1.7-0.7-2.6-1c-0.8-0.3-1.7-0.7-2.6-1
	c-1.7-0.6-3.5-1.3-5.2-1.8c-1.5-0.5-3.1-1-4.6-1.5c-3.1-0.9-6.2-1.8-9.4-2.5c-1.6-0.4-3.2-0.7-4.8-1.1c-0.7-0.1-1.5-0.3-2.2-0.4
	c-4.3-0.9-8.7-1.5-13.2-2c-0.7-0.1-1.4-0.1-2-0.2c-4.8-0.5-9.7-0.8-14.6-0.9c-0.1,0-0.3,0-0.4,0c-0.2,0-0.3,0-0.5,0
	c-0.5,0-1,0-1.5,0c-0.2,0-0.4,0-0.6,0c-0.5,0-1,0-1.5,0c-0.2,0-0.5,0-0.8,0c-0.2,0-0.4,0-0.6,0c0,0-0.1,0-0.1,0c-0.1,0-0.2,0-0.3,0
	c-0.5,0-1,0-1.5,0.1c-0.1,0-0.3,0-0.4,0c-0.1,0-0.2,0-0.2,0c-0.1,0-0.2,0-0.3,0c0,0-0.1,0-0.1,0c0,0,0,0,0,0c-0.1,0-0.2,0-0.2,0
	c-0.1,0-0.2,0-0.3,0c0,0,0,0,0,0c-0.1,0-0.3,0-0.4,0c-0.1,0-0.2,0-0.2,0c-0.4,0-0.7,0-1.1,0.1c-0.1,0-0.1,0-0.2,0c0,0-0.1,0-0.1,0
	c-0.1,0-0.2,0-0.3,0c0,0-0.1,0-0.1,0c0,0,0,0,0,0c-0.1,0-0.3,0-0.4,0c-0.4,0-0.8,0.1-1.2,0.1c-0.1,0-0.3,0-0.4,0c-0.1,0-0.2,0-0.3,0
	c-0.1,0-0.2,0-0.4,0c0,0,0,0,0,0c-0.1,0-0.2,0-0.4,0c-0.2,0-0.5,0.1-0.8,0.1c-0.2,0-0.3,0-0.5,0.1c-0.1,0-0.1,0-0.2,0
	c-0.1,0-0.2,0-0.3,0c-0.4,0-0.8,0.1-1.2,0.1c0,0-0.1,0-0.1,0c0,0-0.1,0-0.1,0c0,0-0.1,0-0.1,0c0,0-0.1,0-0.1,0c0,0,0,0,0,0
	c-0.5,0.1-1,0.1-1.5,0.2c-0.1,0-0.2,0-0.2,0c-0.3,0-0.5,0.1-0.8,0.1c-0.2,0-0.3,0.1-0.5,0.1c-0.2,0-0.3,0-0.5,0.1
	c-0.2,0-0.3,0-0.5,0.1c-0.1,0-0.2,0-0.4,0.1c-0.3,0-0.6,0.1-0.8,0.1c-0.5,0.1-0.9,0.2-1.4,0.3c0,0-0.1,0-0.1,0
	c-0.9,0.2-1.8,0.4-2.6,0.6c-0.1,0-0.2,0-0.3,0.1c-0.1,0-0.2,0-0.3,0.1c-0.1,0-0.2,0.1-0.3,0.1c-0.1,0-0.1,0-0.2,0.1
	c-0.1,0-0.2,0-0.2,0.1c-0.1,0-0.2,0-0.2,0.1c-0.1,0-0.2,0-0.2,0.1c-0.3,0.1-0.5,0.1-0.8,0.2c-0.1,0-0.2,0-0.3,0.1c0,0-0.1,0-0.1,0
	c-0.1,0-0.1,0-0.2,0c-0.1,0-0.1,0-0.1,0c0,0,0,0-0.1,0c0,0-0.1,0-0.1,0c-0.2,0-0.4,0.1-0.5,0.1c-0.1,0-0.3,0.1-0.4,0.1
	c-0.3,0.1-0.5,0.1-0.8,0.2c-0.1,0-0.1,0-0.2,0.1c-0.1,0-0.1,0-0.2,0.1c-0.1,0-0.2,0.1-0.4,0.1c0,0,0,0,0,0c-0.1,0-0.2,0.1-0.4,0.1
	c-0.2,0-0.3,0.1-0.5,0.2c-0.1,0-0.2,0.1-0.3,0.1c-0.1,0-0.1,0-0.2,0.1c0,0-0.1,0-0.1,0c-0.1,0-0.2,0.1-0.4,0.1c-0.1,0-0.2,0-0.3,0.1
	c0,0,0,0-0.1,0c-0.1,0-0.2,0.1-0.3,0.1c-0.2,0.1-0.3,0.1-0.5,0.2c-0.1,0-0.2,0-0.2,0.1c-0.1,0-0.2,0.1-0.3,0.1
	c-0.1,0-0.3,0.1-0.4,0.1c-0.1,0-0.2,0.1-0.2,0.1c-0.3,0.1-0.5,0.2-0.8,0.3c0,0-0.1,0-0.1,0c-0.2,0.1-0.4,0.1-0.6,0.2
	c-0.2,0.1-0.4,0.1-0.5,0.2c0,0-0.1,0-0.2,0.1c-0.1,0-0.2,0.1-0.3,0.1c-0.1,0-0.2,0-0.2,0.1c-0.2,0.1-0.3,0.1-0.5,0.2
	c0,0-0.1,0-0.1,0c-0.1,0-0.2,0.1-0.3,0.1c-0.2,0.1-0.3,0.1-0.5,0.2c0,0-0.1,0-0.1,0.1c-0.1,0.1-0.3,0.1-0.4,0.1
	c-0.2,0.1-0.5,0.2-0.7,0.3c-0.1,0-0.2,0.1-0.3,0.1c-0.1,0-0.1,0-0.2,0.1c0,0,0,0-0.1,0c0,0-0.1,0-0.1,0.1c-0.5,0.2-1,0.4-1.4,0.6
	c-0.1,0-0.1,0.1-0.2,0.1c-0.1,0-0.1,0.1-0.2,0.1c0,0-0.1,0-0.1,0c0,0-0.1,0-0.1,0.1c0,0-0.1,0-0.1,0c-0.1,0-0.2,0.1-0.3,0.1
	c-0.1,0-0.1,0.1-0.2,0.1c-0.3,0.1-0.7,0.3-1,0.4c0,0-0.1,0-0.1,0c-0.1,0-0.1,0.1-0.2,0.1c0,0-0.1,0-0.1,0.1c0,0-0.1,0.1-0.1,0.1
	c-0.1,0-0.2,0.1-0.2,0.1c0,0-0.1,0-0.1,0.1c0,0-0.1,0-0.1,0.1c-0.2,0.1-0.4,0.2-0.6,0.3c-0.1,0.1-0.3,0.1-0.4,0.2
	c-0.2,0.1-0.5,0.2-0.8,0.3c0,0,0,0,0,0c-0.1,0-0.2,0.1-0.3,0.1c0,0-0.1,0-0.1,0.1c-0.1,0-0.1,0.1-0.2,0.1c0,0-0.1,0-0.1,0.1
	c-0.1,0.1-0.3,0.1-0.4,0.2c-0.1,0-0.2,0.1-0.3,0.1c-0.1,0-0.1,0.1-0.2,0.1c-0.1,0.1-0.2,0.1-0.3,0.1c-0.1,0-0.1,0.1-0.2,0.1
	c-0.2,0.1-0.4,0.2-0.7,0.3c-0.1,0-0.1,0.1-0.2,0.1c-0.1,0-0.2,0.1-0.2,0.1c-0.2,0.1-0.3,0.1-0.5,0.2c-0.3,0.2-0.7,0.3-1,0.5
	c-0.1,0.1-0.3,0.1-0.4,0.2c-0.3,0.2-0.7,0.3-1,0.5c-0.1,0-0.1,0.1-0.2,0.1c-0.1,0-0.1,0.1-0.2,0.1c-0.2,0.1-0.3,0.2-0.5,0.2
	c0,0,0,0,0,0c0,0-0.1,0-0.1,0.1c0,0,0,0-0.1,0c-0.2,0.1-0.5,0.3-0.8,0.4c-0.5,0.3-0.9,0.5-1.4,0.8c-0.1,0.1-0.2,0.1-0.3,0.2
	c-0.4,0.2-0.7,0.4-1.1,0.7c-0.3,0.2-0.5,0.3-0.8,0.5c0,0,0,0-0.1,0.1c0,0-0.1,0-0.1,0.1c-0.1,0.1-0.2,0.1-0.4,0.2
	c-0.3,0.2-0.5,0.3-0.8,0.5c-0.3,0.2-0.5,0.3-0.8,0.5c-0.1,0-0.1,0.1-0.2,0.1c-0.3,0.2-0.7,0.4-1,0.7c-0.6,0.4-1.3,0.9-1.9,1.3
	c-0.4,0.3-0.8,0.6-1.2,0.9c-0.2,0.1-0.4,0.3-0.6,0.5c-0.3,0.2-0.5,0.4-0.8,0.6c-0.6,0.4-1.2,0.9-1.8,1.4c-0.3,0.2-0.5,0.4-0.8,0.6
	c-0.2,0.2-0.5,0.4-0.7,0.6c-0.1,0.1-0.3,0.2-0.4,0.3c-0.1,0.1-0.2,0.1-0.2,0.2c0,0,0,0-0.1,0.1c-0.2,0.1-0.3,0.3-0.5,0.4
	c0,0-0.1,0.1-0.1,0.1c-0.2,0.2-0.4,0.4-0.7,0.6c-0.1,0.1-0.2,0.1-0.2,0.2c-0.1,0.1-0.2,0.1-0.3,0.2c0,0-0.1,0.1-0.1,0.1
	c-0.1,0.1-0.3,0.2-0.4,0.3c-0.1,0.1-0.2,0.2-0.3,0.3c-0.1,0-0.1,0.1-0.2,0.2c-0.1,0.1-0.2,0.2-0.3,0.3c0,0,0,0,0,0
	c0,0-0.1,0.1-0.1,0.1c0,0-0.1,0.1-0.1,0.1c-0.1,0.1-0.1,0.1-0.2,0.2c0,0,0,0,0,0c-0.1,0.1-0.2,0.2-0.3,0.3c0,0-0.1,0.1-0.1,0.1
	c0,0-0.1,0.1-0.1,0.1c-0.1,0.1-0.1,0.1-0.2,0.2c-0.2,0.2-0.5,0.4-0.7,0.6c-0.1,0.1-0.2,0.2-0.3,0.3c-0.1,0-0.1,0.1-0.2,0.1
	c4.6-4.4,9.5-8.5,14.4-12.3c0.7-0.5,1.3-1,2-1.5c0.4-0.3,0.8-0.6,1.2-0.9c1.1-0.8,2.2-1.6,3.4-2.4c1-0.7,2-1.4,3-2
	c2.7-1.8,5.5-3.5,8.3-5.1c2.8-1.6,5.7-3.1,8.5-4.6c1.7-0.8,3.3-1.6,5-2.4c0.8-0.4,1.7-0.8,2.5-1.1c0.8-0.4,1.7-0.7,2.5-1.1
	c0.9-0.3,1.7-0.7,2.5-1c0.9-0.3,1.7-0.7,2.6-1c1.1-0.4,2.2-0.9,3.4-1.3c0.6-0.2,1.1-0.4,1.7-0.6c0.1,0,0.1,0,0.1,0
	c0.8-0.3,1.7-0.6,2.5-0.8c4.3-1.4,8.7-2.7,13.1-3.7c37.5-9,77.5-5,112.8,11.9c16.7,8,32.4,19,46.3,32.9
	C502,182.9,516.9,210.7,523.9,240z"/>
<linearGradient id="SVGID_6_" gradientUnits="userSpaceOnUse" x1="164.3" y1="296.02" x2="489" y2="296.02">
	<stop  offset="9.124846e-02" style="stop-color:#9E005D"/>
	<stop  offset="0.211" style="stop-color:#9E005D"/>
	<stop  offset="1" style="stop-color:#1B1464"/>
</linearGradient>
<path class="st5" d="M479.5,240c6.1,17.5,9.5,36.4,9.5,56c0,32.3-9.1,62.5-24.8,88.2c-29.3,47.8-81.6,79.9-141.5,80.8
	c-1.8,0-3.6,0-5.3,0c-1.8,0-3.6-0.1-5.3-0.1c-1.1,0-2.2-0.1-3.3-0.1c-0.9,0-1.7-0.1-2.6-0.1c-0.9,0-1.9-0.1-2.8-0.2
	c-0.6,0-1.3-0.1-2-0.1c-0.7-0.1-1.4-0.1-2.1-0.2c-0.3,0-0.5,0-0.8-0.1c-0.8-0.1-1.6-0.2-2.4-0.2c-15.9-1.7-31.7-5.1-47-10.1
	c-1.7-0.6-3.4-1.2-5.1-1.8c0,0,0,0,0,0c-0.8-0.3-1.7-0.6-2.5-0.9c-2.6-0.9-5.1-1.9-7.6-3c-0.5-0.2-0.9-0.4-1.4-0.6
	c-0.3-0.1-0.7-0.3-1-0.4c0,0-0.1,0-0.1,0c-0.8-0.3-1.6-0.7-2.4-1c0,0-0.1,0-0.1,0c-0.3-0.1-0.5-0.2-0.8-0.4
	c-0.5-0.2-1.1-0.5-1.6-0.7c0,0,0,0-0.1,0c-0.2-0.1-0.3-0.1-0.4-0.2c-3.9-1.8-7.8-3.8-11.7-5.8c-3.4-1.8-6.8-3.8-10.2-5.8
	c-1.2-0.7-2.5-1.5-3.7-2.3c-0.8-0.5-1.5-1-2.3-1.4c-2.2-1.5-4.5-2.9-6.7-4.5c-1.5-1-2.9-2.1-4.3-3.1c0,0,0,0,0,0
	c-2.1-1.6-4.2-3.2-6.3-4.8c0,0,0,0-0.1-0.1c-0.7-0.5-1.4-1.1-2.1-1.7c-0.6-0.5-1.2-1-1.8-1.4c-0.6-0.5-1.3-1-1.9-1.6
	c-0.3-0.3-0.7-0.6-1-0.9c-0.3-0.2-0.6-0.5-0.9-0.8c-0.2-0.2-0.4-0.3-0.6-0.5c-0.2-0.1-0.3-0.3-0.5-0.4c-0.5-0.4-1-0.9-1.5-1.3
	c-0.6-0.5-1.1-1-1.7-1.5c-0.1-0.1-0.2-0.2-0.3-0.3c-0.7-0.6-1.3-1.2-2-1.8c-0.6-0.6-1.3-1.2-1.9-1.8c0,0,0,0,0,0
	c-0.1-0.1-0.3-0.3-0.4-0.4c42.9,40.6,101.8,54.4,155.7,41.5c29.3-7,57-22,79.9-44.8c13.9-13.9,24.8-29.6,32.9-46.3
	c17-35.3,20.9-75.3,11.9-112.8c-1-4.4-2.3-8.8-3.7-13.1c-0.3-0.8-0.6-1.7-0.8-2.5c0,0,0-0.1-0.1-0.1c-0.2-0.6-0.4-1.1-0.6-1.7
	c-0.4-1.1-0.8-2.3-1.3-3.4c-0.3-0.9-0.7-1.7-1-2.6c-0.3-0.9-0.7-1.7-1-2.5c-0.4-0.8-0.7-1.7-1.1-2.5c-0.4-0.8-0.7-1.7-1.1-2.5
	c-0.8-1.7-1.6-3.3-2.4-5c-1.4-2.9-3-5.7-4.6-8.6s-3.3-5.6-5.1-8.3c-1.1-1.6-2.1-3.2-3.3-4.8c-5-7.1-10.6-13.9-16.8-20.3
	c0,0,0,0-0.1,0c0,0-0.1,0-0.1-0.1v0c-0.1-0.1-0.2-0.2-0.4-0.4c-0.1-0.1-0.1-0.1-0.1-0.1c0,0,0,0-0.1-0.1c-0.2-0.2-0.3-0.3-0.5-0.5
	c-0.2-0.3-0.5-0.5-0.8-0.8c-0.2-0.3-0.5-0.5-0.8-0.8c-0.1-0.1-0.2-0.2-0.3-0.3c0,0,0,0,0,0c-0.1-0.1-0.1-0.1-0.2-0.2
	c-0.2-0.2-0.4-0.4-0.6-0.6c-0.1-0.1-0.2-0.2-0.4-0.4h0c-0.1-0.1-0.1-0.1-0.2-0.2c0,0,0,0,0,0c0,0,0,0-0.1-0.1
	c-0.1-0.1-0.3-0.3-0.4-0.4c-0.1-0.1-0.3-0.3-0.4-0.4c-0.3-0.2-0.5-0.5-0.8-0.7c-0.1-0.1-0.1-0.1-0.2-0.2c0,0,0,0-0.1-0.1
	c-0.2-0.2-0.4-0.4-0.6-0.6c-0.1-0.1-0.1-0.1-0.2-0.1c0,0,0,0,0,0c-0.2-0.2-0.5-0.4-0.7-0.6c0,0-0.1-0.1-0.1-0.1
	c-0.2-0.2-0.4-0.3-0.6-0.5c0,0,0,0-0.1,0c-0.4-0.3-0.7-0.6-1.1-0.9c-0.3-0.3-0.6-0.5-1-0.8c-0.3-0.2-0.6-0.5-0.9-0.7
	c-0.1-0.1-0.2-0.1-0.2-0.2c-0.2-0.1-0.3-0.3-0.5-0.4c-0.2-0.2-0.5-0.4-0.8-0.6c-0.1,0-0.1-0.1-0.2-0.1c-0.1-0.1-0.2-0.1-0.2-0.2
	c0,0-0.1-0.1-0.1-0.1c-0.1-0.1-0.2-0.2-0.4-0.3c-0.4-0.3-0.8-0.6-1.2-0.9c-0.2-0.1-0.3-0.2-0.5-0.4c-0.6-0.4-1.2-0.9-1.9-1.3
	c-0.1-0.1-0.2-0.1-0.3-0.2c-0.5-0.4-1-0.7-1.6-1.1c-0.6-0.4-1.3-0.9-2-1.3c-0.1,0-0.2-0.1-0.2-0.2c-0.4-0.2-0.7-0.4-1.1-0.6
	c0,0-0.1,0-0.1-0.1c-0.5-0.3-1-0.6-1.6-0.9c0,0-0.1,0-0.1-0.1c-0.1-0.1-0.2-0.1-0.3-0.2c-0.4-0.2-0.8-0.5-1.1-0.7
	c-0.1-0.1-0.3-0.2-0.4-0.2c-0.1-0.1-0.2-0.1-0.3-0.2c-0.2-0.1-0.4-0.2-0.6-0.3c-0.2-0.1-0.4-0.2-0.6-0.3c-0.3-0.2-0.6-0.4-1-0.5
	c0,0,0,0,0,0c0,0,0,0-0.1,0c-0.1,0-0.1-0.1-0.2-0.1c-0.3-0.1-0.5-0.3-0.8-0.4c-0.1,0-0.1-0.1-0.2-0.1c-0.2-0.1-0.3-0.2-0.5-0.3
	c0,0-0.1,0-0.1-0.1c-0.1,0-0.1-0.1-0.2-0.1c-0.1-0.1-0.3-0.1-0.4-0.2c-0.2-0.1-0.3-0.2-0.5-0.2c0,0-0.1-0.1-0.1-0.1
	c-0.1-0.1-0.3-0.1-0.4-0.2c-0.3-0.1-0.6-0.3-0.8-0.4c-0.2-0.1-0.4-0.2-0.6-0.3c0,0,0,0,0,0c-0.1-0.1-0.3-0.1-0.4-0.2
	c-0.1-0.1-0.3-0.1-0.4-0.2c-0.5-0.2-1-0.5-1.5-0.7c-0.1,0-0.1-0.1-0.2-0.1c-0.5-0.2-1-0.4-1.5-0.6c-0.2-0.1-0.4-0.2-0.6-0.3
	c-0.3-0.1-0.6-0.2-0.8-0.4c-0.1-0.1-0.2-0.1-0.4-0.1c-0.1-0.1-0.3-0.1-0.4-0.2c-0.1-0.1-0.2-0.1-0.3-0.1c0,0-0.1,0-0.1,0
	c-0.1-0.1-0.2-0.1-0.3-0.1c-0.5-0.2-0.9-0.4-1.4-0.5c-0.3-0.1-0.5-0.2-0.8-0.3c-0.1,0-0.3-0.1-0.4-0.1c-0.5-0.2-1.1-0.4-1.6-0.6
	c-0.1-0.1-0.2-0.1-0.3-0.1c-0.4-0.2-0.9-0.3-1.3-0.4c-0.4-0.1-0.8-0.3-1.2-0.4c-0.6-0.2-1.1-0.4-1.7-0.5c-0.3-0.1-0.5-0.2-0.8-0.2
	c-0.8-0.2-1.6-0.4-2.4-0.7c0,0-0.1,0-0.1,0c0,0,0,0-0.1,0c-0.3-0.1-0.5-0.1-0.8-0.2c-0.2,0-0.4-0.1-0.5-0.1c-0.1,0-0.3-0.1-0.4-0.1
	c-0.3-0.1-0.7-0.2-1-0.2c-0.1,0-0.2-0.1-0.3-0.1c-0.3-0.1-0.6-0.1-0.8-0.2c0,0-0.1,0-0.1,0c-0.1,0-0.2,0-0.3-0.1c0,0,0,0,0,0
	c-0.3-0.1-0.6-0.1-0.9-0.2c-0.1,0-0.1,0-0.2-0.1c-0.6-0.1-1.3-0.3-2-0.4c-0.1,0-0.3-0.1-0.5-0.1c-0.3-0.1-0.6-0.1-0.9-0.2
	c-0.4-0.1-0.9-0.2-1.4-0.2c0,0-0.1,0-0.1,0c-0.3,0-0.5-0.1-0.8-0.1c-0.3-0.1-0.6-0.1-0.9-0.1c-0.3,0-0.6-0.1-0.9-0.1
	c-0.6-0.1-1.3-0.2-1.9-0.3c0,0-0.1,0-0.1,0c-0.1,0-0.2,0-0.3,0c-0.4,0-0.9-0.1-1.3-0.1c-0.1,0-0.3,0-0.4-0.1c-0.2,0-0.5,0-0.7-0.1
	c-0.1,0-0.2,0-0.3,0c-0.4,0-0.7-0.1-1.1-0.1c-0.3,0-0.7-0.1-1-0.1c-0.1,0-0.2,0-0.4,0s-0.2,0-0.4,0c-0.4,0-0.7,0-1.1-0.1
	c0,0-0.1,0-0.1,0c-0.3,0-0.5,0-0.8,0c-0.3,0-0.6,0-0.9,0c-0.2,0-0.5,0-0.8,0c-0.2,0-0.3,0-0.5,0c4.6,0.1,9.2,0.4,13.7,0.8
	c0.7,0.1,1.4,0.2,2,0.2c4.4,0.5,8.8,1.2,13.2,2c0.7,0.1,1.4,0.3,2.2,0.4c1.6,0.3,3.2,0.7,4.8,1.1c3.2,0.8,6.3,1.6,9.4,2.5
	c1.6,0.5,3.1,1,4.6,1.5c1.8,0.6,3.5,1.2,5.2,1.8c0.9,0.3,1.7,0.7,2.6,1c0.9,0.3,1.7,0.7,2.6,1c0.8,0.4,1.7,0.7,2.5,1.1
	c0.8,0.4,1.7,0.7,2.5,1.1c1.1,0.5,2.2,1,3.3,1.5c0.6,0.2,1.1,0.5,1.6,0.8c0,0,0.1,0,0.1,0.1c0.8,0.4,1.6,0.8,2.4,1.2
	c4.1,2.1,8,4.3,11.9,6.6C441.1,172,466.5,203,479.5,240z"/>
<linearGradient id="SVGID_7_" gradientUnits="userSpaceOnUse" x1="95.02" y1="305.6589" x2="449.3975" y2="305.6589">
	<stop  offset="9.124846e-02" style="stop-color:#9E005D"/>
	<stop  offset="0.211" style="stop-color:#9E005D"/>
	<stop  offset="1" style="stop-color:#1B1464"/>
</linearGradient>
<path class="st6" d="M444.7,240c9,37.5,5,77.5-11.9,112.8c-8,16.7-19,32.4-32.9,46.3c-22.9,22.9-50.6,37.8-79.9,44.8
	c-53.9,12.9-112.8-0.9-155.7-41.5c-0.5-0.5-1.1-1-1.6-1.6c-0.1-0.1-0.1-0.1-0.2-0.2c-0.5-0.5-1.1-1.1-1.6-1.6
	c-0.6-0.6-1.2-1.2-1.8-1.8c0,0-0.1-0.1-0.1-0.1c-1.2-1.3-2.5-2.6-3.7-3.9c-0.6-0.6-1.2-1.3-1.8-1.9c-0.6-0.7-1.2-1.3-1.8-2
	c-0.4-0.5-0.9-1-1.3-1.5c-0.1-0.2-0.3-0.3-0.4-0.5c0,0,0,0,0,0c-0.2-0.2-0.3-0.4-0.5-0.6c-0.4-0.4-0.8-0.9-1.2-1.4
	c0,0-0.1-0.1-0.1-0.1c0,0,0,0,0,0c-0.1-0.2-0.3-0.3-0.4-0.5c-0.2-0.3-0.5-0.6-0.7-0.8c-0.2-0.2-0.4-0.5-0.6-0.7c0,0-0.1-0.1-0.1-0.1
	c-1-1.2-2-2.5-3.1-3.8c-0.1-0.1-0.1-0.1-0.2-0.2c-0.1-0.1-0.2-0.3-0.3-0.4c-0.4-0.6-0.9-1.1-1.3-1.7c-1.1-1.4-2.1-2.8-3.2-4.3
	c-8.9-12.2-16.7-25.3-23-39.2c0,0,0,0,0-0.1c-0.7-1.6-1.5-3.2-2.2-4.9c0,0,0,0,0,0c-0.3-0.8-0.7-1.6-1.1-2.5v0
	c-0.2-0.5-0.4-1-0.6-1.5c-0.5-1.2-1-2.4-1.5-3.7c-0.5-1.3-1-2.7-1.5-4c-0.1-0.3-0.2-0.6-0.3-1c-0.6-1.7-1.2-3.4-1.8-5.1
	c-4.2-12.8-7.3-25.9-9.2-39.1c-0.1-0.8-0.2-1.7-0.3-2.5c0-0.1,0-0.2,0-0.2c-0.2-1.7-0.4-3.5-0.6-5.2c-0.1-0.8-0.2-1.6-0.2-2.3
	c0-0.3,0-0.5-0.1-0.8c-0.1-0.7-0.1-1.5-0.2-2.2c0-0.6-0.1-1.3-0.1-1.9c-0.1-0.9-0.1-1.9-0.2-2.8c-0.1-0.8-0.1-1.7-0.1-2.6
	c-0.1-1.1-0.1-2.2-0.2-3.3c-0.1-1.8-0.1-3.6-0.1-5.3c0.9,59.9,33,112.3,80.8,141.5c25.7,15.7,55.9,24.8,88.2,24.8
	c19.6,0,38.5-3.4,56-9.5c37-13,68-38.4,88.2-71.3c15.1-24.6,24-53.3,24.7-84.1c0-0.2,0-0.4,0-0.5c0,0,0-0.1,0-0.1c0-0.1,0-0.2,0-0.3
	c0-0.2,0-0.4,0-0.5c0-0.1,0-0.3,0-0.4c0-0.7,0-1.5,0-2.2c0,0,0,0,0,0c0-0.7,0-1.5,0-2.2c0-0.1,0-0.3,0-0.4c0-0.2,0-0.4,0-0.5
	c0-0.1,0-0.1,0-0.2c0-0.8-0.1-1.6-0.1-2.4c0-0.1,0-0.2,0-0.3c0-0.2,0-0.4,0-0.5c0,0,0-0.1,0-0.1c0-0.6-0.1-1.1-0.1-1.7
	c0-0.1,0-0.1,0-0.1c0-0.2,0-0.4-0.1-0.7c0-0.1,0-0.2,0-0.2c0-0.6-0.1-1.2-0.2-1.8c0-0.1,0-0.2,0-0.3c0-0.1,0-0.2,0-0.2
	c0-0.1,0-0.1,0-0.2c-0.1-0.6-0.1-1.2-0.2-1.7c0,0,0-0.1,0-0.1c-0.1-0.6-0.1-1.3-0.2-1.9v0c-0.1-0.9-0.2-1.7-0.4-2.6c0,0,0,0,0,0
	c-0.1-0.8-0.2-1.5-0.4-2.3c0-0.2-0.1-0.4-0.1-0.6c-0.1-0.6-0.2-1.3-0.4-1.9c-0.1-0.3-0.1-0.7-0.2-1c-0.1-0.4-0.2-0.9-0.3-1.3
	c0,0,0,0,0,0c0,0,0-0.1,0-0.1c0-0.1-0.1-0.3-0.1-0.4c-0.1-0.2-0.1-0.5-0.2-0.7c0,0,0-0.1,0-0.1c-0.1-0.5-0.2-1-0.4-1.5
	c0-0.1,0-0.1,0-0.2c0-0.1-0.1-0.2-0.1-0.4c-0.1-0.6-0.3-1.3-0.5-1.9c-0.2-0.7-0.4-1.4-0.6-2.1c0-0.1-0.1-0.2-0.1-0.3
	c0-0.1,0-0.1,0-0.2c-0.1-0.2-0.1-0.5-0.2-0.7c0-0.1,0-0.1-0.1-0.2c-0.2-0.6-0.4-1.3-0.6-1.9v0c-0.2-0.8-0.5-1.5-0.8-2.2
	c-0.1-0.4-0.3-0.8-0.5-1.2c-0.1-0.3-0.2-0.6-0.3-0.9c0,0,0,0,0,0c-0.1-0.2-0.1-0.4-0.2-0.5c-0.2-0.6-0.5-1.3-0.8-1.9
	c0-0.1,0-0.1-0.1-0.2c0-0.1-0.1-0.1-0.1-0.2c-0.1-0.3-0.2-0.6-0.4-0.9c0-0.1-0.1-0.3-0.2-0.4c-0.1-0.3-0.2-0.5-0.3-0.8
	c0-0.1-0.1-0.1-0.1-0.2c0-0.1-0.1-0.1-0.1-0.2c0-0.1-0.1-0.1-0.1-0.2c-0.1-0.2-0.2-0.4-0.3-0.6c-0.2-0.4-0.3-0.8-0.5-1.1
	c0,0,0-0.1-0.1-0.1c0-0.1-0.1-0.1-0.1-0.2c0,0,0,0,0,0c-0.2-0.3-0.3-0.7-0.5-1c-0.1-0.1-0.1-0.3-0.2-0.5c-0.1-0.2-0.2-0.4-0.3-0.5v0
	c-0.1-0.1-0.2-0.3-0.2-0.5c-0.3-0.6-0.6-1.3-1-1.9c0,0,0,0,0,0c-0.4-0.7-0.8-1.4-1.1-2.1c0-0.1-0.1-0.1-0.1-0.2c0,0,0-0.1-0.1-0.1
	c-0.4-0.7-0.8-1.4-1.2-2.2v0c-0.4-0.8-0.9-1.5-1.4-2.2v0c-0.4-0.6-0.8-1.2-1.2-1.9c0-0.1-0.1-0.1-0.1-0.2c0-0.1-0.1-0.1-0.1-0.2
	c0,0,0-0.1-0.1-0.1c-0.2-0.3-0.3-0.5-0.5-0.8c-0.2-0.3-0.4-0.6-0.6-0.9c-0.1-0.1-0.2-0.3-0.3-0.4c-0.2-0.3-0.4-0.6-0.6-1
	c-0.3-0.4-0.5-0.8-0.8-1.1c0,0,0-0.1-0.1-0.1c0,0,0,0,0-0.1c-0.5-0.7-1-1.4-1.5-2.1c-0.4-0.5-0.8-1-1.2-1.6
	c-0.1-0.1-0.1-0.2-0.2-0.2c-0.1-0.1-0.1-0.2-0.2-0.3c-0.1-0.1-0.1-0.2-0.2-0.3c-0.1-0.2-0.2-0.3-0.4-0.5c-0.1-0.1-0.2-0.3-0.4-0.4
	c0,0,0,0,0,0c-0.1-0.1-0.2-0.3-0.3-0.4c-0.1-0.2-0.2-0.3-0.4-0.4c0-0.1-0.1-0.1-0.2-0.2c-0.1-0.2-0.3-0.4-0.5-0.6
	c-0.2-0.3-0.4-0.5-0.7-0.8c-0.1-0.1-0.2-0.3-0.4-0.4c-0.1-0.1-0.2-0.3-0.4-0.4c-0.2-0.2-0.4-0.5-0.7-0.7c-0.1-0.1-0.2-0.2-0.3-0.3
	c-0.1-0.2-0.3-0.3-0.4-0.5c-0.2-0.2-0.3-0.4-0.5-0.6c-0.2-0.2-0.3-0.4-0.5-0.6c6,6.2,11.4,12.8,16.2,19.6c1.1,1.6,2.2,3.2,3.3,4.8
	c1.8,2.7,3.5,5.5,5.1,8.3c1.6,2.8,3.1,5.7,4.6,8.6c0.8,1.7,1.6,3.3,2.4,5c0.4,0.8,0.8,1.7,1.1,2.5c0.4,0.8,0.7,1.7,1.1,2.5
	c0.3,0.9,0.7,1.7,1,2.5c0.3,0.8,0.7,1.7,1,2.6c0.4,1.1,0.9,2.2,1.3,3.4c0.2,0.6,0.4,1.1,0.6,1.7c0,0.1,0,0.1,0.1,0.1
	c0.3,0.8,0.6,1.7,0.8,2.5C442.4,231.2,443.7,235.6,444.7,240z"/>
<linearGradient id="SVGID_8_" gradientUnits="userSpaceOnUse" x1="313.35" y1="352.92" x2="313.35" y2="15.005">
	<stop  offset="9.124846e-02" style="stop-color:#9E005D"/>
	<stop  offset="0.211" style="stop-color:#9E005D"/>
	<stop  offset="1" style="stop-color:#1B1464"/>
</linearGradient>
<path class="st7" d="M473.4,75.4c0.8,0.7,1.6,1.5,2.4,2.2C432.8,37,373.8,23.1,320,36.1c-29.3,7-57,22-79.9,44.8
	c-13.9,13.9-24.8,29.6-32.9,46.3c-17,35.3-20.9,75.3-11.9,112.8c6.7,27.9,20.6,54.4,41.6,76.6c0.1,0.1,0.1,0.2,0.2,0.2c0,0,0,0,0,0
	c0,0,0.1,0.1,0.1,0.1c0.1,0.1,0.2,0.2,0.3,0.3c0.1,0.1,0.1,0.1,0.2,0.2c0,0,0.1,0.1,0.1,0.1c0.1,0.1,0.1,0.1,0.1,0.1
	c0.1,0.1,0.2,0.2,0.2,0.3c0,0.1,0.1,0.1,0.2,0.2c0.1,0.1,0.2,0.2,0.3,0.3c0.1,0.1,0.1,0.2,0.2,0.2c0,0,0.1,0.1,0.1,0.1
	c0.1,0,0.1,0.1,0.2,0.1c0.1,0.2,0.3,0.3,0.5,0.5c0.1,0.1,0.3,0.3,0.4,0.4c0.1,0.1,0.2,0.2,0.3,0.3c0.2,0.2,0.4,0.4,0.6,0.6
	c0.1,0.1,0.2,0.2,0.3,0.3c0.1,0.1,0.2,0.2,0.2,0.2c0.1,0.1,0.1,0.1,0.2,0.2c0.2,0.2,0.4,0.4,0.6,0.6c0,0,0,0,0.1,0
	c0,0,0.1,0.1,0.1,0.1c0.1,0.1,0.2,0.2,0.3,0.2c0,0,0,0,0.1,0c0.1,0.1,0.1,0.1,0.2,0.2c0,0,0.1,0.1,0.1,0.1c0,0,0,0,0,0c0,0,0,0,0,0
	c0.1,0.1,0.1,0.1,0.1,0.1c0,0,0,0,0.1,0.1c0,0,0,0,0.1,0c0,0,0.1,0,0.1,0.1c0,0,0.1,0.1,0.1,0.1c0,0,0.1,0.1,0.1,0.1
	c0,0,0.1,0.1,0.1,0.1c0.1,0.1,0.1,0.1,0.2,0.2c0.1,0.1,0.3,0.3,0.4,0.4c0.2,0.2,0.4,0.4,0.7,0.6c0,0,0,0,0,0c0.1,0,0.1,0.1,0.1,0.1
	c0,0,0,0,0,0c0,0,0,0,0,0c0,0,0,0,0,0c0.1,0.1,0.1,0.1,0.2,0.2c0,0,0,0,0,0c0.1,0.1,0.2,0.2,0.3,0.3c0.1,0.1,0.2,0.1,0.2,0.2
	c0.1,0.1,0.1,0.1,0.2,0.2c0,0,0.1,0.1,0.1,0.1c0,0,0,0,0,0c0.1,0.1,0.2,0.2,0.4,0.3c0,0,0,0,0,0c0.1,0.1,0.1,0.1,0.2,0.2
	c0,0,0,0,0,0c0,0,0,0,0.1,0c0.2,0.2,0.4,0.3,0.6,0.5c0,0,0,0,0.1,0c0,0,0.1,0.1,0.1,0.1c0,0,0,0,0,0c0,0,0,0,0,0l0,0l0,0
	c0,0,0,0,0,0c0.1,0.1,0.2,0.1,0.2,0.2c0.1,0.1,0.1,0.1,0.2,0.2c0,0,0,0,0.1,0.1c0.1,0.1,0.2,0.2,0.3,0.2c0.2,0.1,0.3,0.3,0.5,0.4
	c0.1,0.1,0.3,0.2,0.4,0.4c0,0,0.1,0,0.1,0.1c0.1,0.1,0.1,0.1,0.2,0.1c0.2,0.2,0.5,0.4,0.7,0.6c0.1,0.1,0.2,0.2,0.3,0.2
	c0.1,0.1,0.2,0.2,0.4,0.3c0,0,0,0,0.1,0c0,0,0,0,0.1,0c0,0,0.1,0.1,0.1,0.1c0.4,0.3,0.8,0.6,1.2,0.9c0.2,0.1,0.4,0.3,0.6,0.4
	c0.1,0.1,0.2,0.2,0.4,0.3c0.1,0.1,0.2,0.2,0.3,0.2c0.4,0.3,0.8,0.6,1.2,0.8c0.1,0.1,0.3,0.2,0.4,0.3c0,0,0,0,0,0
	c0.1,0.1,0.1,0.1,0.2,0.2c0.4,0.3,0.9,0.6,1.4,0.9c0.1,0.1,0.2,0.1,0.2,0.2c0.1,0.1,0.3,0.2,0.4,0.3c0,0,0,0,0,0
	c0.1,0.1,0.1,0.1,0.2,0.1c0.3,0.2,0.6,0.4,0.9,0.6c0.2,0.2,0.5,0.3,0.8,0.5v0c0.4,0.2,0.7,0.4,1.1,0.6c0.1,0.1,0.2,0.1,0.3,0.2
	c0.2,0.1,0.5,0.3,0.7,0.4c0.1,0,0.2,0.1,0.2,0.1c0.4,0.2,0.7,0.4,1.1,0.6c0,0,0.1,0,0.1,0.1c0.2,0.1,0.4,0.2,0.5,0.3
	c0.1,0.1,0.2,0.1,0.4,0.2c0,0,0,0,0,0c0,0,0.1,0.1,0.1,0.1c0,0,0,0,0.1,0c0,0,0.1,0,0.1,0.1c0,0,0.1,0.1,0.2,0.1
	c0,0,0.1,0.1,0.1,0.1c0.2,0.1,0.4,0.2,0.6,0.3c0.1,0.1,0.2,0.1,0.3,0.1c0.1,0.1,0.2,0.1,0.3,0.1c0.1,0,0.1,0.1,0.2,0.1
	c0,0,0,0,0.1,0c0.1,0.1,0.2,0.1,0.4,0.2c0.1,0,0.2,0.1,0.2,0.1c0.1,0,0.1,0.1,0.2,0.1c0,0,0.1,0,0.1,0c0.1,0.1,0.3,0.1,0.4,0.2
	c0,0,0,0,0,0c0.1,0.1,0.2,0.1,0.3,0.2c0,0,0.1,0,0.1,0.1c0.1,0.1,0.3,0.1,0.4,0.2c0,0,0.1,0,0.1,0.1c0.1,0,0.2,0.1,0.2,0.1
	c0,0,0.1,0,0.1,0c0.1,0,0.1,0.1,0.2,0.1c0,0,0.1,0,0.1,0.1c0.1,0,0.1,0.1,0.2,0.1c0.1,0.1,0.3,0.1,0.4,0.2c0.1,0,0.1,0.1,0.2,0.1
	c0.2,0.1,0.4,0.2,0.6,0.3c0.1,0,0.2,0.1,0.2,0.1c0.1,0,0.1,0.1,0.2,0.1c0.1,0.1,0.2,0.1,0.2,0.1c0.1,0.1,0.2,0.1,0.3,0.1
	c0.1,0.1,0.2,0.1,0.4,0.2c0,0,0.1,0.1,0.1,0.1c0.1,0.1,0.2,0.1,0.4,0.2c0.2,0.1,0.5,0.2,0.7,0.3c0.1,0,0.2,0.1,0.2,0.1
	c0.3,0.2,0.7,0.3,1,0.5c0.1,0.1,0.3,0.1,0.4,0.2c0,0,0.1,0,0.1,0.1c0,0,0.1,0,0.1,0c0.2,0.1,0.5,0.2,0.7,0.3c0,0,0,0,0.1,0
	c0.1,0,0.1,0.1,0.2,0.1c0,0,0,0,0,0h0c0,0,0.1,0,0.1,0c0,0,0,0,0.1,0c0,0,0.1,0,0.1,0c0.1,0,0.2,0.1,0.3,0.1c0.1,0,0.1,0,0.2,0.1
	c0,0,0,0,0.1,0c0,0,0.1,0,0.1,0c0.1,0,0.2,0.1,0.2,0.1c0.1,0,0.1,0,0.2,0.1c0,0,0.1,0,0.1,0.1c0.2,0.1,0.4,0.2,0.6,0.3
	c0.1,0,0.2,0.1,0.2,0.1c0,0,0.1,0,0.1,0.1c0,0,0,0,0,0c0,0,0,0,0,0c0.1,0,0.1,0.1,0.2,0.1c0,0,0,0,0.1,0c0,0,0,0,0,0
	c0,0,0.1,0,0.1,0c0,0,0,0,0.1,0c0.1,0.1,0.3,0.1,0.4,0.2c0.1,0.1,0.2,0.1,0.4,0.1c0,0,0.1,0,0.1,0c0.2,0.1,0.5,0.2,0.7,0.3
	c0,0,0.1,0,0.1,0c0,0,0,0,0.1,0c0,0,0.1,0,0.1,0c0.2,0.1,0.3,0.1,0.5,0.2c0.1,0,0.2,0.1,0.3,0.1c0,0,0.1,0,0.1,0c0,0,0,0,0,0
	c0,0,0,0,0,0c0,0,0,0,0.1,0c0,0,0,0,0,0c0.4,0.1,0.8,0.3,1.1,0.4c0.1,0,0.2,0.1,0.3,0.1c0.2,0.1,0.4,0.1,0.6,0.2c0,0,0.1,0,0.1,0
	c0.4,0.1,0.9,0.3,1.3,0.4c0.1,0,0.1,0,0.2,0c0.2,0.1,0.3,0.1,0.5,0.1c0.1,0.1,0.3,0.1,0.4,0.1c0,0,0,0,0,0c0,0,0,0,0,0
	c0.1,0,0.1,0,0.2,0c0.1,0,0.3,0.1,0.4,0.1c0.1,0,0.3,0.1,0.4,0.1c0.1,0,0.2,0.1,0.4,0.1c0.3,0.1,0.6,0.2,0.9,0.3
	c0.1,0,0.2,0.1,0.3,0.1c0,0,0,0,0.1,0c0,0,0,0,0.1,0c0,0,0,0,0,0c0.1,0,0.1,0,0.2,0.1c0,0,0.1,0,0.1,0c0,0,0.1,0,0.1,0c0,0,0,0,0,0
	c0.1,0.1,0.3,0.1,0.4,0.1c0.2,0.1,0.4,0.1,0.6,0.2c0,0,0,0,0,0c0.3,0.1,0.6,0.2,0.9,0.2c0.1,0,0.2,0.1,0.2,0.1c0.1,0,0.1,0,0.2,0
	c0,0,0,0,0,0c0,0,0.1,0,0.1,0s0,0,0.1,0c0.1,0,0.2,0.1,0.3,0.1c0,0,0.1,0,0.1,0c0.2,0.1,0.4,0.1,0.6,0.1c0.4,0.1,0.8,0.2,1.2,0.3
	c0,0,0,0,0,0c0,0,0.1,0,0.1,0c0.1,0,0.2,0,0.2,0c0.1,0,0.1,0,0.2,0.1c0.3,0.1,0.6,0.1,0.9,0.2c0.5,0.1,0.9,0.2,1.4,0.3
	c0.2,0,0.4,0.1,0.6,0.1c1.1,0.2,2.2,0.4,3.3,0.6c0.4,0.1,0.8,0.1,1.2,0.2c0,0,0.1,0,0.1,0c0.2,0,0.3,0.1,0.5,0.1
	c0.2,0,0.4,0.1,0.6,0.1c0.6,0.1,1.1,0.2,1.7,0.2c0.1,0,0.2,0,0.2,0h0c0.3,0,0.6,0.1,0.9,0.1c0,0,0,0,0.1,0c0.1,0,0.1,0,0.2,0
	c0,0,0.1,0,0.1,0c0,0,0,0,0,0c0.1,0,0.2,0,0.4,0c0.1,0,0.1,0,0.2,0c0.2,0,0.4,0,0.6,0.1c0.1,0,0.2,0,0.3,0c0,0,0.1,0,0.1,0
	c0,0,0,0,0.1,0c0.2,0,0.4,0,0.6,0.1c0,0,0.1,0,0.2,0c0.1,0,0.2,0,0.3,0c0.1,0,0.2,0,0.2,0c0.1,0,0.3,0,0.5,0c0,0,0,0,0.1,0
	c0,0,0.1,0,0.1,0c0,0,0.1,0,0.1,0c0,0,0,0,0,0c0,0,0.1,0,0.1,0c0,0,0,0,0,0c0,0,0,0,0,0c0,0,0.1,0,0.1,0c0.1,0,0.2,0,0.3,0
	c0.2,0,0.5,0,0.7,0.1c0,0,0.1,0,0.1,0c0.1,0,0.2,0,0.4,0c0,0,0,0,0,0c0,0,0,0,0,0c0.1,0,0.1,0,0.2,0c0,0,0,0,0,0c0,0,0,0,0.1,0
	c0,0,0,0,0.1,0c0,0,0,0,0,0c0.1,0,0.1,0,0.2,0c0,0,0.1,0,0.1,0c0,0,0,0,0,0c0,0,0,0,0.1,0c0.1,0,0.2,0,0.3,0c0,0,0.1,0,0.1,0
	c0.1,0,0.1,0,0.2,0c0,0,0.1,0,0.1,0s0,0,0.1,0c0.1,0,0.1,0,0.2,0c0,0,0.1,0,0.1,0c0.1,0,0.2,0,0.3,0c0.1,0,0.2,0,0.3,0
	c0,0,0.1,0,0.1,0c0,0,0.1,0,0.1,0c0,0,0.1,0,0.1,0c0.1,0,0.3,0,0.4,0c0,0,0,0,0,0c0,0,0.1,0,0.1,0c-30.7-0.7-59.4-9.7-84-24.7
	C198.9,308,173.5,277,160.5,240c-6.1-17.5-9.5-36.4-9.5-56c0-32.3,9.1-62.5,24.8-88.2C205.1,48,257.4,15.9,317.3,15
	c1.8,0,3.5,0,5.3,0c1.8,0,3.6,0.1,5.3,0.1c1.1,0,2.2,0.1,3.3,0.1c0.9,0,1.7,0.1,2.6,0.1c0.9,0,1.9,0.1,2.8,0.2
	c0.6,0.1,1.3,0.1,1.9,0.2c0.7,0.1,1.5,0.1,2.2,0.2c0.2,0,0.5,0.1,0.8,0.1c0.8,0.1,1.6,0.2,2.4,0.2c15.9,1.7,31.7,5.1,47,10.1
	c1.7,0.6,3.4,1.1,5.1,1.8c4.2,1.5,8.5,3.2,12.6,5c1.6,0.7,3.3,1.4,4.9,2.1c0,0,0,0,0.1,0c17.2,7.9,33.2,17.8,47.7,29.5
	c0.7,0.6,1.4,1.1,2.1,1.7c1.4,1.1,2.7,2.3,4.1,3.4c0.7,0.6,1.3,1.2,2,1.8c0.7,0.6,1.3,1.2,2,1.8C472,74.2,472.7,74.8,473.4,75.4z"/>
<linearGradient id="SVGID_9_" gradientUnits="userSpaceOnUse" x1="253.9949" y1="369.3951" x2="253.9949" y2="15.0125">
	<stop  offset="9.124846e-02" style="stop-color:#9E005D"/>
	<stop  offset="0.211" style="stop-color:#9E005D"/>
	<stop  offset="1" style="stop-color:#1B1464"/>
</linearGradient>
<path class="st8" d="M396.3,323.3c0.1-0.1,0.2-0.2,0.3-0.3c-22.2,21.1-48.7,34.9-76.6,41.6c-37.5,9-77.5,5-112.8-11.9
	c-16.7-8-32.4-19-46.3-32.9c-22.8-22.8-37.8-50.6-44.8-79.9c-12.9-53.9,0.9-112.9,41.6-155.8c0.5-0.5,1-1,1.5-1.5
	c0.6-0.6,1.2-1.2,1.8-1.8c0.5-0.5,1.1-1,1.6-1.6c0.1-0.1,0.1-0.1,0.2-0.2c1.3-1.3,2.6-2.6,4-3.8c0.7-0.6,1.3-1.2,2-1.8
	c0.7-0.6,1.3-1.2,2-1.8c0.7-0.6,1.3-1.2,2-1.8c1.4-1.2,2.8-2.4,4.3-3.6c0.6-0.5,1.2-1,1.9-1.5c0.7-0.6,1.4-1.1,2.1-1.7
	c10.5-8.3,21.7-15.6,33.5-21.9c3.8-2,7.7-4,11.7-5.8c0.1-0.1,0.3-0.1,0.4-0.2c0,0,0,0,0.1,0c0.8-0.4,1.6-0.7,2.4-1.1c0,0,0,0,0,0
	c0.8-0.4,1.7-0.7,2.5-1.1c0.5-0.2,1.1-0.5,1.6-0.7c0.3-0.1,0.6-0.2,0.9-0.4c2.5-1.1,5.1-2,7.6-3c0.8-0.3,1.7-0.6,2.5-0.9
	c0,0,0,0,0,0c1.7-0.6,3.4-1.2,5.1-1.8c15.3-5.1,31.1-8.5,47-10.1c0.8-0.1,1.6-0.2,2.4-0.2c0.3,0,0.5,0,0.8-0.1
	c0.7-0.1,1.4-0.1,2.1-0.2c0.7-0.1,1.3-0.1,2-0.1c0.9-0.1,1.9-0.1,2.8-0.2c0.9,0,1.7-0.1,2.6-0.1c1.1-0.1,2.2-0.1,3.3-0.2
	c1.8-0.1,3.5-0.1,5.3-0.1c-59.9,0.9-112.3,33-141.5,80.8C160.1,121.5,151,151.7,151,184c0,19.6,3.4,38.5,9.5,56
	c13,37,38.4,68,71.3,88.2c24.6,15.1,53.3,24,84,24.7c0,0,0,0,0.1,0c0.2,0,0.4,0,0.5,0c0,0,0.1,0,0.1,0c0,0,0,0,0,0
	c0.1,0,0.2,0,0.2,0c0,0,0.1,0,0.1,0c0.2,0,0.3,0,0.5,0c0.1,0,0.2,0,0.3,0c0,0,0,0,0,0c0.3,0,0.6,0,0.9,0c0.1,0,0.1,0,0.1,0
	c0.3,0,0.5,0,0.8,0c0.1,0,0.2,0,0.4,0c0.7,0,1.5,0,2.2,0c0.1,0,0.1,0,0.2,0c0.1,0,0.1,0,0.2,0s0.1,0,0.2,0c0,0,0,0,0,0
	c0.1,0,0.2,0,0.3,0c0.1,0,0.2,0,0.3,0c0,0,0.1,0,0.1,0c0.1,0,0.1,0,0.2,0c0,0,0,0,0.1,0c0,0,0.1,0,0.1,0c0,0,0.1,0,0.1,0
	c0,0,0.1,0,0.1,0c0.1,0,0.1,0,0.2,0c0,0,0.1,0,0.1,0c0,0,0,0,0.1,0c0.1,0,0.2,0,0.2,0c0,0,0,0,0,0c0.3,0,0.5,0,0.8,0c0,0,0,0,0.1,0
	c0.1,0,0.2,0,0.3,0c0,0,0,0,0,0c0,0,0.1,0,0.1,0c0,0,0,0,0,0c0,0,0.1,0,0.1,0c0,0,0,0,0.1,0c0,0,0.1,0,0.1,0h0c0.1,0,0.3,0,0.4,0
	c0.1,0,0.1,0,0.2,0c0,0,0.1,0,0.1,0c0,0,0.1,0,0.1,0c0.1,0,0.2,0,0.3,0c0,0,0.1,0,0.1,0c0,0,0.1,0,0.1,0c0,0,0.1,0,0.2,0
	c0,0,0,0,0.1,0c0.1,0,0.1,0,0.2,0c0.1,0,0.3,0,0.4,0c0,0,0.1,0,0.1,0c0.1,0,0.1,0,0.2,0c0,0,0.1,0,0.1,0c0,0,0,0,0,0
	c0,0,0.1,0,0.1,0c0,0,0.1,0,0.1,0c0,0,0.1,0,0.1,0c0,0,0.1,0,0.1,0c0,0,0,0,0.1,0c0.1,0,0.3,0,0.5,0c0,0,0,0,0,0c0,0,0.1,0,0.1,0
	c0,0,0.1,0,0.1,0c0.1,0,0.1,0,0.2,0c0,0,0,0,0,0h0c0,0,0,0,0.1,0c0.3,0,0.6-0.1,0.9-0.1c0.2,0,0.4,0,0.5-0.1c0.1,0,0.2,0,0.3,0
	c0.2,0,0.3,0,0.5-0.1c0,0,0,0,0.1,0c0.1,0,0.2,0,0.2,0c0.1,0,0.1,0,0.1,0c0.1,0,0.2,0,0.2,0c0.2,0,0.4,0,0.6-0.1
	c0.3,0,0.6-0.1,0.9-0.1c0,0,0,0,0,0c0.1,0,0.3,0,0.4-0.1c0.3,0,0.5-0.1,0.8-0.1c0.3-0.1,0.7-0.1,1-0.2c0.2,0,0.4,0,0.6-0.1
	c0.1,0,0.3,0,0.4-0.1c0,0,0.1,0,0.1,0c0.1,0,0.1,0,0.2,0c0.1,0,0.1,0,0.2,0c0.1,0,0.2,0,0.2,0c0.3,0,0.5-0.1,0.8-0.1
	c0.1,0,0.3-0.1,0.4-0.1c0,0,0,0,0.1,0c0,0,0.1,0,0.1,0c0,0,0,0,0.1,0c0.1,0,0.1,0,0.2,0c0.5-0.1,0.9-0.2,1.4-0.3
	c0.3,0,0.5-0.1,0.8-0.2c0.1,0,0.2,0,0.2-0.1c0.1,0,0.1,0,0.2,0c0.5-0.1,1.1-0.2,1.6-0.3c0.1,0,0.2,0,0.3-0.1c0,0,0,0,0,0
	c0.5-0.1,0.9-0.2,1.4-0.3c0.1,0,0.1,0,0.2,0c0,0,0.1,0,0.1,0c0,0,0,0,0,0c0.2-0.1,0.4-0.1,0.7-0.2c0.1,0,0.2,0,0.3-0.1
	c0.1,0,0.2-0.1,0.4-0.1c0,0,0.1,0,0.1,0c0.2-0.1,0.5-0.1,0.7-0.2c0.1,0,0.3-0.1,0.4-0.1c0.3-0.1,0.7-0.2,1-0.3
	c0.2,0,0.4-0.1,0.5-0.2c0.1,0,0.2,0,0.3-0.1c0.1,0,0.2,0,0.2-0.1c0,0,0,0,0,0c0.1,0,0.2,0,0.2-0.1c0,0,0.1,0,0.1,0
	c0.5-0.1,1-0.3,1.4-0.4c0.2-0.1,0.3-0.1,0.5-0.2c0.2-0.1,0.5-0.2,0.8-0.2c0.2,0,0.3-0.1,0.5-0.2c0.1,0,0.2,0,0.2-0.1
	c0.1,0,0.2,0,0.2-0.1c0.1,0,0.1,0,0.2-0.1c0,0,0,0,0.1,0c0,0,0.1,0,0.1,0c0,0,0.1,0,0.1,0c0,0,0.1,0,0.1,0c0.1,0,0.2-0.1,0.3-0.1
	c0.2-0.1,0.3-0.1,0.5-0.2c0.1,0,0.2-0.1,0.3-0.1c0.2-0.1,0.3-0.1,0.5-0.2c0,0,0.1,0,0.1-0.1c0.1,0,0.2-0.1,0.4-0.1c0,0,0.1,0,0.1,0
	c0,0,0,0,0,0s0,0,0.1,0c0,0,0.1,0,0.1,0c0,0,0,0,0,0c0.2-0.1,0.4-0.1,0.6-0.2c0.1,0,0.3-0.1,0.4-0.2c0.1,0,0.2-0.1,0.3-0.1
	c0,0,0,0,0.1,0c0,0,0,0,0,0c0,0,0.1,0,0.2-0.1c0,0,0.1,0,0.1,0c0,0,0.1,0,0.1,0c0.2,0,0.3-0.1,0.5-0.2c0,0,0.1,0,0.2-0.1
	c0.1,0,0.2-0.1,0.3-0.1c0,0,0,0,0,0c0.1,0,0.3-0.1,0.4-0.2c0.1,0,0.2-0.1,0.3-0.1c0.1,0,0.1,0,0.2-0.1c0,0,0.1,0,0.1,0
	c0,0,0,0,0.1,0c0,0,0,0,0,0c0,0,0,0,0,0c0,0,0,0,0,0c0.1,0,0.2-0.1,0.2-0.1c0.1,0,0.1,0,0.1-0.1c0,0,0.1,0,0.1,0
	c0.1,0,0.1,0,0.1-0.1c0,0,0.1,0,0.1,0c0.1,0,0.1,0,0.2-0.1c0,0,0,0,0.1,0c0,0,0,0,0,0c0.1,0,0.1,0,0.2-0.1c0.2-0.1,0.5-0.2,0.7-0.3
	c0,0,0.1,0,0.1-0.1c0,0,0,0,0.1,0c0,0,0.1,0,0.1-0.1c0.2-0.1,0.4-0.1,0.5-0.2c0,0,0,0,0,0c0.2-0.1,0.4-0.2,0.6-0.3
	c0,0,0.1,0,0.2-0.1c0.2-0.1,0.3-0.1,0.5-0.2c0.2-0.1,0.5-0.2,0.7-0.3c0.1-0.1,0.3-0.1,0.4-0.2c0,0,0,0,0,0c0.1,0,0.2-0.1,0.2-0.1
	c0,0,0.1,0,0.1,0c0,0,0,0,0,0l0,0c0.1,0,0.1,0,0.2-0.1c0,0,0.1,0,0.1-0.1c0,0,0,0,0,0c0.2-0.1,0.4-0.2,0.7-0.3c0,0,0.1,0,0.1-0.1
	c0.1,0,0.2-0.1,0.3-0.1c0.2-0.1,0.4-0.2,0.7-0.3c0.2-0.1,0.4-0.2,0.6-0.3c0,0,0.1,0,0.1-0.1c0.1,0,0.2-0.1,0.2-0.1
	c0,0,0.1,0,0.2-0.1c0.1,0,0.1-0.1,0.2-0.1c0,0,0.1,0,0.1-0.1c0.1,0,0.1,0,0.2-0.1c0.2-0.1,0.3-0.2,0.5-0.2c0,0,0.1,0,0.1-0.1
	c0,0,0,0,0.1,0h0c0,0,0.1,0,0.1-0.1c0,0,0,0,0,0c0,0,0,0,0.1,0c0,0,0.1,0,0.1-0.1c0,0,0,0,0,0c0,0,0,0,0,0c0,0,0,0,0.1,0
	c0.3-0.1,0.5-0.3,0.8-0.4c0,0,0,0,0,0c0.1-0.1,0.2-0.1,0.4-0.2c0.1,0,0.1-0.1,0.2-0.1c0.1,0,0.1-0.1,0.2-0.1
	c0.3-0.2,0.6-0.3,0.9-0.5c0.1,0,0.2-0.1,0.3-0.2c0.2-0.1,0.4-0.2,0.6-0.4c0,0,0,0,0,0c0.2-0.1,0.3-0.2,0.5-0.3c0,0,0.1,0,0.1-0.1
	c0.1,0,0.1,0,0.1-0.1c0.1,0,0.1-0.1,0.2-0.1c0,0,0.1,0,0.1,0c0,0,0.1,0,0.1-0.1c0,0,0.1,0,0.1,0c0.5-0.3,1-0.6,1.6-0.9
	c0.2-0.1,0.4-0.2,0.5-0.3c0.1-0.1,0.2-0.1,0.3-0.2c0.1,0,0.1-0.1,0.2-0.1c0,0,0,0,0,0c0.2-0.1,0.4-0.3,0.7-0.4
	c0.1-0.1,0.3-0.2,0.4-0.3c0.1-0.1,0.2-0.1,0.3-0.2c0.2-0.1,0.4-0.2,0.6-0.4c0.1-0.1,0.2-0.1,0.3-0.2c0.2-0.2,0.5-0.3,0.8-0.5
	c0.2-0.1,0.3-0.2,0.5-0.3c0,0,0.1,0,0.1-0.1c0.2-0.1,0.4-0.2,0.6-0.4c0.3-0.2,0.6-0.4,0.9-0.7c0.2-0.1,0.4-0.3,0.6-0.4
	c0.1-0.1,0.1-0.1,0.2-0.2c0.1,0,0.1-0.1,0.2-0.1c0.1-0.1,0.2-0.1,0.3-0.2c0.1,0,0.1-0.1,0.2-0.1c0.2-0.1,0.4-0.3,0.6-0.4
	c0.1-0.1,0.2-0.1,0.3-0.2c0.1-0.1,0.2-0.2,0.4-0.3c0.1,0,0.1-0.1,0.2-0.1c0,0,0.1,0,0.1-0.1c0,0,0.1-0.1,0.1-0.1c0,0,0.1,0,0.1-0.1
	c0.1-0.1,0.2-0.1,0.3-0.2c0.1,0,0.1-0.1,0.2-0.2c0,0,0,0,0,0c0.1-0.1,0.2-0.2,0.3-0.3c0.1-0.1,0.3-0.2,0.4-0.3
	c0.1,0,0.1-0.1,0.2-0.1c0,0,0,0,0,0c0,0,0,0,0,0c0.2-0.1,0.3-0.2,0.5-0.4c0.2-0.2,0.4-0.3,0.6-0.5c0,0,0.1-0.1,0.2-0.1
	c0.2-0.2,0.5-0.4,0.7-0.6c0.2-0.1,0.4-0.3,0.5-0.4c0.1-0.1,0.3-0.2,0.4-0.3c0,0,0.1,0,0.1-0.1c0,0,0,0,0,0c0.2-0.1,0.4-0.3,0.6-0.5
	c0.2-0.2,0.5-0.4,0.7-0.6c0,0,0.1-0.1,0.1-0.1c0.1,0,0.1-0.1,0.2-0.2c0,0,0.1,0,0.1-0.1c0,0,0.1,0,0.1-0.1c0,0,0.1-0.1,0.1-0.1h0
	c0.1-0.1,0.2-0.1,0.2-0.2c0,0,0,0,0-0.1c0,0,0.1,0,0.1-0.1c0,0,0.1-0.1,0.1-0.1c0.1-0.1,0.2-0.1,0.2-0.2c0,0,0.1,0,0.1-0.1
	c0.1-0.1,0.1-0.1,0.2-0.2C396.2,323.5,396.2,323.4,396.3,323.3z"/>
<linearGradient id="SVGID_10_" gradientUnits="userSpaceOnUse" x1="95.005" y1="246.6025" x2="432.92" y2="246.6025">
	<stop  offset="9.124846e-02" style="stop-color:#9E005D"/>
	<stop  offset="0.211" style="stop-color:#9E005D"/>
	<stop  offset="1" style="stop-color:#1B1464"/>
</linearGradient>
<path class="st9" d="M432.9,245.2c0-0.4,0-0.7,0-1.1c-0.7,30.8-9.7,59.5-24.7,84.1C388,361.1,357,386.5,320,399.5
	c-17.5,6.1-36.4,9.5-56,9.5c-32.3,0-62.5-9.1-88.2-24.8c-47.8-29.3-79.9-81.6-80.8-141.5c0-1.8,0-3.6,0-5.3c0-1.8,0.1-3.6,0.1-5.3
	c0-1.1,0.1-2.2,0.2-3.3c0-0.9,0.1-1.7,0.1-2.6c0.1-0.9,0.1-1.9,0.2-2.8c0-0.6,0.1-1.3,0.1-1.9c0.1-0.7,0.1-1.5,0.2-2.2
	c0-0.3,0.1-0.5,0.1-0.8c0.1-0.8,0.2-1.6,0.2-2.4c0.2-1.7,0.4-3.5,0.6-5.2c0-0.1,0-0.2,0-0.2c0.1-0.8,0.2-1.7,0.3-2.5
	c1.9-13.2,4.9-26.3,9.2-39.1c0.6-1.7,1.1-3.4,1.8-5.1c0.1-0.3,0.2-0.6,0.3-0.9c0.5-1.4,1-2.7,1.5-4c0.4-1.1,0.9-2.2,1.3-3.3
	c0.2-0.6,0.5-1.3,0.8-1.9c1-2.5,2.1-4.9,3.2-7.4c0,0,0,0,0-0.1c7.5-16.3,16.9-31.6,27.9-45.6c1.1-1.4,2.2-2.8,3.3-4.2
	c0.6-0.7,1.1-1.3,1.7-2c0,0,0,0,0,0c0.4-0.5,0.8-1,1.2-1.5c0.2-0.2,0.3-0.4,0.5-0.6c1.1-1.2,2.2-2.5,3.3-3.7
	c0.1-0.1,0.2-0.2,0.3-0.3c0.6-0.7,1.2-1.3,1.8-2c0.8-0.8,1.5-1.6,2.3-2.4C117,127.1,103.2,186.1,116.1,240c7,29.3,22,57,44.8,79.9
	c13.9,13.9,29.6,24.8,46.3,32.9c35.3,17,75.3,20.9,112.8,11.9c27.9-6.7,54.4-20.6,76.6-41.6c0.1-0.1,0.2-0.2,0.3-0.3
	c0,0,0.1-0.1,0.1-0.1c0.1-0.1,0.2-0.1,0.2-0.2c0.1,0,0.1-0.1,0.1-0.1c0,0,0,0,0,0c0.1-0.1,0.1-0.1,0.2-0.2h0c0,0,0,0,0,0
	c0.3-0.3,0.6-0.6,0.9-0.9c0.1-0.1,0.1-0.1,0.2-0.2c0,0,0,0,0,0c0,0,0.1-0.1,0.1-0.1c0.1,0,0.1-0.1,0.2-0.2c0.2-0.2,0.3-0.3,0.5-0.5
	c0.1-0.1,0.2-0.2,0.2-0.2c0,0,0.1-0.1,0.1-0.1c0.3-0.3,0.5-0.5,0.8-0.8c0.2-0.2,0.4-0.4,0.6-0.6c0,0,0-0.1,0.1-0.1
	c0.2-0.2,0.3-0.3,0.5-0.5c0.1-0.1,0.2-0.2,0.4-0.4c0.3-0.3,0.6-0.6,0.9-1c0.2-0.2,0.3-0.3,0.5-0.5c0,0,0,0,0.1-0.1
	c0.1-0.1,0.3-0.3,0.4-0.4c0.1-0.1,0.2-0.2,0.3-0.3c0,0,0-0.1,0.1-0.1c0.2-0.2,0.3-0.4,0.5-0.5c0.1-0.1,0.1-0.2,0.2-0.2
	c0.1-0.1,0.2-0.2,0.2-0.3c0.1-0.1,0.2-0.2,0.2-0.3c0.1-0.1,0.1-0.2,0.2-0.2c0.1-0.1,0.1-0.2,0.2-0.3c0.1-0.1,0.2-0.2,0.3-0.4
	c0,0,0.1-0.1,0.1-0.1c0.1-0.1,0.1-0.1,0.2-0.2c0.1-0.2,0.3-0.3,0.4-0.5c0.1-0.1,0.1-0.2,0.2-0.2c0,0,0,0,0-0.1c0,0,0,0,0,0
	c0,0,0,0,0,0c0,0,0,0,0,0c0.1-0.1,0.2-0.2,0.2-0.3c0.2-0.2,0.4-0.4,0.5-0.6c0.2-0.2,0.4-0.5,0.6-0.8c0,0,0,0,0-0.1
	c0.1-0.1,0.2-0.3,0.3-0.4c0,0,0,0,0.1-0.1c0.2-0.2,0.4-0.5,0.6-0.8c0,0,0-0.1,0-0.1c0.1-0.1,0.2-0.3,0.3-0.4
	c0.1-0.1,0.2-0.2,0.2-0.3c0.5-0.6,0.9-1.2,1.4-1.9c0,0,0,0,0,0l0,0c0.1-0.1,0.1-0.2,0.2-0.2c0.3-0.4,0.5-0.8,0.8-1.1
	c0.2-0.3,0.4-0.6,0.6-0.9c0.1-0.1,0.2-0.3,0.3-0.4c0.2-0.3,0.4-0.6,0.6-0.9c0,0,0,0,0,0c0.2-0.2,0.3-0.5,0.4-0.7c0,0,0.1,0,0.1-0.1
	c0.2-0.3,0.4-0.6,0.6-0.9c0.1-0.2,0.2-0.4,0.4-0.6c0.2-0.3,0.3-0.6,0.5-0.8c0.2-0.3,0.4-0.7,0.6-1c0.3-0.4,0.5-0.8,0.7-1.2
	c0,0,0.1-0.1,0.1-0.1c0.1-0.1,0.1-0.2,0.2-0.3c0.1-0.1,0.1-0.2,0.1-0.2c0.1-0.2,0.2-0.4,0.3-0.6c0.2-0.3,0.4-0.6,0.5-0.9
	c0,0,0-0.1,0.1-0.1c0-0.1,0.1-0.1,0.1-0.2c0.2-0.3,0.3-0.5,0.4-0.8c0.2-0.4,0.5-0.9,0.7-1.3c0.1-0.2,0.2-0.4,0.3-0.5
	c0.1-0.3,0.3-0.5,0.4-0.8c0,0,0,0,0-0.1c0-0.1,0.1-0.2,0.1-0.3c0,0,0,0,0,0c0-0.1,0.1-0.1,0.1-0.2c0.2-0.4,0.4-0.9,0.6-1.3
	c0.1-0.2,0.2-0.4,0.3-0.6c0.1-0.2,0.2-0.4,0.3-0.6c0,0,0,0,0,0c0.1-0.1,0.1-0.1,0.1-0.2c0,0,0-0.1,0-0.1c0.2-0.4,0.3-0.7,0.5-1.1
	c0.1-0.1,0.1-0.3,0.2-0.4c0.1-0.1,0.1-0.2,0.1-0.2c0,0,0,0,0-0.1c0-0.1,0.1-0.1,0.1-0.2c0-0.1,0.1-0.1,0.1-0.2
	c0-0.1,0.1-0.1,0.1-0.2c0-0.1,0.1-0.2,0.1-0.3c0-0.1,0.1-0.2,0.1-0.3c0-0.1,0.1-0.2,0.1-0.2c0-0.1,0.1-0.1,0.1-0.2c0,0,0-0.1,0-0.1
	c0,0,0-0.1,0-0.1c0,0,0-0.1,0.1-0.2c0,0,0,0,0,0c0,0,0,0,0,0c0,0,0-0.1,0-0.1c0,0,0,0,0-0.1c0-0.1,0.1-0.1,0.1-0.2
	c0-0.1,0.1-0.2,0.1-0.3c0,0,0-0.1,0.1-0.1c0-0.1,0.1-0.2,0.1-0.3c0.1-0.1,0.1-0.2,0.1-0.4c0.2-0.5,0.4-1,0.6-1.5c0,0,0,0,0-0.1
	c0.1-0.2,0.2-0.5,0.2-0.7c0.2-0.6,0.4-1.2,0.6-1.7c0,0,0-0.1,0.1-0.1c0.2-0.5,0.4-1.1,0.6-1.6c0.1-0.2,0.1-0.4,0.2-0.6
	c0,0,0-0.1,0-0.1c0.2-0.5,0.4-1,0.5-1.5c0.1-0.1,0.1-0.3,0.1-0.4c0,0,0,0,0,0c0,0,0-0.1,0.1-0.1c0-0.1,0.1-0.2,0.1-0.3c0,0,0,0,0,0
	c0,0,0,0,0-0.1c0.1-0.2,0.1-0.4,0.2-0.5c0.1-0.1,0.1-0.3,0.1-0.4c0-0.1,0.1-0.3,0.1-0.4c0.1-0.3,0.2-0.7,0.3-1.1c0,0,0-0.1,0-0.1
	c0,0,0-0.1,0-0.1c0-0.1,0-0.1,0.1-0.2c0.1-0.2,0.1-0.5,0.2-0.7c0.1-0.1,0.1-0.3,0.1-0.5c0.1-0.3,0.2-0.6,0.2-0.9c0,0,0,0,0,0
	c0-0.1,0.1-0.2,0.1-0.2c0-0.1,0-0.1,0-0.2c0,0,0,0,0,0c0,0,0,0,0,0c0.1-0.3,0.2-0.7,0.2-1c0-0.1,0-0.2,0.1-0.2
	c0-0.1,0.1-0.3,0.1-0.4c0-0.1,0.1-0.2,0.1-0.4c0-0.1,0.1-0.2,0.1-0.3c0-0.1,0-0.2,0.1-0.3c0.1-0.5,0.2-0.9,0.3-1.4
	c0.1-0.2,0.1-0.5,0.2-0.8c0.1-0.5,0.2-1,0.3-1.4c0-0.2,0.1-0.5,0.1-0.7c0-0.1,0.1-0.3,0.1-0.5c0-0.2,0.1-0.3,0.1-0.5
	c0,0,0-0.1,0-0.1c0-0.1,0-0.2,0-0.3c0.1-0.5,0.2-1,0.2-1.4c0-0.2,0.1-0.4,0.1-0.7c0-0.3,0.1-0.7,0.1-1c0-0.3,0.1-0.6,0.1-0.9
	c0,0,0,0,0,0c0-0.1,0-0.2,0-0.3c0-0.3,0.1-0.5,0.1-0.8c0-0.1,0-0.2,0-0.2c0-0.2,0.1-0.4,0.1-0.6c0-0.1,0-0.2,0-0.3
	c0-0.1,0-0.2,0-0.4c0-0.2,0-0.3,0-0.5c0-0.2,0.1-0.4,0.1-0.6c0,0,0,0,0,0c0-0.1,0-0.2,0-0.4c0-0.1,0-0.2,0-0.3c0-0.1,0-0.2,0-0.2
	c0-0.4,0.1-0.8,0.1-1.2c0-0.1,0-0.1,0-0.1c0-0.2,0-0.3,0-0.4c0,0,0,0,0,0c0-0.1,0-0.1,0-0.1c0,0,0-0.1,0-0.1c0-0.1,0-0.2,0-0.2
	c0-0.1,0-0.2,0-0.3c0,0,0-0.1,0-0.1c0-0.4,0-0.7,0.1-1.1c0-0.2,0-0.4,0-0.6c0-0.1,0-0.2,0-0.3c0-0.1,0-0.2,0-0.3c0,0,0-0.1,0-0.1
	c0-0.1,0-0.2,0-0.3C432.9,245.5,432.9,245.4,432.9,245.2z"/>
<linearGradient id="SVGID_11_" gradientUnits="userSpaceOnUse" x1="207.06" y1="233.3825" x2="544.995" y2="233.3825">
	<stop  offset="9.124846e-02" style="stop-color:#9E005D"/>
	<stop  offset="0.211" style="stop-color:#9E005D"/>
	<stop  offset="1" style="stop-color:#1B1464"/>
</linearGradient>
<path class="st10" d="M545,237.3c0,1.8,0,3.6,0,5.3c0,1.8-0.1,3.6-0.1,5.3c0,1.1-0.1,2.2-0.1,3.3c0,0.9-0.1,1.7-0.1,2.6
	c0,0.9-0.1,1.9-0.2,2.8c0,0.6-0.1,1.3-0.2,1.9c-0.1,0.7-0.1,1.5-0.2,2.2c0,0.3,0,0.5-0.1,0.8c-0.1,0.8-0.2,1.6-0.2,2.3
	c-0.2,1.7-0.4,3.5-0.6,5.2c0,0.1,0,0.2,0,0.2c-0.1,0.8-0.2,1.7-0.3,2.5c-1.9,13.2-4.9,26.3-9.2,39.1c-0.6,1.7-1.1,3.4-1.8,5.1
	c-0.1,0.3-0.2,0.6-0.4,1c-0.5,1.4-1,2.7-1.5,4.1c-0.5,1.2-0.9,2.4-1.4,3.6c-0.2,0.5-0.4,1-0.6,1.5c0,0,0,0,0,0
	c-0.3,0.8-0.7,1.7-1,2.5c0,0,0,0,0,0c-0.7,1.7-1.5,3.3-2.2,4.9c-7.1,15.5-15.9,30.1-26.2,43.5c-0.6,0.7-1.1,1.4-1.6,2.1
	c-0.6,0.7-1.1,1.4-1.7,2.1c-0.6,0.7-1.1,1.4-1.7,2.1c0,0,0,0,0,0c-0.6,0.7-1.1,1.3-1.7,2c0,0-0.1,0.1-0.1,0.1
	c-0.6,0.6-1.1,1.3-1.7,1.9v0c-0.6,0.7-1.2,1.3-1.8,2c-0.6,0.7-1.2,1.3-1.8,2c-0.6,0.7-1.2,1.3-1.8,1.9c-0.7,0.7-1.4,1.5-2.1,2.2
	c-0.1,0.1-0.1,0.2-0.2,0.2c40.6-42.9,54.5-101.9,41.6-155.8c-7-29.3-22-57-44.8-79.9c-13.9-13.9-29.6-24.8-46.3-32.9
	c-35.3-17-75.3-20.9-112.8-11.9c-4.4,1-8.8,2.3-13.1,3.7c-0.8,0.3-1.7,0.6-2.5,0.8c0,0-0.1,0-0.1,0c-0.6,0.2-1.1,0.4-1.7,0.6
	c-1.1,0.4-2.3,0.8-3.4,1.3c-0.9,0.3-1.7,0.7-2.6,1c-0.9,0.3-1.7,0.7-2.5,1c-0.8,0.4-1.7,0.7-2.5,1.1c-0.8,0.4-1.7,0.7-2.5,1.1
	c-1.7,0.8-3.3,1.6-5,2.4c-2.9,1.4-5.7,3-8.5,4.6s-5.6,3.3-8.3,5.1c-1,0.7-2,1.3-3,2c-1.1,0.8-2.3,1.6-3.4,2.4
	c-0.4,0.3-0.8,0.6-1.2,0.9c-0.7,0.5-1.3,1-2,1.5c-5.3,4-10.3,8.3-15.2,13c-0.1,0.1-0.2,0.2-0.3,0.3c0,0-0.1,0.1-0.1,0.1
	c-0.2,0.2-0.4,0.4-0.6,0.6c-0.1,0-0.1,0.1-0.1,0.1c-0.2,0.2-0.4,0.4-0.6,0.6c-0.1,0.1-0.1,0.1-0.2,0.2c-0.1,0.1-0.3,0.3-0.4,0.4
	c-0.4,0.4-0.8,0.8-1.2,1.3c-0.1,0.1-0.3,0.3-0.4,0.4c-0.1,0.1-0.1,0.1-0.2,0.2c-0.1,0.1-0.3,0.3-0.4,0.4c0,0-0.1,0.1-0.1,0.1
	c0,0,0,0-0.1,0.1c0,0,0,0,0,0c0,0,0,0,0,0l0,0c0,0,0,0,0,0c0,0-0.1,0.1-0.1,0.1c-0.1,0.1-0.2,0.2-0.2,0.2c0,0,0,0,0,0
	c0,0-0.1,0.1-0.1,0.1c0,0,0,0,0,0c0,0,0,0.1-0.1,0.1c0,0-0.1,0-0.1,0.1c0,0,0,0,0,0l0,0c-0.1,0.1-0.1,0.1-0.2,0.2
	c0,0-0.1,0.1-0.1,0.1c0,0-0.1,0.1-0.1,0.1c-0.1,0.1-0.2,0.2-0.3,0.3c-0.1,0-0.1,0.1-0.1,0.1c-0.1,0-0.1,0.1-0.1,0.1
	c-0.1,0.1-0.1,0.1-0.2,0.2c0,0,0,0-0.1,0.1c-0.1,0.1-0.2,0.2-0.3,0.4c-0.1,0.1-0.2,0.2-0.3,0.4c0,0,0,0,0,0c0,0-0.1,0.1-0.1,0.1
	c0,0,0,0,0,0c0,0,0,0.1-0.1,0.1c-0.2,0.2-0.3,0.4-0.5,0.5c-0.2,0.2-0.3,0.4-0.5,0.5c-0.1,0.1-0.2,0.2-0.3,0.4v0
	c-0.1,0.1-0.1,0.1-0.2,0.2c0,0,0,0,0,0c0,0,0,0-0.1,0.1c-0.2,0.2-0.4,0.5-0.6,0.7c0,0,0,0,0,0c-0.1,0.1-0.2,0.2-0.3,0.3
	c-0.1,0.1-0.2,0.2-0.3,0.3c0,0.1-0.1,0.1-0.1,0.1c-0.1,0.1-0.2,0.2-0.3,0.4c0,0.1-0.1,0.1-0.1,0.1c-0.1,0.1-0.1,0.1-0.2,0.2
	c-0.1,0.1-0.1,0.1-0.2,0.2c-0.3,0.3-0.6,0.7-0.8,1.1c-0.2,0.2-0.3,0.4-0.4,0.6c0,0-0.1,0.1-0.1,0.1c0,0.1-0.1,0.1-0.1,0.2
	c0,0.1-0.1,0.1-0.1,0.2c-0.3,0.4-0.6,0.8-0.9,1.2c-0.1,0.1-0.1,0.1-0.1,0.2c-0.2,0.3-0.5,0.6-0.7,0.9c-0.1,0.2-0.3,0.4-0.4,0.5
	c-0.2,0.2-0.3,0.4-0.4,0.6c-0.3,0.4-0.6,0.8-0.9,1.2c-0.2,0.3-0.5,0.7-0.7,1c-0.1,0.1-0.2,0.3-0.3,0.4c-0.4,0.6-0.8,1.2-1.2,1.8
	c-0.3,0.5-0.6,0.9-0.8,1.4c-0.2,0.3-0.4,0.6-0.6,0.9c-0.2,0.3-0.4,0.7-0.6,1c0,0,0,0.1-0.1,0.1c-0.2,0.4-0.4,0.7-0.6,1.1
	c0,0,0,0,0,0c0,0-0.1,0.1-0.1,0.1c0,0,0,0.1,0,0.1c-0.1,0.1-0.1,0.1-0.1,0.2c0,0,0,0,0,0c0,0,0,0.1-0.1,0.1c0,0,0,0,0,0
	c-0.1,0.2-0.2,0.3-0.3,0.5c-0.1,0.2-0.2,0.4-0.3,0.6c0,0-0.1,0.1-0.1,0.1c-0.1,0.2-0.2,0.4-0.4,0.6c-0.1,0.1-0.1,0.2-0.2,0.3
	c0,0.1-0.1,0.2-0.1,0.3c0,0,0,0,0,0.1c-0.1,0.1-0.1,0.2-0.2,0.3c-0.1,0.1-0.1,0.2-0.2,0.3c0,0.1-0.1,0.1-0.1,0.2c0,0,0,0,0,0
	c0,0,0,0.1,0,0.1c0,0.1-0.1,0.1-0.1,0.2c0,0,0,0.1-0.1,0.1c0,0.1-0.1,0.1-0.1,0.2c0,0,0,0,0,0c0,0.1-0.1,0.1-0.1,0.2
	c0,0,0,0.1-0.1,0.1c0,0,0,0.1-0.1,0.1c0,0.1-0.1,0.1-0.1,0.2c0,0,0,0,0,0c0,0,0,0,0,0.1c0,0,0,0,0,0c0,0,0,0,0,0.1c0,0,0,0,0,0
	c0,0,0,0.1,0,0.1c0,0-0.1,0.1-0.1,0.2c-0.1,0.2-0.2,0.3-0.2,0.5c0,0,0,0.1,0,0.1c0,0.1-0.1,0.2-0.1,0.2c0,0,0,0,0,0.1
	c-0.1,0.2-0.2,0.4-0.3,0.6c-0.1,0.2-0.2,0.3-0.2,0.5c0,0,0,0.1,0,0.1c0,0,0,0.1,0,0.1l0,0c0,0,0,0.1,0,0.1c0,0.1-0.1,0.1-0.1,0.2
	c0,0.1-0.1,0.1-0.1,0.1c0,0.1-0.1,0.2-0.1,0.2c0,0.1-0.1,0.2-0.1,0.2c0,0.1-0.1,0.2-0.1,0.2c-0.2,0.4-0.4,0.8-0.5,1.2
	c0,0.1,0,0.1-0.1,0.2c0,0.1,0,0.1-0.1,0.1c-0.1,0.3-0.3,0.6-0.4,0.9c-0.1,0.3-0.2,0.5-0.3,0.8c0,0,0,0,0,0c0,0.1-0.1,0.1-0.1,0.2
	c0,0,0,0.1,0,0.1c0,0,0,0,0,0c0,0,0,0,0,0c0,0.1-0.1,0.1-0.1,0.2c0,0-0.1,0.1-0.1,0.2c0,0.1,0,0.1-0.1,0.2c0,0,0,0.1,0,0.1
	c0,0.1-0.1,0.2-0.1,0.2c0,0,0,0,0,0.1c0,0.1-0.1,0.1-0.1,0.2c0,0,0,0.1,0,0.1c0,0,0,0.1-0.1,0.1c0,0,0,0,0,0c0,0,0,0.1-0.1,0.1
	c0,0,0,0,0,0c0,0.1-0.1,0.2-0.1,0.3c0,0,0,0,0,0.1c-0.1,0.2-0.1,0.3-0.2,0.4c0,0,0,0,0,0.1c0,0.1-0.1,0.2-0.1,0.2
	c0,0.1,0,0.1-0.1,0.2c0,0,0,0.1,0,0.1c-0.1,0.3-0.2,0.5-0.3,0.8c0,0.1,0,0.1-0.1,0.2c-0.1,0.2-0.1,0.3-0.2,0.5c0,0.1,0,0.1-0.1,0.2
	c0,0,0,0.1-0.1,0.1c0,0,0,0.1,0,0.1c0,0,0,0,0,0.1c0,0,0,0,0,0c0,0,0,0,0,0c0,0,0,0,0,0.1c0,0,0,0,0,0c0,0,0,0,0,0
	c0,0.1-0.1,0.1-0.1,0.2c-0.1,0.3-0.2,0.6-0.3,0.9c0,0.1-0.1,0.1-0.1,0.2c0,0.1-0.1,0.2-0.1,0.3c-0.1,0.3-0.2,0.5-0.3,0.8
	c-0.1,0.2-0.1,0.4-0.2,0.5c-0.1,0.2-0.1,0.3-0.2,0.5c-0.1,0.2-0.1,0.3-0.2,0.5c-0.1,0.2-0.2,0.5-0.2,0.7c0,0,0,0,0,0.1
	c0,0.1,0,0.1-0.1,0.2c0,0,0,0.1,0,0.1c0,0,0,0,0,0.1c0,0,0,0.1,0,0.1c0,0,0,0,0,0.1c0,0.1-0.1,0.2-0.1,0.3c0,0,0,0,0,0.1
	c0,0,0,0.1,0,0.1c-0.1,0.2-0.1,0.4-0.2,0.5c0,0,0,0.1,0,0.1c0,0.1-0.1,0.2-0.1,0.4c0,0.1,0,0.1-0.1,0.2c0,0.1-0.1,0.2-0.1,0.2
	c0,0,0,0,0,0.1v0c0,0,0,0,0,0c0,0.1-0.1,0.2-0.1,0.3c0,0,0,0.1,0,0.1c0,0,0,0,0,0.1c0,0.1,0,0.1-0.1,0.2c0,0.1,0,0.1-0.1,0.2
	c-0.2,0.6-0.3,1.2-0.5,1.8c-0.1,0.2-0.1,0.5-0.2,0.8c0,0,0,0.1,0,0.1c-0.1,0.1-0.1,0.3-0.1,0.5c-0.1,0.5-0.3,1.1-0.4,1.6
	c0,0,0,0.1,0,0.1c0,0.1,0,0.2-0.1,0.2c0,0.1,0,0.1,0,0.2c0,0.1-0.1,0.2-0.1,0.3c0,0,0,0.1,0,0.1c-0.1,0.7-0.3,1.3-0.4,2
	c-0.3,1.6-0.6,3.3-0.9,4.9c0,0,0,0,0,0.1c-0.1,0.3-0.1,0.5-0.1,0.8c0,0.1,0,0.2,0,0.3c-0.1,0.7-0.2,1.4-0.3,2.1
	c0,0.3-0.1,0.6-0.1,0.9c0,0.1,0,0.2,0,0.3c0,0,0,0,0,0c-0.1,0.4-0.1,0.8-0.1,1.1c0,0,0,0.1,0,0.1c0,0,0,0.1,0,0.1c0,0,0,0.1,0,0.1
	c0,0.2,0,0.3-0.1,0.5c0,0.1,0,0.2,0,0.3c0,0,0,0.1,0,0.1c0,0.2,0,0.4-0.1,0.6c0,0.1,0,0.2,0,0.2c0,0,0,0.1,0,0.1c0,0.1,0,0.1,0,0.2
	c0,0,0,0,0,0c0,0,0,0,0,0.1c0,0.1,0,0.1,0,0.2c0,0.1,0,0.2,0,0.2c0,0.1,0,0.2,0,0.3c0,0.1,0,0.2,0,0.3c0,0.1,0,0.2,0,0.3
	c0,0.1,0,0.1,0,0.2c0,0.3,0,0.6-0.1,0.9c0,0.1,0,0.1,0,0.2c0,0.1,0,0.1,0,0.2c0,0.1,0,0.2,0,0.3c0,0,0,0.1,0,0.1c0,0.1,0,0.2,0,0.2
	c0,0,0,0.1,0,0.1c0,0.2,0,0.4,0,0.6c0,0.2,0,0.3,0,0.5c0,0,0,0,0,0c0,0.1,0,0.1,0,0.1c0,0,0,0.1,0,0.1c0,0.1,0,0.2,0,0.3
	c0,0.1,0,0.2,0,0.3c0,0.1,0,0.1,0,0.2c0,0.1,0,0.1,0,0.2c0-0.7,0-1.3,0.1-2c0.2-7.1,0.9-14.2,2-21.1c0-0.2,0.1-0.5,0.1-0.8
	c0.1-0.5,0.2-1.1,0.3-1.6c0.1-0.7,0.3-1.5,0.4-2.2c0.2-1.2,0.5-2.4,0.7-3.5c0.3-1.6,0.7-3.2,1.1-4.8c0.8-3.2,1.6-6.3,2.5-9.4
	c0.5-1.6,1-3.1,1.5-4.6c0.6-1.8,1.2-3.5,1.8-5.2c0.3-0.9,0.6-1.7,1-2.6c0.3-0.9,0.7-1.7,1-2.6c0.3-0.8,0.7-1.7,1.1-2.5
	c0.4-0.8,0.7-1.7,1.1-2.5c0.5-1.1,1-2.2,1.5-3.3c0.2-0.6,0.5-1.1,0.8-1.6c0,0,0-0.1,0.1-0.1c0.4-0.8,0.8-1.6,1.2-2.4
	c2.1-4.1,4.3-8,6.6-11.9C252,118.9,283,93.5,320,80.5c17.5-6.2,36.4-9.5,56-9.5c32.3,0,62.5,9.1,88.2,24.8
	C512,125.1,544,177.4,545,237.3z"/>
<linearGradient id="SVGID_12_" gradientUnits="userSpaceOnUse" x1="190.5974" y1="173.9861" x2="544.98" y2="173.9861">
	<stop  offset="9.124846e-02" style="stop-color:#9E005D"/>
	<stop  offset="0.211" style="stop-color:#9E005D"/>
	<stop  offset="1" style="stop-color:#1B1464"/>
</linearGradient>
<path class="st11" d="M544.9,232c0.1,1.8,0.1,3.6,0.1,5.3c-0.9-59.9-33-112.3-80.8-141.5C438.5,80.1,408.3,71,376,71
	c-19.6,0-38.5,3.3-56,9.5c-37,13-68,38.4-88.2,71.3c-2.4,3.9-4.6,7.8-6.6,11.9c-0.4,0.8-0.8,1.6-1.2,2.4c0,0,0,0.1-0.1,0.1
	c-0.3,0.5-0.5,1.1-0.8,1.6c-0.5,1.1-1,2.2-1.5,3.3c-0.4,0.8-0.7,1.7-1.1,2.5c-0.4,0.8-0.7,1.7-1.1,2.5c-0.4,0.8-0.7,1.7-1,2.6
	c-0.3,0.8-0.7,1.7-1,2.6c-0.7,1.7-1.3,3.5-1.8,5.2c-0.5,1.5-1,3.1-1.5,4.6c-0.9,3.1-1.8,6.2-2.5,9.4c-0.4,1.6-0.7,3.2-1.1,4.8
	c-0.2,1.2-0.5,2.3-0.7,3.5c-0.1,0.7-0.3,1.5-0.4,2.2c-0.1,0.5-0.2,1.1-0.3,1.6c0,0.2-0.1,0.5-0.1,0.8c-1.1,6.9-1.8,13.9-2,21.1
	c0,0.7-0.1,1.5-0.1,2.2c0,0.1,0,0.1,0,0.2c0,0,0,0,0,0.1c0,0.1,0,0.1,0,0.1c0,0.2,0,0.5,0,0.8c0,0.2,0,0.3,0,0.4c0,0.1,0,0.2,0,0.4
	c0,0,0,0.1,0,0.1s0,0.1,0,0.1c0,0.3,0,0.6,0,0.9c0,0.1,0,0.3,0,0.4c0,0.1,0,0.2,0,0.3c0,0.4,0,0.8,0,1.2c0,0.1,0,0.2,0,0.2
	c0,0.2,0,0.5,0,0.7c0,0.1,0,0.1,0,0.2c0,0,0,0,0,0c0,0.1,0,0.2,0,0.3v0c0,0,0,0,0,0c0,0.1,0,0.2,0,0.4c0,0.2,0,0.4,0,0.6
	c0,0.3,0,0.6,0,0.8c0,0.2,0,0.4,0,0.6c0,0,0,0,0,0.1c0,0,0,0,0,0c0,0,0,0,0,0.1c0,0.1,0,0.2,0,0.3c0,0,0,0,0,0c0,0.1,0,0.1,0,0.2
	c0,0,0,0,0,0s0,0,0,0c0,0,0,0.1,0,0.1s0,0.1,0,0.1c0,0,0,0.1,0,0.1c0,0,0,0.1,0,0.1c0,0,0,0.1,0,0.1c0,0,0,0.1,0,0.1
	c0,0,0,0.1,0,0.1c0,0,0,0,0,0.1c0,0,0,0.1,0,0.1c0,0,0,0,0,0c0,0.2,0,0.4,0,0.6c0,0.1,0,0.1,0,0.2c0,0.1,0,0.3,0,0.4
	c0,0.1,0,0.3,0,0.4c0,0.1,0,0.1,0,0.2c0,0,0,0,0,0c0,0,0,0,0,0c0,0,0,0,0,0c0,0,0,0,0,0c0,0,0,0.1,0,0.1c0,0,0,0.1,0,0.1
	c0,0,0,0,0,0c0,0.1,0,0.2,0,0.2c0,0,0,0.1,0,0.1c0,0,0,0,0,0c0,0,0,0,0,0.1c0,0.1,0,0.3,0,0.4c0,0,0,0.1,0,0.1c0,0.1,0,0.2,0,0.4
	c0,0,0,0,0,0s0,0,0,0c0,0.2,0,0.3,0.1,0.5c0,0.1,0,0.2,0,0.4c0,0.1,0,0.1,0,0.2c0,0.4,0.1,0.8,0.1,1.2c0,0.4,0.1,0.8,0.1,1.2
	c0,0,0,0.1,0,0.1c0,0.1,0,0.3,0.1,0.4c0,0.1,0,0.1,0,0.2c0,0.1,0,0.1,0,0.2c0,0.1,0,0.2,0,0.2c0,0,0,0.1,0,0.1c0,0.3,0.1,0.6,0.1,1
	c0,0.1,0,0.2,0.1,0.3c0,0.2,0.1,0.3,0.1,0.5c0,0,0,0.1,0,0.1c0,0,0,0,0,0c0,0.1,0,0.2,0,0.3c0,0.1,0,0.1,0,0.2c0,0,0,0,0,0.1
	c0,0.1,0,0.2,0,0.2c0,0.1,0.1,0.3,0.1,0.5c0,0.1,0,0.2,0.1,0.3c0,0.1,0,0.1,0,0.2c0,0,0,0.1,0,0.1c0,0.2,0.1,0.4,0.1,0.7
	c0,0.1,0.1,0.3,0.1,0.5c0,0.1,0,0.2,0.1,0.3c0.1,0.6,0.2,1.3,0.4,1.9c0.1,0.5,0.2,1.1,0.3,1.6c0.1,0.4,0.2,0.7,0.2,1.1c0,0,0,0,0,0
	c0.1,0.5,0.2,1,0.4,1.6c0,0,0,0.1,0,0.1c0.1,0.3,0.1,0.6,0.2,0.9c0,0.1,0.1,0.2,0.1,0.3c0.1,0.3,0.1,0.5,0.2,0.8c0,0,0,0.1,0,0.1
	c0,0.1,0.1,0.2,0.1,0.4c0,0.2,0.1,0.4,0.2,0.6c0,0,0,0.1,0,0.1c0,0,0,0.1,0,0.1c0,0,0,0,0,0c0,0,0,0,0,0.1c0,0,0,0.1,0,0.1
	c0,0,0,0.1,0,0.1c0,0.1,0,0.2,0.1,0.3c0,0.1,0,0.2,0.1,0.2c0.1,0.2,0.1,0.5,0.2,0.7c0,0,0,0.1,0,0.1c0,0,0,0.1,0,0.1
	c0,0.1,0.1,0.3,0.1,0.4c0,0,0,0,0,0c0,0.1,0.1,0.2,0.1,0.3c0,0.1,0.1,0.2,0.1,0.3c0,0.1,0.1,0.2,0.1,0.3c0,0,0,0,0,0.1
	c0,0,0,0.1,0,0.1c0,0.1,0,0.2,0.1,0.2c0,0.1,0.1,0.3,0.1,0.4c0,0.1,0.1,0.1,0.1,0.2c0,0.1,0.1,0.2,0.1,0.3c0,0.1,0,0.1,0.1,0.1
	c0,0.1,0.1,0.3,0.1,0.4c0,0,0,0,0,0c0,0.1,0,0.1,0.1,0.2c0,0.1,0,0.1,0.1,0.2l0,0c0,0,0,0,0,0.1c0,0.1,0.1,0.2,0.1,0.3c0,0,0,0,0,0
	c0,0,0,0.1,0,0.1c0,0,0,0,0,0c0,0,0,0,0,0.1c0,0.1,0.1,0.2,0.1,0.4c0,0.1,0.1,0.2,0.1,0.3c0,0,0,0.1,0,0.1c0,0,0,0,0,0.1
	c0,0.1,0.1,0.1,0.1,0.2c0.1,0.3,0.2,0.6,0.3,0.9c0,0,0,0,0,0c0,0,0,0,0,0.1c0,0,0,0,0,0.1c0,0,0,0,0,0c0,0,0,0,0,0c0,0,0,0.1,0,0.1
	c0,0,0,0,0,0c0,0.1,0,0.1,0.1,0.1c0.1,0.2,0.1,0.4,0.2,0.6c0,0.1,0.1,0.2,0.1,0.3c0,0.1,0.1,0.2,0.1,0.2c0,0.1,0.1,0.2,0.1,0.3
	c0.1,0.1,0.1,0.3,0.2,0.4c0,0.1,0.1,0.2,0.1,0.3c0,0,0,0.1,0,0.1c0,0,0,0,0,0.1c0,0,0,0.1,0,0.1c0,0,0,0,0,0c0,0.1,0,0.1,0.1,0.2
	c0,0,0,0,0,0.1c0,0.1,0,0.1,0.1,0.1c0.1,0.2,0.2,0.5,0.3,0.7c0,0.1,0,0.1,0.1,0.1c0,0,0,0,0,0c0,0,0,0,0,0c0,0,0,0,0,0.1
	c0,0,0,0,0,0c0,0,0,0,0,0c0,0,0,0,0,0.1c0.1,0.1,0.1,0.2,0.2,0.4c0,0,0,0,0,0.1c0,0,0,0,0,0c0,0,0,0.1,0,0.1
	c0.1,0.1,0.1,0.3,0.2,0.4c0,0.1,0.1,0.1,0.1,0.2c0,0.1,0.1,0.2,0.1,0.3c0,0,0,0.1,0,0.1c0,0,0,0,0,0c0,0,0,0.1,0.1,0.1c0,0,0,0,0,0
	c0,0.1,0.1,0.1,0.1,0.2c0.1,0.1,0.1,0.3,0.2,0.4c0,0,0,0,0,0.1c0,0,0,0.1,0.1,0.1c0,0.1,0.1,0.1,0.1,0.2c0,0,0,0.1,0.1,0.1
	c0.1,0.2,0.2,0.4,0.3,0.6c0,0.1,0.1,0.1,0.1,0.2c0,0.1,0.1,0.2,0.1,0.3c0,0.1,0.1,0.2,0.1,0.3c0,0,0,0.1,0,0.1c0,0,0,0,0,0.1
	c0.1,0.2,0.2,0.4,0.3,0.7c0,0,0,0,0,0c0,0,0,0.1,0.1,0.1c0,0,0,0,0,0.1c0,0,0,0.1,0.1,0.1c0,0,0,0,0,0c0,0,0,0,0,0
	c0,0,0,0.1,0.1,0.1c0,0.1,0.1,0.1,0.1,0.1c0,0,0,0.1,0.1,0.1c0,0,0,0.1,0.1,0.1c0,0,0,0,0,0c0.1,0.2,0.2,0.4,0.3,0.7
	c0,0.1,0,0.1,0.1,0.2c0,0,0,0.1,0.1,0.1c0.1,0.2,0.2,0.4,0.3,0.7c0,0,0,0,0,0c0.1,0.2,0.2,0.4,0.3,0.5c0,0,0.1,0.1,0.1,0.1
	c0,0,0,0,0,0.1c0,0.1,0.1,0.2,0.1,0.2c0,0,0,0.1,0.1,0.1c0,0,0.1,0.1,0.1,0.1c0,0,0,0,0,0c0,0.1,0.1,0.1,0.1,0.2
	c0.1,0.3,0.3,0.5,0.4,0.8c0,0,0,0,0,0c0,0,0.1,0.1,0.1,0.1c0,0,0,0,0,0.1c0,0,0,0,0,0.1c0,0,0,0,0,0c0,0,0,0.1,0.1,0.1
	c0.1,0.3,0.3,0.6,0.4,0.8c0,0,0,0,0,0.1c0,0,0.1,0.1,0.1,0.1c0,0.1,0.1,0.2,0.1,0.3c0,0.1,0.1,0.1,0.1,0.2c0,0,0,0,0,0
	c0.1,0.2,0.2,0.4,0.3,0.6c0,0,0,0,0,0c0,0,0,0,0,0c0,0.1,0.1,0.1,0.1,0.2c0,0,0,0,0,0.1c0,0,0.1,0.1,0.1,0.1c0,0.1,0.1,0.1,0.1,0.2
	c0.1,0.2,0.3,0.5,0.4,0.7c0.1,0.2,0.2,0.4,0.3,0.5c0.1,0.2,0.2,0.4,0.3,0.5c0,0.1,0.1,0.1,0.1,0.2c0,0,0,0,0,0.1
	c0.2,0.3,0.4,0.6,0.6,0.9c0,0,0,0,0,0c0.1,0.1,0.1,0.2,0.2,0.3c0.1,0.1,0.1,0.2,0.2,0.4s0.2,0.3,0.2,0.4c0,0.1,0.1,0.1,0.1,0.2
	c0,0,0,0.1,0.1,0.1c0.1,0.2,0.3,0.4,0.4,0.7c0.1,0.1,0.2,0.3,0.3,0.4c0.1,0.1,0.1,0.2,0.2,0.2c0.1,0.2,0.2,0.3,0.3,0.5
	c0,0,0,0.1,0.1,0.1c0.1,0.1,0.1,0.2,0.2,0.3c0.2,0.4,0.5,0.7,0.7,1.1c0.4,0.6,0.8,1.2,1.2,1.7c0.1,0.1,0.1,0.1,0.2,0.2
	c0.1,0.1,0.2,0.3,0.3,0.4c0.2,0.3,0.4,0.6,0.6,0.9c0.1,0.2,0.2,0.4,0.4,0.5c0.1,0.1,0.2,0.3,0.3,0.4c0.4,0.5,0.8,1,1.1,1.5
	c0.3,0.4,0.6,0.8,1,1.2c0.2,0.2,0.4,0.5,0.6,0.7c0,0.1,0.1,0.1,0.2,0.2c0.1,0.1,0.1,0.1,0.2,0.2s0.1,0.1,0.2,0.2
	c0,0.1,0.1,0.1,0.1,0.2c0.1,0.1,0.2,0.2,0.2,0.3c0,0,0.1,0.1,0.1,0.1c0.1,0.1,0.2,0.3,0.3,0.4c0.1,0.1,0.1,0.2,0.2,0.3
	c0.1,0.1,0.1,0.2,0.2,0.3c0,0,0,0,0.1,0.1c0,0,0,0,0,0l0,0c0,0,0.1,0.1,0.1,0.1c0,0,0,0,0,0c0.1,0.1,0.2,0.2,0.3,0.3
	c0,0,0.1,0.1,0.1,0.1c0.1,0.1,0.1,0.1,0.2,0.2c0,0,0.1,0.1,0.1,0.1c0.1,0.1,0.1,0.1,0.2,0.2c0.1,0.1,0.2,0.2,0.3,0.3c0,0,0,0,0,0
	c0,0,0,0.1,0.1,0.1c0.1,0.1,0.1,0.1,0.2,0.2c0,0,0,0,0,0c0,0,0,0,0,0c0,0,0,0,0,0.1c0,0,0,0,0,0c0,0,0,0,0,0c0,0,0,0.1,0.1,0.1
	c0,0,0,0,0,0c0,0,0,0,0,0c0.1,0.1,0.1,0.2,0.2,0.3c0,0,0.1,0.1,0.1,0.1c0,0,0,0,0,0.1c0,0,0.1,0.1,0.1,0.1c0,0,0.1,0.1,0.1,0.1
	c0.1,0.1,0.2,0.2,0.3,0.3c0.1,0.1,0.3,0.3,0.4,0.4c0,0,0,0,0,0c0,0.1,0.1,0.1,0.1,0.1c-21.1-22.2-34.9-48.7-41.6-76.6
	c-9-37.5-5-77.5,11.9-112.8c8-16.7,19-32.4,32.9-46.3C263,58,290.7,43.1,320,36.1c53.9-12.9,112.8,0.9,155.7,41.5c0,0,0.1,0,0.1,0.1
	c0.5,0.5,1,1,1.5,1.5c0.1,0.1,0.1,0.1,0.2,0.2c0.5,0.5,1.1,1,1.6,1.6c0.6,0.6,1.2,1.2,1.8,1.8c1.3,1.3,2.6,2.6,3.8,4
	c0.6,0.7,1.2,1.3,1.8,2c0.1,0.1,0.2,0.2,0.3,0.3c1.7,1.9,3.4,3.8,5,5.7c0.6,0.7,1.1,1.4,1.7,2c12.5,15.1,23,31.8,31.2,49.8
	c1.1,2.4,2.2,4.9,3.2,7.4c0.3,0.6,0.5,1.3,0.8,1.9c0.4,1.1,0.8,2.1,1.3,3.2c0.5,1.4,1,2.7,1.5,4.1c0.1,0.3,0.2,0.6,0.4,0.9
	c0.6,1.7,1.2,3.4,1.8,5.1c4.2,12.8,7.3,25.8,9.2,39.1c0.1,0.8,0.2,1.7,0.3,2.5c0,0.1,0,0.2,0,0.2c0.2,1.7,0.4,3.5,0.6,5.2
	c0.1,0.8,0.2,1.6,0.2,2.4c0,0.3,0.1,0.5,0.1,0.8c0.1,0.7,0.1,1.5,0.2,2.2c0.1,0.6,0.1,1.3,0.2,1.9c0.1,0.9,0.1,1.9,0.2,2.8
	c0,0.8,0.1,1.7,0.1,2.6C544.8,229.8,544.8,230.9,544.9,232z"/>
<linearGradient id="SVGID_13_" gradientUnits="userSpaceOnUse" x1="243.14" y1="287.7838" x2="528.5905" y2="287.7838">
	<stop  offset="9.124846e-02" style="stop-color:#9E005D"/>
	<stop  offset="0.211" style="stop-color:#9E005D"/>
	<stop  offset="1" style="stop-color:#1B1464"/>
</linearGradient>
<path class="st12" d="M523.9,240c12.9,53.9-0.9,112.9-41.6,155.8c-0.4,0.5-0.9,1-1.4,1.4c0,0-0.1,0.1-0.1,0.1
	c-0.6,0.6-1.1,1.2-1.8,1.8c-0.5,0.5-1.1,1.1-1.6,1.6c-0.1,0.1-0.1,0.1-0.2,0.2c-0.7,0.7-1.4,1.3-2,2c0,0,0,0,0,0
	c-0.6,0.6-1.3,1.2-1.9,1.8c-0.6,0.6-1.3,1.2-2,1.8c-0.1,0.1-0.2,0.2-0.3,0.3c-0.6,0.5-1.1,1-1.7,1.5c-0.5,0.4-1,0.9-1.5,1.3
	c-0.2,0.1-0.3,0.3-0.5,0.4c-0.2,0.2-0.4,0.3-0.6,0.5c-0.3,0.2-0.6,0.5-0.9,0.8c-0.3,0.3-0.6,0.5-0.9,0.8c-0.1,0.1-0.2,0.2-0.4,0.3
	c-0.5,0.4-0.9,0.8-1.4,1.1c-0.7,0.6-1.4,1.1-2.1,1.7c-3.5,2.8-7,5.5-10.6,8.1c-0.7,0.5-1.5,1-2.2,1.5c-2.2,1.5-4.4,3-6.7,4.5
	c-2.2,1.4-4.5,2.9-6.8,4.2c-6.9,4.1-14,7.9-21.4,11.2c0,0,0,0-0.1,0c-1.6,0.7-3.2,1.4-4.9,2.1c0,0-0.1,0-0.1,0
	c-4.1,1.8-8.3,3.4-12.6,4.9c-1.7,0.6-3.4,1.2-5.1,1.8c-15.3,5.1-31.1,8.5-47,10.1c-0.8,0.1-1.6,0.2-2.4,0.2c-0.3,0-0.5,0.1-0.8,0.1
	c-0.7,0.1-1.5,0.1-2.2,0.2c-0.6,0-1.3,0.1-1.9,0.1c-0.9,0.1-1.9,0.1-2.8,0.2c-0.9,0-1.7,0.1-2.6,0.1c-1.1,0.1-2.2,0.1-3.3,0.1
	c-1.8,0.1-3.5,0.1-5.3,0.1c59.9-0.9,112.3-33,141.5-80.8c15.7-25.7,24.8-55.9,24.8-88.2c0-19.6-3.4-38.5-9.5-56
	c-13-37-38.4-68-71.3-88.2c-3.9-2.4-7.8-4.6-11.9-6.6c-0.8-0.4-1.6-0.8-2.4-1.2c0,0-0.1,0-0.1-0.1c-0.5-0.3-1.1-0.5-1.6-0.8
	c-1.1-0.5-2.2-1-3.3-1.5c-0.8-0.4-1.7-0.7-2.5-1.1c-0.8-0.4-1.7-0.7-2.5-1.1c-0.8-0.3-1.7-0.7-2.6-1c-0.8-0.3-1.7-0.7-2.6-1
	c-1.7-0.6-3.5-1.3-5.2-1.8c-1.5-0.5-3.1-1-4.6-1.5c-3.1-0.9-6.2-1.8-9.4-2.5c-1.6-0.4-3.2-0.7-4.8-1.1c-0.7-0.1-1.5-0.3-2.2-0.4
	c-4.3-0.9-8.7-1.5-13.2-2c-0.7-0.1-1.4-0.1-2-0.2c-4.8-0.5-9.7-0.8-14.6-0.9c-0.1,0-0.3,0-0.4,0c-0.2,0-0.3,0-0.5,0
	c-0.5,0-1,0-1.5,0c-0.2,0-0.4,0-0.6,0c-0.5,0-1,0-1.5,0c-0.2,0-0.5,0-0.8,0c-0.2,0-0.4,0-0.6,0c0,0-0.1,0-0.1,0c-0.1,0-0.2,0-0.3,0
	c-0.5,0-1,0-1.5,0.1c-0.1,0-0.3,0-0.4,0c-0.1,0-0.2,0-0.2,0c-0.1,0-0.2,0-0.3,0c0,0-0.1,0-0.1,0c0,0,0,0,0,0c-0.1,0-0.2,0-0.2,0
	c-0.1,0-0.2,0-0.3,0c0,0,0,0,0,0c-0.1,0-0.3,0-0.4,0c-0.1,0-0.2,0-0.2,0c-0.4,0-0.7,0-1.1,0.1c-0.1,0-0.1,0-0.2,0c0,0-0.1,0-0.1,0
	c-0.1,0-0.2,0-0.3,0c0,0-0.1,0-0.1,0c0,0,0,0,0,0c-0.1,0-0.3,0-0.4,0c-0.4,0-0.8,0.1-1.2,0.1c-0.1,0-0.3,0-0.4,0c-0.1,0-0.2,0-0.3,0
	c-0.1,0-0.2,0-0.4,0c0,0,0,0,0,0c-0.1,0-0.2,0-0.4,0c-0.2,0-0.5,0.1-0.8,0.1c-0.2,0-0.3,0-0.5,0.1c-0.1,0-0.1,0-0.2,0
	c-0.1,0-0.2,0-0.3,0c-0.4,0-0.8,0.1-1.2,0.1c0,0-0.1,0-0.1,0c0,0-0.1,0-0.1,0c0,0-0.1,0-0.1,0c0,0-0.1,0-0.1,0c0,0,0,0,0,0
	c-0.5,0.1-1,0.1-1.5,0.2c-0.1,0-0.2,0-0.2,0c-0.3,0-0.5,0.1-0.8,0.1c-0.2,0-0.3,0.1-0.5,0.1c-0.2,0-0.3,0-0.5,0.1
	c-0.2,0-0.3,0-0.5,0.1c-0.1,0-0.2,0-0.4,0.1c-0.3,0-0.6,0.1-0.8,0.1c-0.5,0.1-0.9,0.2-1.4,0.3c0,0-0.1,0-0.1,0
	c-0.9,0.2-1.8,0.4-2.6,0.6c-0.1,0-0.2,0-0.3,0.1c-0.1,0-0.2,0-0.3,0.1c-0.1,0-0.2,0.1-0.3,0.1c-0.1,0-0.1,0-0.2,0.1
	c-0.1,0-0.2,0-0.2,0.1c-0.1,0-0.2,0-0.2,0.1c-0.1,0-0.2,0-0.2,0.1c-0.3,0.1-0.5,0.1-0.8,0.2c-0.1,0-0.2,0-0.3,0.1c0,0-0.1,0-0.1,0
	c-0.1,0-0.1,0-0.2,0c-0.1,0-0.1,0-0.1,0c0,0,0,0-0.1,0c0,0-0.1,0-0.1,0c-0.2,0-0.4,0.1-0.5,0.1c-0.1,0-0.3,0.1-0.4,0.1
	c-0.3,0.1-0.5,0.1-0.8,0.2c-0.1,0-0.1,0-0.2,0.1c-0.1,0-0.1,0-0.2,0.1c-0.1,0-0.2,0.1-0.4,0.1c0,0,0,0,0,0c-0.1,0-0.2,0.1-0.4,0.1
	c-0.2,0-0.3,0.1-0.5,0.2c-0.1,0-0.2,0.1-0.3,0.1c-0.1,0-0.1,0-0.2,0.1c0,0-0.1,0-0.1,0c-0.1,0-0.2,0.1-0.4,0.1c-0.1,0-0.2,0-0.3,0.1
	c0,0,0,0-0.1,0c-0.1,0-0.2,0.1-0.3,0.1c-0.2,0.1-0.3,0.1-0.5,0.2c-0.1,0-0.2,0-0.2,0.1c-0.1,0-0.2,0.1-0.3,0.1
	c-0.1,0-0.3,0.1-0.4,0.1c-0.1,0-0.2,0.1-0.2,0.1c-0.3,0.1-0.5,0.2-0.8,0.3c0,0-0.1,0-0.1,0c-0.2,0.1-0.4,0.1-0.6,0.2
	c-0.2,0.1-0.4,0.1-0.5,0.2c0,0-0.1,0-0.2,0.1c-0.1,0-0.2,0.1-0.3,0.1c-0.1,0-0.2,0-0.2,0.1c-0.2,0.1-0.3,0.1-0.5,0.2
	c0,0-0.1,0-0.1,0c-0.1,0-0.2,0.1-0.3,0.1c-0.2,0.1-0.3,0.1-0.5,0.2c0,0-0.1,0-0.1,0.1c-0.1,0.1-0.3,0.1-0.4,0.1
	c-0.2,0.1-0.5,0.2-0.7,0.3c-0.1,0-0.2,0.1-0.3,0.1c-0.1,0-0.1,0-0.2,0.1c0,0,0,0-0.1,0c0,0-0.1,0-0.1,0.1c-0.5,0.2-1,0.4-1.4,0.6
	c-0.1,0-0.1,0.1-0.2,0.1c-0.1,0-0.1,0.1-0.2,0.1c0,0-0.1,0-0.1,0c0,0-0.1,0-0.1,0.1c0,0-0.1,0-0.1,0c-0.1,0-0.2,0.1-0.3,0.1
	c-0.1,0-0.1,0.1-0.2,0.1c-0.3,0.1-0.7,0.3-1,0.4c0,0-0.1,0-0.1,0c-0.1,0-0.1,0.1-0.2,0.1c0,0-0.1,0-0.1,0.1c0,0-0.1,0.1-0.1,0.1
	c-0.1,0-0.2,0.1-0.2,0.1c0,0-0.1,0-0.1,0.1c0,0-0.1,0-0.1,0.1c-0.2,0.1-0.4,0.2-0.6,0.3c-0.1,0.1-0.3,0.1-0.4,0.2
	c-0.2,0.1-0.5,0.2-0.8,0.3c0,0,0,0,0,0c-0.1,0-0.2,0.1-0.3,0.1c0,0-0.1,0-0.1,0.1c-0.1,0-0.1,0.1-0.2,0.1c0,0-0.1,0-0.1,0.1
	c-0.1,0.1-0.3,0.1-0.4,0.2c-0.1,0-0.2,0.1-0.3,0.1c-0.1,0-0.1,0.1-0.2,0.1c-0.1,0.1-0.2,0.1-0.3,0.1c-0.1,0-0.1,0.1-0.2,0.1
	c-0.2,0.1-0.4,0.2-0.7,0.3c-0.1,0-0.1,0.1-0.2,0.1c-0.1,0-0.2,0.1-0.2,0.1c-0.2,0.1-0.3,0.1-0.5,0.2c-0.3,0.2-0.7,0.3-1,0.5
	c-0.1,0.1-0.3,0.1-0.4,0.2c-0.3,0.2-0.7,0.3-1,0.5c-0.1,0-0.1,0.1-0.2,0.1c-0.1,0-0.1,0.1-0.2,0.1c-0.2,0.1-0.3,0.2-0.5,0.2
	c0,0,0,0,0,0c0,0-0.1,0-0.1,0.1c0,0,0,0-0.1,0c-0.2,0.1-0.5,0.3-0.8,0.4c-0.5,0.3-0.9,0.5-1.4,0.8c-0.1,0.1-0.2,0.1-0.3,0.2
	c-0.4,0.2-0.7,0.4-1.1,0.7c-0.3,0.2-0.5,0.3-0.8,0.5c0,0,0,0-0.1,0.1c0,0-0.1,0-0.1,0.1c-0.1,0.1-0.2,0.1-0.4,0.2
	c-0.3,0.2-0.5,0.3-0.8,0.5c-0.3,0.2-0.5,0.3-0.8,0.5c-0.1,0-0.1,0.1-0.2,0.1c-0.3,0.2-0.7,0.4-1,0.7c-0.6,0.4-1.3,0.9-1.9,1.3
	c-0.4,0.3-0.8,0.6-1.2,0.9c-0.2,0.1-0.4,0.3-0.6,0.5c-0.3,0.2-0.5,0.4-0.8,0.6c-0.6,0.4-1.2,0.9-1.8,1.4c-0.3,0.2-0.5,0.4-0.8,0.6
	c-0.2,0.2-0.5,0.4-0.7,0.6c-0.1,0.1-0.3,0.2-0.4,0.3c-0.1,0.1-0.2,0.1-0.2,0.2c0,0,0,0-0.1,0.1c-0.2,0.1-0.3,0.3-0.5,0.4
	c0,0-0.1,0.1-0.1,0.1c-0.2,0.2-0.4,0.4-0.7,0.6c-0.1,0.1-0.2,0.1-0.2,0.2c-0.1,0.1-0.2,0.1-0.3,0.2c0,0-0.1,0.1-0.1,0.1
	c-0.1,0.1-0.3,0.2-0.4,0.3c-0.1,0.1-0.2,0.2-0.3,0.3c-0.1,0-0.1,0.1-0.2,0.2c-0.1,0.1-0.2,0.2-0.3,0.3c0,0,0,0,0,0
	c0,0-0.1,0.1-0.1,0.1c0,0-0.1,0.1-0.1,0.1c-0.1,0.1-0.1,0.1-0.2,0.2c0,0,0,0,0,0c-0.1,0.1-0.2,0.2-0.3,0.3c0,0-0.1,0.1-0.1,0.1
	c0,0-0.1,0.1-0.1,0.1c-0.1,0.1-0.1,0.1-0.2,0.2c-0.2,0.2-0.5,0.4-0.7,0.6c-0.1,0.1-0.2,0.2-0.3,0.3c-0.1,0-0.1,0.1-0.2,0.1
	c4.6-4.4,9.5-8.5,14.4-12.3c0.7-0.5,1.3-1,2-1.5c0.4-0.3,0.8-0.6,1.2-0.9c1.1-0.8,2.2-1.6,3.4-2.4c1-0.7,2-1.4,3-2
	c2.7-1.8,5.5-3.5,8.3-5.1c2.8-1.6,5.7-3.1,8.5-4.6c1.7-0.8,3.3-1.6,5-2.4c0.8-0.4,1.7-0.8,2.5-1.1c0.8-0.4,1.7-0.7,2.5-1.1
	c0.9-0.3,1.7-0.7,2.5-1c0.9-0.3,1.7-0.7,2.6-1c1.1-0.4,2.2-0.9,3.4-1.3c0.6-0.2,1.1-0.4,1.7-0.6c0.1,0,0.1,0,0.1,0
	c0.8-0.3,1.7-0.6,2.5-0.8c4.3-1.4,8.7-2.7,13.1-3.7c37.5-9,77.5-5,112.8,11.9c16.7,8,32.4,19,46.3,32.9
	C502,182.9,516.9,210.7,523.9,240z"/>
<linearGradient id="SVGID_14_" gradientUnits="userSpaceOnUse" x1="164.3" y1="296.02" x2="489" y2="296.02">
	<stop  offset="9.124846e-02" style="stop-color:#9E005D"/>
	<stop  offset="0.211" style="stop-color:#9E005D"/>
	<stop  offset="1" style="stop-color:#1B1464"/>
</linearGradient>
<path class="st13" d="M479.5,240c6.1,17.5,9.5,36.4,9.5,56c0,32.3-9.1,62.5-24.8,88.2c-29.3,47.8-81.6,79.9-141.5,80.8
	c-1.8,0-3.6,0-5.3,0c-1.8,0-3.6-0.1-5.3-0.1c-1.1,0-2.2-0.1-3.3-0.1c-0.9,0-1.7-0.1-2.6-0.1c-0.9,0-1.9-0.1-2.8-0.2
	c-0.6,0-1.3-0.1-2-0.1c-0.7-0.1-1.4-0.1-2.1-0.2c-0.3,0-0.5,0-0.8-0.1c-0.8-0.1-1.6-0.2-2.4-0.2c-15.9-1.7-31.7-5.1-47-10.1
	c-1.7-0.6-3.4-1.2-5.1-1.8c0,0,0,0,0,0c-0.8-0.3-1.7-0.6-2.5-0.9c-2.6-0.9-5.1-1.9-7.6-3c-0.5-0.2-0.9-0.4-1.4-0.6
	c-0.3-0.1-0.7-0.3-1-0.4c0,0-0.1,0-0.1,0c-0.8-0.3-1.6-0.7-2.4-1c0,0-0.1,0-0.1,0c-0.3-0.1-0.5-0.2-0.8-0.4
	c-0.5-0.2-1.1-0.5-1.6-0.7c0,0,0,0-0.1,0c-0.2-0.1-0.3-0.1-0.4-0.2c-3.9-1.8-7.8-3.8-11.7-5.8c-3.4-1.8-6.8-3.8-10.2-5.8
	c-1.2-0.7-2.5-1.5-3.7-2.3c-0.8-0.5-1.5-1-2.3-1.4c-2.2-1.5-4.5-2.9-6.7-4.5c-1.5-1-2.9-2.1-4.3-3.1c0,0,0,0,0,0
	c-2.1-1.6-4.2-3.2-6.3-4.8c0,0,0,0-0.1-0.1c-0.7-0.5-1.4-1.1-2.1-1.7c-0.6-0.5-1.2-1-1.8-1.4c-0.6-0.5-1.3-1-1.9-1.6
	c-0.3-0.3-0.7-0.6-1-0.9c-0.3-0.2-0.6-0.5-0.9-0.8c-0.2-0.2-0.4-0.3-0.6-0.5c-0.2-0.1-0.3-0.3-0.5-0.4c-0.5-0.4-1-0.9-1.5-1.3
	c-0.6-0.5-1.1-1-1.7-1.5c-0.1-0.1-0.2-0.2-0.3-0.3c-0.7-0.6-1.3-1.2-2-1.8c-0.6-0.6-1.3-1.2-1.9-1.8c0,0,0,0,0,0
	c-0.1-0.1-0.3-0.3-0.4-0.4c42.9,40.6,101.8,54.4,155.7,41.5c29.3-7,57-22,79.9-44.8c13.9-13.9,24.8-29.6,32.9-46.3
	c17-35.3,20.9-75.3,11.9-112.8c-1-4.4-2.3-8.8-3.7-13.1c-0.3-0.8-0.6-1.7-0.8-2.5c0,0,0-0.1-0.1-0.1c-0.2-0.6-0.4-1.1-0.6-1.7
	c-0.4-1.1-0.8-2.3-1.3-3.4c-0.3-0.9-0.7-1.7-1-2.6c-0.3-0.9-0.7-1.7-1-2.5c-0.4-0.8-0.7-1.7-1.1-2.5c-0.4-0.8-0.7-1.7-1.1-2.5
	c-0.8-1.7-1.6-3.3-2.4-5c-1.4-2.9-3-5.7-4.6-8.6s-3.3-5.6-5.1-8.3c-1.1-1.6-2.1-3.2-3.3-4.8c-5-7.1-10.6-13.9-16.8-20.3
	c0,0,0,0-0.1,0c0,0-0.1,0-0.1-0.1v0c-0.1-0.1-0.2-0.2-0.4-0.4c-0.1-0.1-0.1-0.1-0.1-0.1c0,0,0,0-0.1-0.1c-0.2-0.2-0.3-0.3-0.5-0.5
	c-0.2-0.3-0.5-0.5-0.8-0.8c-0.2-0.3-0.5-0.5-0.8-0.8c-0.1-0.1-0.2-0.2-0.3-0.3c0,0,0,0,0,0c-0.1-0.1-0.1-0.1-0.2-0.2
	c-0.2-0.2-0.4-0.4-0.6-0.6c-0.1-0.1-0.2-0.2-0.4-0.4h0c-0.1-0.1-0.1-0.1-0.2-0.2c0,0,0,0,0,0c0,0,0,0-0.1-0.1
	c-0.1-0.1-0.3-0.3-0.4-0.4c-0.1-0.1-0.3-0.3-0.4-0.4c-0.3-0.2-0.5-0.5-0.8-0.7c-0.1-0.1-0.1-0.1-0.2-0.2c0,0,0,0-0.1-0.1
	c-0.2-0.2-0.4-0.4-0.6-0.6c-0.1-0.1-0.1-0.1-0.2-0.1c0,0,0,0,0,0c-0.2-0.2-0.5-0.4-0.7-0.6c0,0-0.1-0.1-0.1-0.1
	c-0.2-0.2-0.4-0.3-0.6-0.5c0,0,0,0-0.1,0c-0.4-0.3-0.7-0.6-1.1-0.9c-0.3-0.3-0.6-0.5-1-0.8c-0.3-0.2-0.6-0.5-0.9-0.7
	c-0.1-0.1-0.2-0.1-0.2-0.2c-0.2-0.1-0.3-0.3-0.5-0.4c-0.2-0.2-0.5-0.4-0.8-0.6c-0.1,0-0.1-0.1-0.2-0.1c-0.1-0.1-0.2-0.1-0.2-0.2
	c0,0-0.1-0.1-0.1-0.1c-0.1-0.1-0.2-0.2-0.4-0.3c-0.4-0.3-0.8-0.6-1.2-0.9c-0.2-0.1-0.3-0.2-0.5-0.4c-0.6-0.4-1.2-0.9-1.9-1.3
	c-0.1-0.1-0.2-0.1-0.3-0.2c-0.5-0.4-1-0.7-1.6-1.1c-0.6-0.4-1.3-0.9-2-1.3c-0.1,0-0.2-0.1-0.2-0.2c-0.4-0.2-0.7-0.4-1.1-0.6
	c0,0-0.1,0-0.1-0.1c-0.5-0.3-1-0.6-1.6-0.9c0,0-0.1,0-0.1-0.1c-0.1-0.1-0.2-0.1-0.3-0.2c-0.4-0.2-0.8-0.5-1.1-0.7
	c-0.1-0.1-0.3-0.2-0.4-0.2c-0.1-0.1-0.2-0.1-0.3-0.2c-0.2-0.1-0.4-0.2-0.6-0.3c-0.2-0.1-0.4-0.2-0.6-0.3c-0.3-0.2-0.6-0.4-1-0.5
	c0,0,0,0,0,0c0,0,0,0-0.1,0c-0.1,0-0.1-0.1-0.2-0.1c-0.3-0.1-0.5-0.3-0.8-0.4c-0.1,0-0.1-0.1-0.2-0.1c-0.2-0.1-0.3-0.2-0.5-0.3
	c0,0-0.1,0-0.1-0.1c-0.1,0-0.1-0.1-0.2-0.1c-0.1-0.1-0.3-0.1-0.4-0.2c-0.2-0.1-0.3-0.2-0.5-0.2c0,0-0.1-0.1-0.1-0.1
	c-0.1-0.1-0.3-0.1-0.4-0.2c-0.3-0.1-0.6-0.3-0.8-0.4c-0.2-0.1-0.4-0.2-0.6-0.3c0,0,0,0,0,0c-0.1-0.1-0.3-0.1-0.4-0.2
	c-0.1-0.1-0.3-0.1-0.4-0.2c-0.5-0.2-1-0.5-1.5-0.7c-0.1,0-0.1-0.1-0.2-0.1c-0.5-0.2-1-0.4-1.5-0.6c-0.2-0.1-0.4-0.2-0.6-0.3
	c-0.3-0.1-0.6-0.2-0.8-0.4c-0.1-0.1-0.2-0.1-0.4-0.1c-0.1-0.1-0.3-0.1-0.4-0.2c-0.1-0.1-0.2-0.1-0.3-0.1c0,0-0.1,0-0.1,0
	c-0.1-0.1-0.2-0.1-0.3-0.1c-0.5-0.2-0.9-0.4-1.4-0.5c-0.3-0.1-0.5-0.2-0.8-0.3c-0.1,0-0.3-0.1-0.4-0.1c-0.5-0.2-1.1-0.4-1.6-0.6
	c-0.1-0.1-0.2-0.1-0.3-0.1c-0.4-0.2-0.9-0.3-1.3-0.4c-0.4-0.1-0.8-0.3-1.2-0.4c-0.6-0.2-1.1-0.4-1.7-0.5c-0.3-0.1-0.5-0.2-0.8-0.2
	c-0.8-0.2-1.6-0.4-2.4-0.7c0,0-0.1,0-0.1,0c0,0,0,0-0.1,0c-0.3-0.1-0.5-0.1-0.8-0.2c-0.2,0-0.4-0.1-0.5-0.1c-0.1,0-0.3-0.1-0.4-0.1
	c-0.3-0.1-0.7-0.2-1-0.2c-0.1,0-0.2-0.1-0.3-0.1c-0.3-0.1-0.6-0.1-0.8-0.2c0,0-0.1,0-0.1,0c-0.1,0-0.2,0-0.3-0.1c0,0,0,0,0,0
	c-0.3-0.1-0.6-0.1-0.9-0.2c-0.1,0-0.1,0-0.2-0.1c-0.6-0.1-1.3-0.3-2-0.4c-0.1,0-0.3-0.1-0.5-0.1c-0.3-0.1-0.6-0.1-0.9-0.2
	c-0.4-0.1-0.9-0.2-1.4-0.2c0,0-0.1,0-0.1,0c-0.3,0-0.5-0.1-0.8-0.1c-0.3-0.1-0.6-0.1-0.9-0.1c-0.3,0-0.6-0.1-0.9-0.1
	c-0.6-0.1-1.3-0.2-1.9-0.3c0,0-0.1,0-0.1,0c-0.1,0-0.2,0-0.3,0c-0.4,0-0.9-0.1-1.3-0.1c-0.1,0-0.3,0-0.4-0.1c-0.2,0-0.5,0-0.7-0.1
	c-0.1,0-0.2,0-0.3,0c-0.4,0-0.7-0.1-1.1-0.1c-0.3,0-0.7-0.1-1-0.1c-0.1,0-0.2,0-0.4,0s-0.2,0-0.4,0c-0.4,0-0.7,0-1.1-0.1
	c0,0-0.1,0-0.1,0c-0.3,0-0.5,0-0.8,0c-0.3,0-0.6,0-0.9,0c-0.2,0-0.5,0-0.8,0c-0.2,0-0.3,0-0.5,0c4.6,0.1,9.2,0.4,13.7,0.8
	c0.7,0.1,1.4,0.2,2,0.2c4.4,0.5,8.8,1.2,13.2,2c0.7,0.1,1.4,0.3,2.2,0.4c1.6,0.3,3.2,0.7,4.8,1.1c3.2,0.8,6.3,1.6,9.4,2.5
	c1.6,0.5,3.1,1,4.6,1.5c1.8,0.6,3.5,1.2,5.2,1.8c0.9,0.3,1.7,0.7,2.6,1c0.9,0.3,1.7,0.7,2.6,1c0.8,0.4,1.7,0.7,2.5,1.1
	c0.8,0.4,1.7,0.7,2.5,1.1c1.1,0.5,2.2,1,3.3,1.5c0.6,0.2,1.1,0.5,1.6,0.8c0,0,0.1,0,0.1,0.1c0.8,0.4,1.6,0.8,2.4,1.2
	c4.1,2.1,8,4.3,11.9,6.6C441.1,172,466.5,203,479.5,240z"/>
<linearGradient id="SVGID_15_" gradientUnits="userSpaceOnUse" x1="95.02" y1="305.6589" x2="449.3975" y2="305.6589">
	<stop  offset="9.124846e-02" style="stop-color:#9E005D"/>
	<stop  offset="0.211" style="stop-color:#9E005D"/>
	<stop  offset="1" style="stop-color:#1B1464"/>
</linearGradient>
<path class="st14" d="M444.7,240c9,37.5,5,77.5-11.9,112.8c-8,16.7-19,32.4-32.9,46.3c-22.9,22.9-50.6,37.8-79.9,44.8
	c-53.9,12.9-112.8-0.9-155.7-41.5c-0.5-0.5-1.1-1-1.6-1.6c-0.1-0.1-0.1-0.1-0.2-0.2c-0.5-0.5-1.1-1.1-1.6-1.6
	c-0.6-0.6-1.2-1.2-1.8-1.8c0,0-0.1-0.1-0.1-0.1c-1.2-1.3-2.5-2.6-3.7-3.9c-0.6-0.6-1.2-1.3-1.8-1.9c-0.6-0.7-1.2-1.3-1.8-2
	c-0.4-0.5-0.9-1-1.3-1.5c-0.1-0.2-0.3-0.3-0.4-0.5c0,0,0,0,0,0c-0.2-0.2-0.3-0.4-0.5-0.6c-0.4-0.4-0.8-0.9-1.2-1.4
	c0,0-0.1-0.1-0.1-0.1c0,0,0,0,0,0c-0.1-0.2-0.3-0.3-0.4-0.5c-0.2-0.3-0.5-0.6-0.7-0.8c-0.2-0.2-0.4-0.5-0.6-0.7c0,0-0.1-0.1-0.1-0.1
	c-1-1.2-2-2.5-3.1-3.8c-0.1-0.1-0.1-0.1-0.2-0.2c-0.1-0.1-0.2-0.3-0.3-0.4c-0.4-0.6-0.9-1.1-1.3-1.7c-1.1-1.4-2.1-2.8-3.2-4.3
	c-8.9-12.2-16.7-25.3-23-39.2c0,0,0,0,0-0.1c-0.7-1.6-1.5-3.2-2.2-4.9c0,0,0,0,0,0c-0.3-0.8-0.7-1.6-1.1-2.5v0
	c-0.2-0.5-0.4-1-0.6-1.5c-0.5-1.2-1-2.4-1.5-3.7c-0.5-1.3-1-2.7-1.5-4c-0.1-0.3-0.2-0.6-0.3-1c-0.6-1.7-1.2-3.4-1.8-5.1
	c-4.2-12.8-7.3-25.9-9.2-39.1c-0.1-0.8-0.2-1.7-0.3-2.5c0-0.1,0-0.2,0-0.2c-0.2-1.7-0.4-3.5-0.6-5.2c-0.1-0.8-0.2-1.6-0.2-2.3
	c0-0.3,0-0.5-0.1-0.8c-0.1-0.7-0.1-1.5-0.2-2.2c0-0.6-0.1-1.3-0.1-1.9c-0.1-0.9-0.1-1.9-0.2-2.8c-0.1-0.8-0.1-1.7-0.1-2.6
	c-0.1-1.1-0.1-2.2-0.2-3.3c-0.1-1.8-0.1-3.6-0.1-5.3c0.9,59.9,33,112.3,80.8,141.5c25.7,15.7,55.9,24.8,88.2,24.8
	c19.6,0,38.5-3.4,56-9.5c37-13,68-38.4,88.2-71.3c15.1-24.6,24-53.3,24.7-84.1c0-0.2,0-0.4,0-0.5c0,0,0-0.1,0-0.1c0-0.1,0-0.2,0-0.3
	c0-0.2,0-0.4,0-0.5c0-0.1,0-0.3,0-0.4c0-0.7,0-1.5,0-2.2c0,0,0,0,0,0c0-0.7,0-1.5,0-2.2c0-0.1,0-0.3,0-0.4c0-0.2,0-0.4,0-0.5
	c0-0.1,0-0.1,0-0.2c0-0.8-0.1-1.6-0.1-2.4c0-0.1,0-0.2,0-0.3c0-0.2,0-0.4,0-0.5c0,0,0-0.1,0-0.1c0-0.6-0.1-1.1-0.1-1.7
	c0-0.1,0-0.1,0-0.1c0-0.2,0-0.4-0.1-0.7c0-0.1,0-0.2,0-0.2c0-0.6-0.1-1.2-0.2-1.8c0-0.1,0-0.2,0-0.3c0-0.1,0-0.2,0-0.2
	c0-0.1,0-0.1,0-0.2c-0.1-0.6-0.1-1.2-0.2-1.7c0,0,0-0.1,0-0.1c-0.1-0.6-0.1-1.3-0.2-1.9v0c-0.1-0.9-0.2-1.7-0.4-2.6c0,0,0,0,0,0
	c-0.1-0.8-0.2-1.5-0.4-2.3c0-0.2-0.1-0.4-0.1-0.6c-0.1-0.6-0.2-1.3-0.4-1.9c-0.1-0.3-0.1-0.7-0.2-1c-0.1-0.4-0.2-0.9-0.3-1.3
	c0,0,0,0,0,0c0,0,0-0.1,0-0.1c0-0.1-0.1-0.3-0.1-0.4c-0.1-0.2-0.1-0.5-0.2-0.7c0,0,0-0.1,0-0.1c-0.1-0.5-0.2-1-0.4-1.5
	c0-0.1,0-0.1,0-0.2c0-0.1-0.1-0.2-0.1-0.4c-0.1-0.6-0.3-1.3-0.5-1.9c-0.2-0.7-0.4-1.4-0.6-2.1c0-0.1-0.1-0.2-0.1-0.3
	c0-0.1,0-0.1,0-0.2c-0.1-0.2-0.1-0.5-0.2-0.7c0-0.1,0-0.1-0.1-0.2c-0.2-0.6-0.4-1.3-0.6-1.9v0c-0.2-0.8-0.5-1.5-0.8-2.2
	c-0.1-0.4-0.3-0.8-0.5-1.2c-0.1-0.3-0.2-0.6-0.3-0.9c0,0,0,0,0,0c-0.1-0.2-0.1-0.4-0.2-0.5c-0.2-0.6-0.5-1.3-0.8-1.9
	c0-0.1,0-0.1-0.1-0.2c0-0.1-0.1-0.1-0.1-0.2c-0.1-0.3-0.2-0.6-0.4-0.9c0-0.1-0.1-0.3-0.2-0.4c-0.1-0.3-0.2-0.5-0.3-0.8
	c0-0.1-0.1-0.1-0.1-0.2c0-0.1-0.1-0.1-0.1-0.2c0-0.1-0.1-0.1-0.1-0.2c-0.1-0.2-0.2-0.4-0.3-0.6c-0.2-0.4-0.3-0.8-0.5-1.1
	c0,0,0-0.1-0.1-0.1c0-0.1-0.1-0.1-0.1-0.2c0,0,0,0,0,0c-0.2-0.3-0.3-0.7-0.5-1c-0.1-0.1-0.1-0.3-0.2-0.5c-0.1-0.2-0.2-0.4-0.3-0.5v0
	c-0.1-0.1-0.2-0.3-0.2-0.5c-0.3-0.6-0.6-1.3-1-1.9c0,0,0,0,0,0c-0.4-0.7-0.8-1.4-1.1-2.1c0-0.1-0.1-0.1-0.1-0.2c0,0,0-0.1-0.1-0.1
	c-0.4-0.7-0.8-1.4-1.2-2.2v0c-0.4-0.8-0.9-1.5-1.4-2.2v0c-0.4-0.6-0.8-1.2-1.2-1.9c0-0.1-0.1-0.1-0.1-0.2c0-0.1-0.1-0.1-0.1-0.2
	c0,0,0-0.1-0.1-0.1c-0.2-0.3-0.3-0.5-0.5-0.8c-0.2-0.3-0.4-0.6-0.6-0.9c-0.1-0.1-0.2-0.3-0.3-0.4c-0.2-0.3-0.4-0.6-0.6-1
	c-0.3-0.4-0.5-0.8-0.8-1.1c0,0,0-0.1-0.1-0.1c0,0,0,0,0-0.1c-0.5-0.7-1-1.4-1.5-2.1c-0.4-0.5-0.8-1-1.2-1.6
	c-0.1-0.1-0.1-0.2-0.2-0.2c-0.1-0.1-0.1-0.2-0.2-0.3c-0.1-0.1-0.1-0.2-0.2-0.3c-0.1-0.2-0.2-0.3-0.4-0.5c-0.1-0.1-0.2-0.3-0.4-0.4
	c0,0,0,0,0,0c-0.1-0.1-0.2-0.3-0.3-0.4c-0.1-0.2-0.2-0.3-0.4-0.4c0-0.1-0.1-0.1-0.2-0.2c-0.1-0.2-0.3-0.4-0.5-0.6
	c-0.2-0.3-0.4-0.5-0.7-0.8c-0.1-0.1-0.2-0.3-0.4-0.4c-0.1-0.1-0.2-0.3-0.4-0.4c-0.2-0.2-0.4-0.5-0.7-0.7c-0.1-0.1-0.2-0.2-0.3-0.3
	c-0.1-0.2-0.3-0.3-0.4-0.5c-0.2-0.2-0.3-0.4-0.5-0.6c-0.2-0.2-0.3-0.4-0.5-0.6c6,6.2,11.4,12.8,16.2,19.6c1.1,1.6,2.2,3.2,3.3,4.8
	c1.8,2.7,3.5,5.5,5.1,8.3c1.6,2.8,3.1,5.7,4.6,8.6c0.8,1.7,1.6,3.3,2.4,5c0.4,0.8,0.8,1.7,1.1,2.5c0.4,0.8,0.7,1.7,1.1,2.5
	c0.3,0.9,0.7,1.7,1,2.5c0.3,0.8,0.7,1.7,1,2.6c0.4,1.1,0.9,2.2,1.3,3.4c0.2,0.6,0.4,1.1,0.6,1.7c0,0.1,0,0.1,0.1,0.1
	c0.3,0.8,0.6,1.7,0.8,2.5C442.4,231.2,443.7,235.6,444.7,240z"/>
<linearGradient id="SVGID_16_" gradientUnits="userSpaceOnUse" x1="313.35" y1="352.92" x2="313.35" y2="15.005">
	<stop  offset="9.124846e-02" style="stop-color:#9E005D"/>
	<stop  offset="0.211" style="stop-color:#9E005D"/>
	<stop  offset="1" style="stop-color:#1B1464"/>
</linearGradient>
<path class="st15" d="M473.4,75.4c0.8,0.7,1.6,1.5,2.4,2.2C432.8,37,373.8,23.1,320,36.1c-29.3,7-57,22-79.9,44.8
	c-13.9,13.9-24.8,29.6-32.9,46.3c-17,35.3-20.9,75.3-11.9,112.8c6.7,27.9,20.6,54.4,41.6,76.6c0.1,0.1,0.1,0.2,0.2,0.2c0,0,0,0,0,0
	c0,0,0.1,0.1,0.1,0.1c0.1,0.1,0.2,0.2,0.3,0.3c0.1,0.1,0.1,0.1,0.2,0.2c0,0,0.1,0.1,0.1,0.1c0.1,0.1,0.1,0.1,0.1,0.1
	c0.1,0.1,0.2,0.2,0.2,0.3c0,0.1,0.1,0.1,0.2,0.2c0.1,0.1,0.2,0.2,0.3,0.3c0.1,0.1,0.1,0.2,0.2,0.2c0,0,0.1,0.1,0.1,0.1
	c0.1,0,0.1,0.1,0.2,0.1c0.1,0.2,0.3,0.3,0.5,0.5c0.1,0.1,0.3,0.3,0.4,0.4c0.1,0.1,0.2,0.2,0.3,0.3c0.2,0.2,0.4,0.4,0.6,0.6
	c0.1,0.1,0.2,0.2,0.3,0.3c0.1,0.1,0.2,0.2,0.2,0.2c0.1,0.1,0.1,0.1,0.2,0.2c0.2,0.2,0.4,0.4,0.6,0.6c0,0,0,0,0.1,0
	c0,0,0.1,0.1,0.1,0.1c0.1,0.1,0.2,0.2,0.3,0.2c0,0,0,0,0.1,0c0.1,0.1,0.1,0.1,0.2,0.2c0,0,0.1,0.1,0.1,0.1c0,0,0,0,0,0c0,0,0,0,0,0
	c0.1,0.1,0.1,0.1,0.1,0.1c0,0,0,0,0.1,0.1c0,0,0,0,0.1,0c0,0,0.1,0,0.1,0.1c0,0,0.1,0.1,0.1,0.1c0,0,0.1,0.1,0.1,0.1
	c0,0,0.1,0.1,0.1,0.1c0.1,0.1,0.1,0.1,0.2,0.2c0.1,0.1,0.3,0.3,0.4,0.4c0.2,0.2,0.4,0.4,0.7,0.6c0,0,0,0,0,0c0.1,0,0.1,0.1,0.1,0.1
	c0,0,0,0,0,0c0,0,0,0,0,0c0,0,0,0,0,0c0.1,0.1,0.1,0.1,0.2,0.2c0,0,0,0,0,0c0.1,0.1,0.2,0.2,0.3,0.3c0.1,0.1,0.2,0.1,0.2,0.2
	c0.1,0.1,0.1,0.1,0.2,0.2c0,0,0.1,0.1,0.1,0.1c0,0,0,0,0,0c0.1,0.1,0.2,0.2,0.4,0.3c0,0,0,0,0,0c0.1,0.1,0.1,0.1,0.2,0.2
	c0,0,0,0,0,0c0,0,0,0,0.1,0c0.2,0.2,0.4,0.3,0.6,0.5c0,0,0,0,0.1,0c0,0,0.1,0.1,0.1,0.1c0,0,0,0,0,0c0,0,0,0,0,0l0,0l0,0
	c0,0,0,0,0,0c0.1,0.1,0.2,0.1,0.2,0.2c0.1,0.1,0.1,0.1,0.2,0.2c0,0,0,0,0.1,0.1c0.1,0.1,0.2,0.2,0.3,0.2c0.2,0.1,0.3,0.3,0.5,0.4
	c0.1,0.1,0.3,0.2,0.4,0.4c0,0,0.1,0,0.1,0.1c0.1,0.1,0.1,0.1,0.2,0.1c0.2,0.2,0.5,0.4,0.7,0.6c0.1,0.1,0.2,0.2,0.3,0.2
	c0.1,0.1,0.2,0.2,0.4,0.3c0,0,0,0,0.1,0c0,0,0,0,0.1,0c0,0,0.1,0.1,0.1,0.1c0.4,0.3,0.8,0.6,1.2,0.9c0.2,0.1,0.4,0.3,0.6,0.4
	c0.1,0.1,0.2,0.2,0.4,0.3c0.1,0.1,0.2,0.2,0.3,0.2c0.4,0.3,0.8,0.6,1.2,0.8c0.1,0.1,0.3,0.2,0.4,0.3c0,0,0,0,0,0
	c0.1,0.1,0.1,0.1,0.2,0.2c0.4,0.3,0.9,0.6,1.4,0.9c0.1,0.1,0.2,0.1,0.2,0.2c0.1,0.1,0.3,0.2,0.4,0.3c0,0,0,0,0,0
	c0.1,0.1,0.1,0.1,0.2,0.1c0.3,0.2,0.6,0.4,0.9,0.6c0.2,0.2,0.5,0.3,0.8,0.5v0c0.4,0.2,0.7,0.4,1.1,0.6c0.1,0.1,0.2,0.1,0.3,0.2
	c0.2,0.1,0.5,0.3,0.7,0.4c0.1,0,0.2,0.1,0.2,0.1c0.4,0.2,0.7,0.4,1.1,0.6c0,0,0.1,0,0.1,0.1c0.2,0.1,0.4,0.2,0.5,0.3
	c0.1,0.1,0.2,0.1,0.4,0.2c0,0,0,0,0,0c0,0,0.1,0.1,0.1,0.1c0,0,0,0,0.1,0c0,0,0.1,0,0.1,0.1c0,0,0.1,0.1,0.2,0.1
	c0,0,0.1,0.1,0.1,0.1c0.2,0.1,0.4,0.2,0.6,0.3c0.1,0.1,0.2,0.1,0.3,0.1c0.1,0.1,0.2,0.1,0.3,0.1c0.1,0,0.1,0.1,0.2,0.1
	c0,0,0,0,0.1,0c0.1,0.1,0.2,0.1,0.4,0.2c0.1,0,0.2,0.1,0.2,0.1c0.1,0,0.1,0.1,0.2,0.1c0,0,0.1,0,0.1,0c0.1,0.1,0.3,0.1,0.4,0.2
	c0,0,0,0,0,0c0.1,0.1,0.2,0.1,0.3,0.2c0,0,0.1,0,0.1,0.1c0.1,0.1,0.3,0.1,0.4,0.2c0,0,0.1,0,0.1,0.1c0.1,0,0.2,0.1,0.2,0.1
	c0,0,0.1,0,0.1,0c0.1,0,0.1,0.1,0.2,0.1c0,0,0.1,0,0.1,0.1c0.1,0,0.1,0.1,0.2,0.1c0.1,0.1,0.3,0.1,0.4,0.2c0.1,0,0.1,0.1,0.2,0.1
	c0.2,0.1,0.4,0.2,0.6,0.3c0.1,0,0.2,0.1,0.2,0.1c0.1,0,0.1,0.1,0.2,0.1c0.1,0.1,0.2,0.1,0.2,0.1c0.1,0.1,0.2,0.1,0.3,0.1
	c0.1,0.1,0.2,0.1,0.4,0.2c0,0,0.1,0.1,0.1,0.1c0.1,0.1,0.2,0.1,0.4,0.2c0.2,0.1,0.5,0.2,0.7,0.3c0.1,0,0.2,0.1,0.2,0.1
	c0.3,0.2,0.7,0.3,1,0.5c0.1,0.1,0.3,0.1,0.4,0.2c0,0,0.1,0,0.1,0.1c0,0,0.1,0,0.1,0c0.2,0.1,0.5,0.2,0.7,0.3c0,0,0,0,0.1,0
	c0.1,0,0.1,0.1,0.2,0.1c0,0,0,0,0,0h0c0,0,0.1,0,0.1,0c0,0,0,0,0.1,0c0,0,0.1,0,0.1,0c0.1,0,0.2,0.1,0.3,0.1c0.1,0,0.1,0,0.2,0.1
	c0,0,0,0,0.1,0c0,0,0.1,0,0.1,0c0.1,0,0.2,0.1,0.2,0.1c0.1,0,0.1,0,0.2,0.1c0,0,0.1,0,0.1,0.1c0.2,0.1,0.4,0.2,0.6,0.3
	c0.1,0,0.2,0.1,0.2,0.1c0,0,0.1,0,0.1,0.1c0,0,0,0,0,0c0,0,0,0,0,0c0.1,0,0.1,0.1,0.2,0.1c0,0,0,0,0.1,0c0,0,0,0,0,0
	c0,0,0.1,0,0.1,0c0,0,0,0,0.1,0c0.1,0.1,0.3,0.1,0.4,0.2c0.1,0.1,0.2,0.1,0.4,0.1c0,0,0.1,0,0.1,0c0.2,0.1,0.5,0.2,0.7,0.3
	c0,0,0.1,0,0.1,0c0,0,0,0,0.1,0c0,0,0.1,0,0.1,0c0.2,0.1,0.3,0.1,0.5,0.2c0.1,0,0.2,0.1,0.3,0.1c0,0,0.1,0,0.1,0c0,0,0,0,0,0
	c0,0,0,0,0,0c0,0,0,0,0.1,0c0,0,0,0,0,0c0.4,0.1,0.8,0.3,1.1,0.4c0.1,0,0.2,0.1,0.3,0.1c0.2,0.1,0.4,0.1,0.6,0.2c0,0,0.1,0,0.1,0
	c0.4,0.1,0.9,0.3,1.3,0.4c0.1,0,0.1,0,0.2,0c0.2,0.1,0.3,0.1,0.5,0.1c0.1,0.1,0.3,0.1,0.4,0.1c0,0,0,0,0,0c0,0,0,0,0,0
	c0.1,0,0.1,0,0.2,0c0.1,0,0.3,0.1,0.4,0.1c0.1,0,0.3,0.1,0.4,0.1c0.1,0,0.2,0.1,0.4,0.1c0.3,0.1,0.6,0.2,0.9,0.3
	c0.1,0,0.2,0.1,0.3,0.1c0,0,0,0,0.1,0c0,0,0,0,0.1,0c0,0,0,0,0,0c0.1,0,0.1,0,0.2,0.1c0,0,0.1,0,0.1,0c0,0,0.1,0,0.1,0c0,0,0,0,0,0
	c0.1,0.1,0.3,0.1,0.4,0.1c0.2,0.1,0.4,0.1,0.6,0.2c0,0,0,0,0,0c0.3,0.1,0.6,0.2,0.9,0.2c0.1,0,0.2,0.1,0.2,0.1c0.1,0,0.1,0,0.2,0
	c0,0,0,0,0,0c0,0,0.1,0,0.1,0s0,0,0.1,0c0.1,0,0.2,0.1,0.3,0.1c0,0,0.1,0,0.1,0c0.2,0.1,0.4,0.1,0.6,0.1c0.4,0.1,0.8,0.2,1.2,0.3
	c0,0,0,0,0,0c0,0,0.1,0,0.1,0c0.1,0,0.2,0,0.2,0c0.1,0,0.1,0,0.2,0.1c0.3,0.1,0.6,0.1,0.9,0.2c0.5,0.1,0.9,0.2,1.4,0.3
	c0.2,0,0.4,0.1,0.6,0.1c1.1,0.2,2.2,0.4,3.3,0.6c0.4,0.1,0.8,0.1,1.2,0.2c0,0,0.1,0,0.1,0c0.2,0,0.3,0.1,0.5,0.1
	c0.2,0,0.4,0.1,0.6,0.1c0.6,0.1,1.1,0.2,1.7,0.2c0.1,0,0.2,0,0.2,0h0c0.3,0,0.6,0.1,0.9,0.1c0,0,0,0,0.1,0c0.1,0,0.1,0,0.2,0
	c0,0,0.1,0,0.1,0c0,0,0,0,0,0c0.1,0,0.2,0,0.4,0c0.1,0,0.1,0,0.2,0c0.2,0,0.4,0,0.6,0.1c0.1,0,0.2,0,0.3,0c0,0,0.1,0,0.1,0
	c0,0,0,0,0.1,0c0.2,0,0.4,0,0.6,0.1c0,0,0.1,0,0.2,0c0.1,0,0.2,0,0.3,0c0.1,0,0.2,0,0.2,0c0.1,0,0.3,0,0.5,0c0,0,0,0,0.1,0
	c0,0,0.1,0,0.1,0c0,0,0.1,0,0.1,0c0,0,0,0,0,0c0,0,0.1,0,0.1,0c0,0,0,0,0,0c0,0,0,0,0,0c0,0,0.1,0,0.1,0c0.1,0,0.2,0,0.3,0
	c0.2,0,0.5,0,0.7,0.1c0,0,0.1,0,0.1,0c0.1,0,0.2,0,0.4,0c0,0,0,0,0,0c0,0,0,0,0,0c0.1,0,0.1,0,0.2,0c0,0,0,0,0,0c0,0,0,0,0.1,0
	c0,0,0,0,0.1,0c0,0,0,0,0,0c0.1,0,0.1,0,0.2,0c0,0,0.1,0,0.1,0c0,0,0,0,0,0c0,0,0,0,0.1,0c0.1,0,0.2,0,0.3,0c0,0,0.1,0,0.1,0
	c0.1,0,0.1,0,0.2,0c0,0,0.1,0,0.1,0s0,0,0.1,0c0.1,0,0.1,0,0.2,0c0,0,0.1,0,0.1,0c0.1,0,0.2,0,0.3,0c0.1,0,0.2,0,0.3,0
	c0,0,0.1,0,0.1,0c0,0,0.1,0,0.1,0c0,0,0.1,0,0.1,0c0.1,0,0.3,0,0.4,0c0,0,0,0,0,0c0,0,0.1,0,0.1,0c-30.7-0.7-59.4-9.7-84-24.7
	C198.9,308,173.5,277,160.5,240c-6.1-17.5-9.5-36.4-9.5-56c0-32.3,9.1-62.5,24.8-88.2C205.1,48,257.4,15.9,317.3,15
	c1.8,0,3.5,0,5.3,0c1.8,0,3.6,0.1,5.3,0.1c1.1,0,2.2,0.1,3.3,0.1c0.9,0,1.7,0.1,2.6,0.1c0.9,0,1.9,0.1,2.8,0.2
	c0.6,0.1,1.3,0.1,1.9,0.2c0.7,0.1,1.5,0.1,2.2,0.2c0.2,0,0.5,0.1,0.8,0.1c0.8,0.1,1.6,0.2,2.4,0.2c15.9,1.7,31.7,5.1,47,10.1
	c1.7,0.6,3.4,1.1,5.1,1.8c4.2,1.5,8.5,3.2,12.6,5c1.6,0.7,3.3,1.4,4.9,2.1c0,0,0,0,0.1,0c17.2,7.9,33.2,17.8,47.7,29.5
	c0.7,0.6,1.4,1.1,2.1,1.7c1.4,1.1,2.7,2.3,4.1,3.4c0.7,0.6,1.3,1.2,2,1.8c0.7,0.6,1.3,1.2,2,1.8C472,74.2,472.7,74.8,473.4,75.4z"/>
</svg>
